<?xml version="1.0" standalone="no"?>
<!DOCTYPE svg PUBLIC "-//W3C//DTD SVG 20010904//EN"
 "http://www.w3.org/TR/2001/REC-SVG-20010904/DTD/svg10.dtd">
<svg version="1.0" xmlns="http://www.w3.org/2000/svg"
 width="633.000000pt" height="408.000000pt" viewBox="0 0 633.000000 408.000000"
 preserveAspectRatio="xMidYMid meet">

<g transform="translate(0.000000,408.000000) scale(0.100000,-0.100000)"
fill="#000000" stroke="none">
<path d="M2427 3958 c-4 -24 -9 -58 -13 -75 -4 -20 -2 -33 3 -33 6 0 13 19 17
43 4 23 9 57 12 75 4 18 2 32 -4 32 -5 0 -12 -19 -15 -42z"/>
<path d="M2710 3990 c0 -5 5 -10 10 -10 6 0 10 5 10 10 0 6 -4 10 -10 10 -5 0
-10 -4 -10 -10z"/>
<path d="M2990 3975 c0 -21 -5 -25 -28 -25 -35 0 -52 -16 -52 -50 0 -37 18
-50 67 -50 l43 0 0 75 c0 60 -3 75 -15 75 -9 0 -15 -9 -15 -25z m-2 -73 c4
-28 -24 -40 -45 -19 -14 13 -14 19 -3 32 18 22 44 15 48 -13z"/>
<path d="M3972 3988 c-7 -7 -12 -18 -12 -25 0 -7 -3 -13 -7 -13 -5 0 -8 -12
-8 -27 -1 -16 -4 -49 -8 -75 -6 -32 -5 -48 2 -48 6 0 11 9 11 20 0 47 22 119
38 123 15 4 15 5 0 6 -24 1 -23 22 2 28 11 3 20 9 20 14 0 13 -24 11 -38 -3z"/>
<path d="M3157 3956 c-6 -14 6 -76 17 -95 9 -14 46 -15 46 -1 0 6 -7 10 -15
10 -10 0 -15 10 -15 30 0 20 5 30 15 30 8 0 15 5 15 10 0 6 -7 10 -15 10 -8 0
-15 5 -15 10 0 15 -27 12 -33 -4z"/>
<path d="M2082 3938 c-18 -18 -15 -75 4 -82 25 -10 62 -7 70 5 5 9 -1 10 -20
5 -17 -4 -34 -2 -42 5 -24 20 -16 29 27 29 36 0 40 2 37 23 -2 16 -11 23 -33
25 -17 2 -36 -3 -43 -10z m58 -13 c0 -9 -9 -15 -25 -15 -26 0 -34 15 -12 23
23 10 37 7 37 -8z"/>
<path d="M2190 3931 c-13 -26 -13 -54 2 -69 15 -15 65 -16 74 0 5 8 0 9 -15 5
-33 -8 -51 2 -51 28 0 33 26 52 50 37 18 -11 36 -2 23 12 -15 15 -73 6 -83
-13z"/>
<path d="M2294 3925 c-14 -21 -15 -31 -6 -50 22 -47 102 -22 102 31 0 49 -68
62 -96 19z m60 9 c23 -9 20 -51 -5 -64 -38 -21 -65 22 -33 54 18 18 17 18 38
10z"/>
<path d="M2471 3931 c-26 -47 -4 -85 46 -79 33 4 55 40 44 72 -11 30 -75 35
-90 7z m69 -6 c6 -8 9 -23 5 -34 -12 -38 -65 -36 -65 3 0 40 36 60 60 31z"/>
<path d="M2594 3936 c-3 -8 -4 -20 -3 -27 1 -8 -3 -27 -10 -43 -17 -43 -11
-61 25 -64 62 -6 81 53 22 65 l-30 6 31 13 c17 7 31 20 31 28 0 8 8 20 18 25
13 8 7 10 -31 11 -32 0 -49 -5 -53 -14z m54 -13 c5 -17 -26 -29 -40 -15 -6 6
-7 15 -3 22 9 14 37 9 43 -7z m2 -82 c0 -5 -6 -14 -14 -20 -17 -14 -61 3 -51
20 8 11 65 12 65 0z"/>
<path d="M2707 3943 c-11 -19 -18 -93 -9 -93 5 0 13 21 17 46 6 43 3 65 -8 47z"/>
<path d="M2756 3934 c-19 -18 -21 -55 -4 -72 15 -15 65 -16 74 0 5 8 2 9 -11
4 -24 -9 -55 2 -55 20 0 10 12 14 40 14 40 0 45 5 34 34 -8 21 -58 21 -78 0z
m62 -11 c2 -8 -6 -13 -22 -13 -25 0 -33 10 -19 24 10 10 36 3 41 -11z"/>
<path d="M3053 3938 c2 -7 14 -12 25 -10 33 5 26 -12 -9 -25 -47 -18 -36 -47
19 -51 l42 -3 0 38 c0 22 -5 44 -12 51 -16 16 -71 16 -65 0z m47 -58 c0 -5 -7
-10 -15 -10 -8 0 -15 5 -15 10 0 6 7 10 15 10 8 0 15 -4 15 -10z"/>
<path d="M3253 3938 c2 -7 14 -12 25 -10 33 5 26 -12 -9 -25 -47 -18 -36 -47
19 -51 l42 -3 0 38 c0 22 -5 44 -12 51 -16 16 -71 16 -65 0z m47 -58 c0 -5 -7
-10 -15 -10 -8 0 -15 5 -15 10 0 6 7 10 15 10 8 0 15 -4 15 -10z"/>
<path d="M3416 3942 c-3 -4 -4 -21 -4 -38 1 -16 -2 -39 -6 -52 l-7 -22 -252
-1 c-139 0 -298 0 -354 1 -62 1 -103 -3 -103 -9 0 -6 138 -11 383 -13 519 -4
837 1 837 13 0 6 -10 10 -22 9 -13 -1 -105 -2 -204 -1 -173 1 -182 2 -187 21
-4 15 -14 20 -39 20 l-33 1 27 15 c24 13 48 42 48 58 0 9 -78 7 -84 -2z m39
-32 c-5 -8 -11 -8 -17 -2 -6 6 -7 16 -3 22 5 8 11 8 17 2 6 -6 7 -16 3 -22z
m25 -70 c0 -5 -14 -10 -31 -10 -17 0 -28 4 -24 10 3 6 17 10 31 10 13 0 24 -4
24 -10z"/>
<path d="M3518 3925 c-18 -41 3 -75 47 -75 28 0 38 5 47 25 18 41 -3 75 -47
75 -28 0 -38 -5 -47 -25z m67 -25 c0 -29 -32 -41 -41 -16 -9 24 4 48 23 44 12
-2 18 -12 18 -28z"/>
<path d="M3640 3912 c0 -43 14 -62 45 -62 31 0 45 19 45 62 0 49 -18 50 -22 1
-2 -27 -8 -39 -20 -41 -15 -3 -18 4 -18 37 0 30 -4 41 -15 41 -11 0 -15 -11
-15 -38z"/>
<path d="M3769 3903 c12 -31 25 -48 36 -48 11 0 23 16 35 48 14 36 15 47 5 47
-7 0 -19 -17 -28 -37 l-14 -37 -12 37 c-7 20 -19 37 -27 37 -11 0 -10 -9 5
-47z"/>
<path d="M4013 3899 c-6 -27 -6 -49 -2 -49 4 0 11 16 15 36 4 24 13 38 25 41
27 7 23 21 -5 21 -21 0 -25 -7 -33 -49z"/>
<path d="M3355 3871 c-7 -12 12 -24 25 -16 11 7 4 25 -10 25 -5 0 -11 -4 -15
-9z"/>
<path d="M2850 3860 c0 -5 5 -10 10 -10 6 0 10 5 10 10 0 6 -4 10 -10 10 -5 0
-10 -4 -10 -10z"/>
<path d="M3880 3860 c0 -5 5 -10 10 -10 6 0 10 5 10 10 0 6 -4 10 -10 10 -5 0
-10 -4 -10 -10z"/>
<path d="M2060 3820 c0 -6 88 -10 245 -10 157 0 245 4 245 10 0 6 -88 10 -245
10 -157 0 -245 -4 -245 -10z"/>
<path d="M3970 3820 c0 -5 23 -10 50 -10 28 0 50 5 50 10 0 6 -22 10 -50 10
-27 0 -50 -4 -50 -10z"/>
<path d="M162 3753 c87 -2 229 -2 315 0 87 1 16 3 -157 3 -173 0 -244 -2 -158
-3z"/>
<path d="M648 3753 c7 -3 16 -2 19 1 4 3 -2 6 -13 5 -11 0 -14 -3 -6 -6z"/>
<path d="M2 2408 l-2 -1198 198 2 197 3 -192 2 -193 3 -3 1193 -2 1192 -3
-1197z"/>
<path d="M5388 3354 c-39 -47 -46 -71 -28 -105 14 -25 2 -46 -14 -24 -6 9 -27
20 -46 25 -19 5 -45 12 -57 15 -19 6 -23 4 -23 -15 0 -55 52 -120 95 -120 19
0 20 -5 17 -80 -2 -52 0 -80 7 -80 7 0 11 26 11 67 0 52 3 64 12 55 13 -13 57
-16 74 -4 22 15 44 58 44 85 0 25 -3 28 -22 24 -85 -19 -87 -19 -81 2 3 12 16
24 29 27 35 9 54 42 54 95 0 92 -17 100 -72 33z m37 -93 c-15 -15 -16 -15 -9
2 7 18 -10 24 -21 7 -11 -18 -25 -11 -25 12 0 12 15 37 33 56 l32 33 3 -47 c2
-33 -2 -52 -13 -63z m-134 -31 c23 0 62 -37 53 -51 -4 -6 -11 -6 -20 2 -8 6
-18 9 -22 5 -4 -4 2 -14 12 -22 15 -10 16 -14 5 -14 -25 0 -56 28 -68 61 -9
27 -8 30 5 25 9 -3 24 -6 35 -6z m169 -66 c0 -11 -23 -49 -34 -56 -6 -4 -20
-8 -30 -8 -20 0 -20 0 0 15 18 14 18 14 -5 15 -23 0 -24 1 -6 20 16 18 75 29
75 14z"/>
<path d="M3082 3348 c-6 -6 -12 -18 -12 -25 0 -10 -27 -13 -115 -13 l-115 0 0
-235 0 -235 43 0 c34 0 44 -4 52 -22 9 -20 19 -23 78 -26 l69 -3 -26 -34 c-14
-18 -26 -38 -26 -44 0 -22 17 -10 49 34 18 25 40 45 51 45 10 0 36 -21 58 -47
48 -57 68 -51 23 6 l-32 40 68 3 c59 3 69 6 78 25 7 17 19 23 55 25 l45 3 3
43 c2 33 0 42 -12 42 -12 0 -16 -10 -16 -35 l0 -35 -270 0 -270 0 0 215 0 215
270 0 c173 0 270 -4 270 -10 0 -5 7 -10 16 -10 9 0 14 7 12 18 -3 15 -18 17
-118 20 -108 2 -116 4 -125 25 -8 17 -20 23 -50 25 -23 2 -46 -3 -53 -10z m86
-25 c2 -9 -8 -13 -32 -13 -26 0 -36 4 -36 16 0 19 61 16 68 -3z m142 -493 c0
-6 -65 -10 -175 -10 -110 0 -175 4 -175 10 0 6 65 10 175 10 110 0 175 -4 175
-10z"/>
<path d="M670 3050 l0 -270 250 0 c160 0 250 4 250 10 0 6 -87 10 -240 10
l-240 0 0 205 0 205 214 0 c130 0 217 4 221 10 4 6 -73 11 -212 12 l-218 3 -3
33 -3 32 301 0 301 0 -3 -32 c-3 -33 -4 -33 -61 -36 -73 -4 -66 -22 9 -22 l54
0 0 -170 c0 -107 4 -170 10 -170 6 0 10 82 10 225 l0 225 -320 0 -320 0 0
-270z"/>
<path d="M720 3270 c0 -5 5 -10 11 -10 5 0 7 5 4 10 -3 6 -8 10 -11 10 -2 0
-4 -4 -4 -10z"/>
<path d="M760 3270 c0 -5 5 -10 10 -10 6 0 10 5 10 10 0 6 -4 10 -10 10 -5 0
-10 -4 -10 -10z"/>
<path d="M810 3270 c0 -5 5 -10 10 -10 6 0 10 5 10 10 0 6 -4 10 -10 10 -5 0
-10 -4 -10 -10z"/>
<path d="M900 3270 c0 -6 67 -10 180 -10 113 0 180 4 180 10 0 6 -67 10 -180
10 -113 0 -180 -4 -180 -10z"/>
<path d="M3043 3228 c-6 -7 -13 -21 -16 -31 -6 -16 -14 -18 -47 -12 -27 5 -46
3 -55 -5 -22 -18 -18 -57 5 -70 22 -12 60 -5 60 11 0 5 9 18 21 30 16 16 23
18 35 8 7 -6 24 -9 36 -6 24 7 68 -25 68 -49 0 -12 22 -24 45 -24 8 0 25 12
39 27 l25 27 -22 12 c-43 26 -50 27 -69 15 -23 -15 -48 1 -48 30 0 38 -55 65
-77 37z m50 -20 c6 -19 -3 -38 -18 -38 -18 0 -28 17 -21 35 7 18 33 20 39 3z
m-115 -61 c4 -20 -25 -34 -40 -19 -15 15 -1 44 19 40 10 -2 19 -11 21 -21z
m229 -8 c14 -14 6 -39 -12 -39 -18 0 -28 17 -21 35 6 18 18 19 33 4z"/>
<path d="M5103 3212 c-10 -9 -31 -70 -47 -139 l-30 -123 45 -87 c24 -47 46
-90 47 -95 2 -4 -6 -8 -17 -8 -12 0 -21 -4 -21 -10 0 -6 48 -10 125 -10 77 0
125 4 125 10 0 6 -11 10 -24 10 -19 0 -22 4 -19 23 8 40 -16 106 -54 148 -34
37 -35 42 -30 90 7 61 -5 89 -38 89 -30 0 -41 -19 -56 -101 -11 -59 -10 -68
10 -106 11 -23 26 -45 32 -48 22 -14 20 5 -5 48 -26 44 -26 45 -12 111 16 77
21 85 41 65 11 -11 12 -23 4 -57 -10 -47 -1 -77 33 -100 34 -25 52 -76 49
-139 -1 -21 -6 -23 -58 -22 l-58 0 -48 98 -48 99 26 103 c15 57 29 111 31 121
11 38 64 27 64 -13 0 -11 5 -19 10 -19 17 0 11 46 -8 63 -24 22 -48 21 -69 -1z"/>
<path d="M5544 3222 c-17 -11 -36 -51 -29 -62 10 -17 25 -11 25 9 0 28 23 43
43 28 21 -16 70 -212 63 -252 -3 -16 -21 -55 -40 -86 -19 -31 -37 -66 -41 -78
-5 -18 -14 -21 -66 -21 l-59 0 0 34 c0 50 16 86 56 127 34 35 36 39 32 100 -2
53 0 64 14 67 13 2 18 -11 28 -70 12 -68 11 -75 -9 -113 -25 -47 -27 -62 -5
-44 34 28 47 70 40 136 -9 88 -20 113 -50 113 -36 0 -49 -30 -41 -94 6 -49 5
-54 -20 -74 -37 -30 -65 -88 -65 -139 0 -36 -3 -43 -19 -43 -11 0 -23 -4 -26
-10 -4 -6 40 -10 125 -10 85 0 129 4 125 10 -3 6 -15 10 -26 10 -10 0 -19 2
-19 4 0 2 20 39 45 82 53 94 55 113 19 249 -31 122 -58 156 -100 127z"/>
<path d="M3374 3201 c-44 -27 -64 -59 -64 -103 0 -54 49 -107 107 -115 40 -5
45 -9 78 -69 37 -66 60 -79 85 -49 10 12 5 27 -25 82 -33 61 -36 71 -26 99 25
69 4 131 -53 158 -44 21 -64 20 -102 -3z m79 -10 c41 -16 67 -51 67 -91 0 -88
-102 -125 -162 -59 -34 36 -36 76 -7 113 32 41 63 52 102 37z m76 -241 c30
-49 39 -80 23 -80 -9 0 -72 106 -72 121 0 22 21 5 49 -41z"/>
<path d="M3430 3166 c0 -2 14 -18 30 -36 26 -28 30 -30 30 -12 0 12 -10 28
-22 36 -22 15 -38 20 -38 12z"/>
<path d="M760 3130 c0 -6 45 -10 115 -10 70 0 115 4 115 10 0 6 -45 10 -115
10 -70 0 -115 -4 -115 -10z"/>
<path d="M1094 3096 c-43 -19 -64 -53 -64 -104 0 -56 39 -98 99 -108 36 -6 44
-13 80 -70 22 -35 45 -64 50 -64 5 0 17 7 26 16 14 15 13 21 -20 82 -31 55
-35 69 -26 89 16 35 13 95 -5 122 -16 23 -71 51 -96 51 -7 -1 -27 -7 -44 -14z
m114 -42 c30 -34 29 -85 -2 -121 -52 -61 -156 -21 -156 60 0 87 101 126 158
61z m34 -205 c26 -43 37 -86 19 -74 -11 6 -71 108 -71 120 0 18 27 -6 52 -46z"/>
<path d="M1140 3050 c0 -5 4 -10 10 -10 5 0 18 -10 30 -22 15 -16 20 -18 20
-6 0 17 -31 48 -48 48 -7 0 -12 -4 -12 -10z"/>
<path d="M3030 3005 l0 -95 45 0 45 0 0 79 c0 102 -18 117 -22 19 -3 -67 -5
-73 -25 -76 -22 -3 -23 0 -23 72 0 44 4 76 10 76 6 0 10 5 10 10 0 6 -9 10
-20 10 -19 0 -20 -7 -20 -95z"/>
<path d="M765 3060 c3 -5 44 -10 91 -10 49 0 84 4 84 10 0 6 -37 10 -91 10
-57 0 -88 -4 -84 -10z"/>
<path d="M2910 2980 l0 -70 45 0 c45 0 45 0 45 35 0 39 -17 48 -22 13 -2 -15
-10 -23 -23 -23 -17 0 -20 8 -23 48 -3 45 -2 47 22 47 15 0 26 -4 26 -10 0 -5
5 -10 10 -10 6 0 10 9 10 20 0 17 -7 20 -45 20 l-45 0 0 -70z"/>
<path d="M3268 3024 c-5 -4 -8 -31 -8 -61 l0 -53 45 0 c46 0 65 16 50 40 -5 8
-13 6 -26 -6 -29 -26 -47 -11 -51 41 -2 26 -6 43 -10 39z"/>
<path d="M765 3000 c-3 -5 0 -13 8 -16 23 -9 142 0 142 11 0 14 -142 19 -150
5z"/>
<path d="M3144 2996 c-3 -8 -4 -29 -2 -48 3 -32 4 -33 48 -33 l45 0 3 43 c2
33 0 42 -12 42 -12 0 -16 -10 -16 -35 0 -28 -4 -35 -20 -35 -14 0 -20 7 -20
24 0 13 5 26 12 28 15 5 1 28 -18 28 -8 0 -17 -6 -20 -14z"/>
<path d="M5520 2840 c0 -5 5 -10 11 -10 5 0 7 5 4 10 -3 6 -8 10 -11 10 -2 0
-4 -4 -4 -10z"/>
<path d="M472 2498 c6 -18 28 -21 28 -4 0 9 -7 16 -16 16 -9 0 -14 -5 -12 -12z"/>
<path d="M970 2484 c0 -21 -3 -24 -21 -19 -41 13 -78 -52 -47 -83 7 -7 29 -12
50 -12 l38 0 0 70 c0 40 -4 70 -10 70 -5 0 -10 -12 -10 -26z m-5 -69 c0 -13
-8 -21 -22 -23 -19 -3 -23 1 -23 23 0 22 4 26 23 23 14 -2 22 -10 22 -23z"/>
<path d="M1250 2484 c0 -21 -3 -24 -21 -19 -41 13 -78 -52 -47 -83 7 -7 29
-12 50 -12 l38 0 0 70 c0 40 -4 70 -10 70 -5 0 -10 -12 -10 -26z m-5 -69 c0
-13 -8 -21 -22 -23 -19 -3 -23 1 -23 23 0 22 4 26 23 23 14 -2 22 -10 22 -23z"/>
<path d="M1686 2495 c-3 -9 0 -15 8 -15 8 0 16 7 20 15 3 9 0 15 -8 15 -8 0
-16 -7 -20 -15z"/>
<path d="M2870 2495 c0 -9 5 -15 11 -13 6 2 11 8 11 13 0 5 -5 11 -11 13 -6 2
-11 -4 -11 -13z"/>
<path d="M3110 2484 c0 -21 -3 -24 -21 -19 -41 13 -78 -52 -47 -83 7 -7 29
-12 50 -12 l38 0 0 70 c0 40 -4 70 -10 70 -5 0 -10 -12 -10 -26z m-5 -69 c0
-13 -8 -21 -22 -23 -19 -3 -23 1 -23 23 0 22 4 26 23 23 14 -2 22 -10 22 -23z"/>
<path d="M3160 2495 c0 -9 5 -15 11 -13 6 2 11 8 11 13 0 5 -5 11 -11 13 -6 2
-11 -4 -11 -13z"/>
<path d="M5110 2440 l0 -70 40 0 c44 0 66 25 55 60 -8 24 -41 44 -61 36 -10
-4 -14 2 -14 19 0 14 -4 25 -10 25 -6 0 -10 -30 -10 -70z m68 -22 c-2 -15 -10
-23 -23 -23 -13 0 -21 8 -23 23 -3 18 1 22 23 22 22 0 26 -4 23 -22z"/>
<path d="M90 2435 l0 -65 39 0 c31 0 44 6 60 26 27 34 26 50 -4 79 -16 17 -35
25 -60 25 l-35 0 0 -65z m75 32 c24 -18 14 -62 -17 -70 -31 -9 -38 -1 -38 44
0 31 4 39 18 39 10 0 26 -6 37 -13z"/>
<path d="M2480 2435 l0 -65 40 0 c47 0 80 27 80 65 0 38 -33 65 -80 65 l-40 0
0 -65z m78 33 c21 -21 14 -58 -14 -68 -14 -6 -27 -10 -30 -10 -2 0 -4 20 -4
45 0 37 3 45 18 45 10 0 23 -5 30 -12z"/>
<path d="M4720 2435 l0 -65 40 0 c47 0 80 27 80 65 0 38 -33 65 -80 65 l-40 0
0 -65z m78 33 c21 -21 14 -58 -14 -68 -14 -6 -27 -10 -30 -10 -2 0 -4 20 -4
45 0 37 3 45 18 45 10 0 23 -5 30 -12z"/>
<path d="M3418 2473 c-2 -24 1 -53 7 -80 4 -16 13 -23 30 -23 14 0 25 5 25 10
0 6 -7 10 -15 10 -21 0 -19 40 3 56 15 12 15 13 1 14 -9 0 -19 7 -23 15 -7 21
-26 19 -28 -2z"/>
<path d="M5801 2469 c-8 -14 -9 -24 -3 -28 6 -3 12 -20 14 -36 2 -22 9 -31 26
-33 25 -4 30 13 7 22 -8 3 -15 15 -15 26 0 11 7 20 15 20 20 0 19 6 -5 30 -24
24 -22 25 -39 -1z"/>
<path d="M248 2459 c-21 -12 -24 -59 -6 -77 15 -15 64 -16 73 -2 4 6 -6 10
-24 10 -16 0 -33 5 -36 10 -4 6 6 10 24 10 37 0 44 11 25 38 -17 24 -30 27
-56 11z m37 -19 c3 -5 -3 -10 -15 -10 -12 0 -18 5 -15 10 3 6 10 10 15 10 5 0
12 -4 15 -10z"/>
<path d="M341 2456 c-15 -18 -5 -43 21 -49 11 -3 17 -10 14 -15 -3 -6 -16 -8
-28 -4 -14 3 -19 2 -14 -6 11 -18 56 -14 63 5 4 10 -2 23 -15 34 -22 17 -31
36 -12 24 6 -3 15 -3 21 1 8 4 7 9 -2 15 -20 12 -35 11 -48 -5z"/>
<path d="M538 2459 c-22 -12 -24 -62 -4 -78 17 -14 72 -11 68 4 -2 6 -14 9
-27 7 -12 -2 -26 2 -30 7 -4 7 7 11 29 11 40 0 47 17 20 44 -18 18 -32 20 -56
5z m37 -19 c3 -5 -3 -10 -15 -10 -12 0 -18 5 -15 10 3 6 10 10 15 10 5 0 12
-4 15 -10z"/>
<path d="M1029 2451 c-20 -16 -22 -23 -14 -47 8 -21 18 -30 39 -32 16 -2 33 1
39 7 8 8 2 11 -21 11 -18 0 -32 5 -32 10 0 6 14 10 30 10 22 0 30 5 30 18 0
21 -18 42 -36 42 -6 0 -22 -9 -35 -19z m46 -11 c3 -5 -3 -10 -15 -10 -12 0
-18 5 -15 10 3 6 10 10 15 10 5 0 12 -4 15 -10z"/>
<path d="M1310 2450 c-23 -23 -24 -33 -10 -61 12 -22 59 -26 78 -7 19 19 15
66 -7 78 -28 14 -38 13 -61 -10z m55 -35 c0 -30 -39 -27 -43 3 -3 20 0 23 20
20 15 -2 23 -10 23 -23z"/>
<path d="M1438 2463 c-14 -3 -18 -15 -18 -49 0 -24 5 -44 10 -44 6 0 10 16 10
35 0 28 4 35 20 35 16 0 20 -7 20 -35 0 -19 5 -35 10 -35 14 0 12 74 -2 88
-12 12 -20 13 -50 5z"/>
<path d="M1553 2463 c-20 -4 -23 -11 -23 -49 0 -32 4 -44 15 -44 11 0 15 11
15 36 0 28 3 35 18 32 11 -2 18 -14 20 -36 2 -17 7 -32 13 -32 13 0 11 74 -3
88 -12 12 -16 13 -55 5z"/>
<path d="M1656 2454 c-19 -18 -21 -55 -4 -72 15 -15 64 -16 73 -2 4 6 -7 10
-24 10 -17 0 -31 5 -31 10 0 6 14 10 30 10 23 0 30 4 30 20 0 18 -26 40 -49
40 -5 0 -17 -7 -25 -16z m49 -14 c3 -5 -3 -10 -15 -10 -12 0 -18 5 -15 10 3 6
10 10 15 10 5 0 12 -4 15 -10z"/>
<path d="M1768 2459 c-22 -12 -24 -62 -4 -78 17 -14 72 -11 68 4 -2 6 -14 9
-27 7 -12 -2 -26 2 -30 7 -4 7 7 11 29 11 40 0 47 17 20 44 -18 18 -32 20 -56
5z m37 -19 c3 -5 -3 -10 -15 -10 -12 0 -18 5 -15 10 3 6 10 10 15 10 5 0 12
-4 15 -10z"/>
<path d="M1873 2463 c-20 -8 -15 -39 10 -56 l22 -16 -22 0 c-13 -1 -23 -6 -23
-12 0 -6 12 -9 28 -7 34 4 44 43 13 53 -12 3 -21 11 -21 16 0 6 9 7 21 4 15
-5 20 -3 17 6 -5 15 -26 21 -45 12z"/>
<path d="M2636 2454 c-19 -18 -21 -55 -4 -72 15 -15 64 -16 73 -2 4 6 -7 10
-24 10 -17 0 -31 5 -31 10 0 6 14 10 30 10 23 0 30 4 30 20 0 18 -26 40 -49
40 -5 0 -17 -7 -25 -16z m49 -14 c3 -5 -3 -10 -15 -10 -12 0 -18 5 -15 10 3 6
10 10 15 10 5 0 12 -4 15 -10z"/>
<path d="M2742 2458 c-18 -18 -15 -36 8 -48 11 -6 20 -15 20 -19 0 -5 -9 -7
-20 -4 -11 3 -20 0 -20 -6 0 -6 13 -11 29 -11 38 0 51 29 22 49 -25 16 -28 33
-5 24 12 -4 15 -2 12 8 -6 19 -30 23 -46 7z"/>
<path d="M2943 2463 c-20 -4 -23 -11 -23 -49 0 -32 4 -44 15 -44 11 0 15 11
15 36 0 28 3 35 18 32 11 -2 18 -14 20 -36 2 -17 7 -32 13 -32 13 0 11 74 -3
88 -12 12 -16 13 -55 5z"/>
<path d="M3220 2450 c-36 -36 -15 -84 35 -78 34 4 36 22 2 23 -15 0 -23 7 -25
23 -3 19 1 22 27 22 33 0 42 14 15 24 -25 9 -33 7 -54 -14z"/>
<path d="M3326 2461 c-12 -5 -16 -10 -9 -14 6 -4 18 -4 26 -1 8 3 18 1 21 -4
3 -6 -8 -15 -25 -21 -44 -15 -36 -45 14 -49 l37 -3 0 40 c0 30 -5 43 -19 51
-11 5 -21 10 -23 9 -2 0 -12 -4 -22 -8z m39 -61 c-3 -5 -13 -10 -21 -10 -8 0
-12 5 -9 10 3 6 13 10 21 10 8 0 12 -4 9 -10z"/>
<path d="M3508 2459 c-22 -12 -24 -62 -4 -78 17 -14 72 -11 68 4 -2 6 -14 9
-27 7 -12 -2 -26 2 -30 7 -4 7 7 11 29 11 40 0 47 17 20 44 -18 18 -32 20 -56
5z m37 -19 c3 -5 -3 -10 -15 -10 -12 0 -18 5 -15 10 3 6 10 10 15 10 5 0 12
-4 15 -10z"/>
<path d="M3803 2463 c-20 -8 -15 -41 7 -53 26 -14 17 -30 -12 -22 -14 3 -19 2
-14 -6 11 -18 56 -14 63 5 4 10 -2 23 -15 34 -25 20 -29 34 -7 26 8 -4 17 -2
20 2 4 7 -20 24 -28 20 -1 0 -8 -3 -14 -6z"/>
<path d="M4878 2459 c-22 -12 -24 -62 -4 -78 17 -14 72 -11 68 4 -2 6 -14 9
-27 7 -12 -2 -26 2 -30 7 -4 7 7 11 29 11 40 0 47 17 20 44 -18 18 -32 20 -56
5z m37 -19 c3 -5 -3 -10 -15 -10 -12 0 -18 5 -15 10 3 6 10 10 15 10 5 0 12
-4 15 -10z"/>
<path d="M4983 2463 c-20 -8 -15 -39 10 -56 l22 -16 -22 0 c-13 -1 -23 -6 -23
-12 0 -6 12 -9 28 -7 34 4 44 43 13 53 -12 3 -21 11 -21 16 0 6 9 7 21 4 15
-5 20 -3 17 6 -5 15 -26 21 -45 12z"/>
<path d="M5240 2450 c-23 -23 -24 -33 -10 -61 12 -22 59 -26 78 -7 19 19 15
66 -7 78 -28 14 -38 13 -61 -10z m55 -35 c0 -30 -39 -27 -43 3 -3 20 0 23 20
20 15 -2 23 -10 23 -23z"/>
<path d="M5470 2450 c-23 -23 -24 -33 -10 -61 7 -12 21 -19 40 -19 23 0 30 -4
30 -20 0 -11 5 -20 10 -20 6 0 10 28 10 64 0 58 -2 64 -22 70 -33 9 -36 8 -58
-14z m58 -32 c-2 -15 -10 -23 -23 -23 -13 0 -21 8 -23 23 -3 18 1 22 23 22 22
0 26 -4 23 -22z"/>
<path d="M5708 2459 c-22 -12 -24 -62 -4 -78 17 -14 72 -11 68 4 -2 6 -14 9
-27 7 -12 -2 -26 2 -30 7 -4 7 7 11 29 11 40 0 47 17 20 44 -18 18 -32 20 -56
5z m37 -19 c3 -5 -3 -10 -15 -10 -12 0 -18 5 -15 10 3 6 10 10 15 10 5 0 12
-4 15 -10z"/>
<path d="M5893 2463 c-20 -8 -15 -39 10 -56 l22 -16 -22 0 c-13 -1 -23 -6 -23
-12 0 -6 12 -9 28 -7 34 4 44 43 13 53 -12 3 -21 11 -21 16 0 6 9 7 21 4 15
-5 20 -3 17 6 -5 15 -26 21 -45 12z"/>
<path d="M470 2407 c0 -29 -5 -58 -12 -65 -16 -16 -1 -29 20 -16 24 15 31 134
7 134 -12 0 -15 -12 -15 -53z"/>
<path d="M630 2427 c0 -18 5 -38 12 -45 18 -18 56 -14 68 7 15 30 13 71 -5 71
-11 0 -15 -11 -15 -36 0 -28 -3 -35 -17 -32 -12 2 -19 14 -21 36 -4 42 -22 42
-22 -1z"/>
<path d="M752 2435 c8 -19 8 -28 -2 -40 -7 -8 -10 -19 -6 -23 4 -4 13 1 20 10
12 16 14 16 29 1 20 -20 35 -10 17 12 -10 12 -10 21 -2 40 9 20 9 25 -2 25 -8
0 -17 -6 -20 -12 -5 -10 -7 -10 -12 0 -3 6 -12 12 -20 12 -11 0 -11 -5 -2 -25z"/>
<path d="M2870 2415 c0 -25 5 -45 10 -45 6 0 10 20 10 45 0 25 -4 45 -10 45
-5 0 -10 -20 -10 -45z"/>
<path d="M3160 2415 c0 -25 5 -45 10 -45 6 0 10 20 10 45 0 25 -4 45 -10 45
-5 0 -10 -20 -10 -45z"/>
<path d="M3600 2427 c0 -18 5 -38 12 -45 18 -18 56 -14 68 7 15 30 13 71 -5
71 -11 0 -15 -11 -15 -36 0 -28 -3 -35 -17 -32 -12 2 -19 14 -21 36 -4 42 -22
42 -22 -1z"/>
<path d="M3710 2415 c0 -33 4 -45 15 -45 10 0 15 11 15 35 0 24 5 35 15 35 8
0 15 5 15 10 0 6 -13 10 -30 10 -29 0 -30 -2 -30 -45z"/>
<path d="M5340 2441 c0 -40 19 -71 43 -71 32 0 47 18 47 57 0 43 -18 43 -22 1
-2 -22 -9 -34 -20 -36 -15 -3 -18 4 -18 32 0 25 -4 36 -15 36 -8 0 -15 -9 -15
-19z"/>
<path d="M5580 2427 c0 -18 5 -38 12 -45 18 -18 56 -14 68 7 15 30 13 71 -5
71 -11 0 -15 -11 -15 -36 0 -28 -3 -35 -17 -32 -12 2 -19 14 -21 36 -4 42 -22
42 -22 -1z"/>
<path d="M5990 2156 c0 -8 -10 -16 -22 -18 -18 -2 -23 -10 -23 -33 0 -27 4
-30 33 -33 l32 -3 0 50 c0 28 -4 51 -10 51 -5 0 -10 -6 -10 -14z m0 -51 c0
-25 -23 -35 -35 -15 -10 16 2 40 20 40 9 0 15 -9 15 -25z"/>
<path d="M4513 2126 c2 -42 23 -64 51 -53 12 5 16 18 15 49 l-2 43 -6 -40 c-7
-46 -37 -62 -45 -23 -13 57 -14 61 -13 24z"/>
<path d="M4611 2101 c1 -36 1 -36 8 -6 3 17 13 30 21 30 8 0 18 -13 22 -30 6
-29 6 -29 5 5 -2 31 -5 35 -29 36 -26 1 -28 -2 -27 -35z"/>
<path d="M4694 2126 c-11 -29 1 -51 29 -54 15 -2 27 1 27 6 0 5 -11 7 -25 4
-15 -2 -25 0 -25 7 0 6 12 11 26 11 19 0 25 5 22 18 -4 22 -46 29 -54 8z m41
-6 c3 -5 -3 -10 -15 -10 -12 0 -18 5 -15 10 3 6 10 10 15 10 5 0 12 -4 15 -10z"/>
<path d="M4813 2133 c-15 -5 -18 -63 -3 -63 6 0 10 14 10 30 0 43 30 41 31 -2
l1 -33 7 30 c3 17 13 30 21 30 8 0 18 -13 21 -30 6 -27 7 -27 8 -5 0 14 -3 30
-7 36 -7 10 -66 15 -89 7z"/>
<path d="M4933 2105 c0 -22 2 -30 4 -17 2 12 2 30 0 40 -3 9 -5 -1 -4 -23z"/>
<path d="M4964 2128 c-4 -6 0 -16 9 -23 22 -16 21 -22 0 -28 -14 -4 -12 -5 5
-6 25 -1 31 26 7 35 -8 4 -15 11 -15 16 0 6 7 8 15 4 8 -3 15 -1 15 4 0 14
-27 12 -36 -2z"/>
<path d="M5031 2126 c-20 -24 -9 -51 22 -54 15 -2 27 1 27 6 0 6 -8 8 -19 5
-10 -3 -22 0 -25 6 -5 7 3 11 19 11 20 0 26 4 23 17 -4 23 -31 28 -47 9z m34
-6 c3 -5 -3 -10 -15 -10 -12 0 -18 5 -15 10 3 6 10 10 15 10 5 0 12 -4 15 -10z"/>
<path d="M5140 2125 c-18 -22 -1 -49 31 -52 19 -1 20 -1 4 4 -34 9 -41 23 -11
23 21 0 27 4 24 17 -4 24 -32 28 -48 8z m40 -5 c0 -5 -7 -10 -15 -10 -8 0 -15
5 -15 10 0 6 7 10 15 10 8 0 15 -4 15 -10z"/>
<path d="M5223 2133 c-15 -6 -18 -63 -3 -63 6 0 10 14 10 30 0 42 27 40 33 -2
l5 -33 -2 35 c-1 34 -15 45 -43 33z"/>
<path d="M5340 2125 c-19 -23 -8 -50 23 -53 15 -2 27 1 27 6 0 5 -10 8 -22 8
-17 -1 -23 5 -23 19 0 14 6 20 22 19 12 0 20 3 17 8 -8 13 -30 9 -44 -7z"/>
<path d="M5410 2125 c-20 -25 -8 -50 25 -50 21 0 31 5 33 18 4 21 -14 47 -33
47 -7 0 -18 -7 -25 -15z m48 -18 c4 -20 -25 -34 -40 -19 -15 15 -1 44 19 40
10 -2 19 -11 21 -21z"/>
<path d="M5491 2100 l1 -35 7 30 c3 17 13 30 21 30 8 0 18 -13 21 -30 l7 -30
1 33 c1 43 31 45 31 2 0 -16 5 -30 10 -30 13 0 13 26 0 50 -8 14 -20 18 -55
17 -45 -1 -45 -1 -44 -37z"/>
<path d="M5621 2102 c1 -35 2 -36 8 -8 9 43 31 45 32 4 l1 -33 7 30 c3 17 13
30 21 30 8 0 18 -13 22 -30 6 -29 6 -29 5 5 -2 35 -3 35 -49 37 l-48 2 1 -37z"/>
<path d="M5743 2110 c2 -30 5 -35 27 -35 21 0 25 5 26 30 1 30 1 30 -3 2 -6
-38 -35 -32 -45 8 -6 29 -6 29 -5 -5z"/>
<path d="M5821 2101 c1 -36 1 -36 8 -6 3 17 13 30 21 30 8 0 18 -13 22 -30 6
-29 6 -29 5 5 -2 31 -5 35 -29 36 -26 1 -28 -2 -27 -35z"/>
<path d="M6031 2121 c-14 -25 8 -55 35 -48 17 4 16 5 -3 6 -31 1 -29 21 2 21
27 0 32 9 13 28 -17 17 -36 15 -47 -7z m39 -1 c0 -5 -7 -10 -15 -10 -8 0 -15
5 -15 10 0 6 7 10 15 10 8 0 15 -4 15 -10z"/>
<path d="M6104 2129 c-4 -7 4 -20 17 -30 22 -17 22 -19 5 -19 -11 0 -17 -3
-13 -6 3 -4 14 -4 23 0 15 6 15 8 -2 27 -16 17 -16 22 -4 29 13 8 12 10 -2 10
-9 0 -20 -5 -24 -11z"/>
<path d="M692 1950 c0 -41 2 -47 7 -25 3 17 13 30 21 30 8 0 18 -13 22 -30 6
-29 6 -29 5 5 -2 28 -6 35 -22 35 -11 0 -23 9 -27 20 -3 11 -6 -4 -6 -35z"/>
<path d="M1430 1950 c0 -27 5 -50 10 -50 6 0 10 23 10 50 0 28 -4 50 -10 50
-5 0 -10 -22 -10 -50z"/>
<path d="M2722 1950 c0 -41 2 -47 7 -25 3 17 13 30 21 30 8 0 18 -13 22 -30 6
-29 6 -29 5 5 -2 28 -6 35 -22 35 -11 0 -23 9 -27 20 -3 11 -6 -4 -6 -35z"/>
<path d="M2881 1953 c-1 -53 -1 -53 29 -53 19 0 33 6 37 16 8 22 -10 49 -33
49 -10 0 -22 9 -26 20 -3 12 -6 -1 -7 -32z m57 -16 c4 -20 -25 -34 -40 -19
-15 15 -1 44 19 40 10 -2 19 -11 21 -21z"/>
<path d="M3060 1981 c0 -14 -5 -18 -18 -14 -24 6 -45 -21 -37 -47 4 -14 15
-20 36 -20 28 0 29 1 29 50 0 28 -2 50 -5 50 -3 0 -5 -9 -5 -19z m-2 -49 c3
-16 -2 -22 -17 -22 -24 0 -33 13 -25 35 9 23 38 14 42 -13z"/>
<path d="M3300 1980 c0 -14 -5 -18 -16 -13 -10 4 -22 -1 -30 -12 -18 -24 -1
-55 31 -55 23 0 25 4 25 50 0 28 -2 50 -5 50 -3 0 -5 -9 -5 -20z m-2 -48 c3
-17 -2 -22 -17 -22 -14 0 -21 6 -21 18 0 38 33 41 38 4z"/>
<path d="M5130 1981 c0 -14 -5 -18 -18 -14 -24 6 -45 -21 -37 -47 4 -14 15
-20 36 -20 28 0 29 1 29 50 0 28 -2 50 -5 50 -3 0 -5 -9 -5 -19z m-2 -49 c3
-16 -2 -22 -17 -22 -24 0 -33 13 -25 35 9 23 38 14 42 -13z"/>
<path d="M5390 1981 c0 -14 -5 -18 -18 -14 -24 6 -45 -21 -37 -47 4 -14 15
-20 36 -20 28 0 29 1 29 50 0 28 -2 50 -5 50 -3 0 -5 -9 -5 -19z m-2 -49 c3
-16 -2 -22 -17 -22 -24 0 -33 13 -25 35 9 23 38 14 42 -13z"/>
<path d="M213 1956 c2 -42 23 -64 51 -53 12 5 16 18 15 49 l-2 43 -6 -40 c-7
-46 -37 -62 -45 -23 -13 57 -14 61 -13 24z"/>
<path d="M2500 1971 c0 -35 19 -71 38 -71 27 0 42 20 42 57 0 45 -18 42 -22
-4 -2 -26 -8 -38 -18 -38 -10 0 -16 12 -18 38 -3 38 -22 53 -22 18z"/>
<path d="M3097 1983 c-4 -3 -7 -11 -7 -17 0 -6 5 -5 12 2 6 6 9 14 7 17 -3 3
-9 2 -12 -2z"/>
<path d="M847 1974 c-2 -3 -1 -19 2 -37 5 -21 13 -33 26 -35 18 -3 19 -2 3 8
-22 14 -23 36 -2 48 14 8 14 10 -4 14 -12 3 -23 4 -25 2z"/>
<path d="M1097 1974 c-2 -3 -1 -19 2 -37 5 -21 13 -33 26 -35 18 -3 19 -2 3 8
-22 14 -23 36 -2 48 14 8 14 10 -4 14 -12 3 -23 4 -25 2z"/>
<path d="M3517 1974 c-2 -3 -1 -19 2 -37 5 -21 13 -33 26 -35 18 -3 19 -2 3 8
-22 14 -23 36 -2 48 14 8 14 10 -4 14 -12 3 -23 4 -25 2z"/>
<path d="M6001 1970 c-9 -5 -10 -10 -2 -14 6 -4 11 -18 11 -32 0 -16 5 -24 18
-23 10 0 12 3 5 6 -16 6 -17 50 -1 55 8 3 7 6 -3 10 -9 3 -22 3 -28 -2z"/>
<path d="M312 1933 l1 -38 4 33 c5 42 35 40 44 -3 6 -28 7 -28 8 -4 1 29 -15
49 -41 49 -14 0 -18 -7 -16 -37z"/>
<path d="M429 1963 c-7 -71 -3 -88 20 -91 23 -4 44 15 35 30 -3 4 -15 8 -27 8
-18 0 -19 2 -6 13 8 6 21 20 28 30 12 15 10 17 -18 17 -17 0 -31 -3 -32 -7z
m31 -18 c0 -8 -4 -15 -9 -15 -13 0 -22 16 -14 24 11 11 23 6 23 -9z m10 -55
c0 -5 -9 -10 -20 -10 -11 0 -20 5 -20 10 0 6 9 10 20 10 11 0 20 -4 20 -10z"/>
<path d="M503 1938 c4 -59 58 -47 56 12 -1 23 -2 22 -8 -5 -9 -42 -38 -45 -45
-6 l-6 31 3 -32z"/>
<path d="M583 1935 c0 -22 2 -30 4 -17 2 12 2 30 0 40 -3 9 -5 -1 -4 -23z"/>
<path d="M619 1954 c-17 -21 0 -48 32 -51 24 -2 24 -2 -1 5 -14 5 -25 13 -24
20 3 31 5 34 24 29 11 -3 18 -1 14 4 -8 14 -30 11 -45 -7z"/>
<path d="M781 1956 c-20 -24 -9 -51 22 -54 15 -2 27 1 27 6 0 6 -8 8 -19 5
-10 -3 -22 0 -25 6 -5 7 3 11 19 11 20 0 26 4 23 17 -4 23 -31 28 -47 9z m34
-6 c3 -5 -3 -10 -15 -10 -12 0 -18 5 -15 10 3 6 10 10 15 10 5 0 12 -4 15 -10z"/>
<path d="M941 1931 c1 -36 1 -36 8 -6 3 17 13 30 21 30 8 0 18 -13 22 -30 6
-29 6 -29 5 5 -2 31 -5 35 -29 36 -26 1 -28 -2 -27 -35z"/>
<path d="M1030 1959 c0 -5 5 -7 10 -4 6 3 16 3 22 -1 9 -6 5 -10 -12 -14 -34
-8 -32 -34 3 -38 23 -3 27 0 27 20 0 13 -5 29 -12 36 -15 15 -38 16 -38 1z
m35 -39 c-3 -5 -13 -10 -21 -10 -8 0 -12 5 -9 10 3 6 13 10 21 10 8 0 12 -4 9
-10z"/>
<path d="M1163 1935 c0 -22 2 -30 4 -17 2 12 2 30 0 40 -3 9 -5 -1 -4 -23z"/>
<path d="M1194 1956 c-11 -28 1 -51 25 -51 32 0 49 28 32 49 -17 20 -50 21
-57 2z m50 -12 c7 -19 -1 -34 -19 -34 -18 0 -28 17 -21 35 7 20 32 19 40 -1z"/>
<path d="M1282 1933 l1 -38 4 33 c5 42 35 40 44 -3 6 -28 7 -28 8 -4 1 29 -15
49 -41 49 -14 0 -18 -7 -16 -37z"/>
<path d="M1366 1961 c-3 -5 3 -7 14 -4 11 3 20 1 20 -5 0 -5 -9 -12 -20 -15
-30 -8 -25 -37 6 -37 23 0 25 3 22 32 -3 32 -29 50 -42 29z m29 -41 c-3 -5
-10 -10 -16 -10 -5 0 -9 5 -9 10 0 6 7 10 16 10 8 0 12 -4 9 -10z"/>
<path d="M1513 1964 c-15 -7 -18 -94 -3 -94 6 0 10 6 10 14 0 8 10 16 23 18
17 2 22 10 22 33 0 30 -21 42 -52 29z m42 -29 c0 -11 -8 -21 -17 -23 -14 -3
-18 3 -18 23 0 20 4 26 18 23 9 -2 17 -12 17 -23z"/>
<path d="M1600 1955 c-20 -25 -8 -50 25 -50 21 0 31 5 33 18 4 21 -14 47 -33
47 -7 0 -18 -7 -25 -15z m48 -18 c4 -20 -25 -34 -40 -19 -15 15 -1 44 19 40
10 -2 19 -11 21 -21z"/>
<path d="M1683 1938 c4 -59 58 -47 56 12 -1 23 -2 22 -8 -5 -9 -42 -38 -45
-45 -6 l-6 31 3 -32z"/>
<path d="M1761 1931 c1 -28 3 -30 6 -11 3 14 9 30 14 36 5 7 3 11 -6 11 -11 0
-15 -11 -14 -36z"/>
<path d="M2601 1931 c1 -36 1 -36 8 -6 3 17 13 30 21 30 8 0 18 -13 22 -30 6
-29 6 -29 5 5 -2 31 -5 35 -29 36 -26 1 -28 -2 -27 -35z"/>
<path d="M2803 1940 c2 -30 5 -35 27 -35 21 0 25 5 26 30 1 30 1 30 -3 2 -6
-38 -35 -32 -45 8 -6 29 -6 29 -5 -5z"/>
<path d="M3133 1935 c0 -22 2 -30 4 -17 2 12 2 30 0 40 -3 9 -5 -1 -4 -23z"/>
<path d="M3172 1933 l1 -38 4 33 c5 42 35 40 44 -3 6 -28 7 -28 8 -4 1 29 -15
49 -41 49 -14 0 -18 -7 -16 -37z"/>
<path d="M3343 1935 c0 -22 2 -30 4 -17 2 12 2 30 0 40 -3 9 -5 -1 -4 -23z"/>
<path d="M3374 1956 c-12 -30 1 -51 31 -53 28 -2 28 -1 5 5 -33 10 -35 47 -3
46 12 0 20 3 17 8 -9 13 -44 9 -50 -6z"/>
<path d="M3450 1960 c0 -6 5 -8 10 -5 6 3 15 3 21 -1 7 -4 2 -11 -11 -18 -30
-15 -27 -30 5 -34 24 -3 26 -1 23 30 -2 25 -8 34 -25 36 -13 2 -23 -2 -23 -8z
m35 -40 c-3 -5 -10 -10 -16 -10 -5 0 -9 5 -9 10 0 6 7 10 16 10 8 0 12 -4 9
-10z"/>
<path d="M3581 1956 c-20 -24 -9 -51 22 -54 15 -2 27 1 27 6 0 6 -8 8 -19 5
-10 -3 -22 0 -25 6 -5 7 3 11 19 11 20 0 26 4 23 17 -4 23 -31 28 -47 9z m34
-6 c3 -5 -3 -10 -15 -10 -12 0 -18 5 -15 10 3 6 10 10 15 10 5 0 12 -4 15 -10z"/>
<path d="M3653 1940 c2 -30 5 -35 27 -35 21 0 25 5 26 30 1 30 1 30 -3 2 -6
-38 -35 -32 -45 8 -6 29 -6 29 -5 -5z"/>
<path d="M3731 1930 c1 -27 3 -29 6 -10 2 14 11 30 20 37 13 10 13 12 -6 10
-17 -1 -21 -7 -20 -37z"/>
<path d="M3784 1958 c-4 -6 0 -16 9 -23 22 -16 21 -22 0 -28 -14 -4 -12 -5 5
-6 25 -1 31 26 7 35 -8 4 -15 11 -15 16 0 6 7 8 15 4 8 -3 15 -1 15 4 0 14
-27 12 -36 -2z"/>
<path d="M4623 1938 c4 -59 58 -47 56 12 -1 23 -2 22 -8 -5 -9 -42 -38 -45
-45 -6 l-6 31 3 -32z"/>
<path d="M4700 1951 c0 -10 8 -22 18 -26 16 -7 15 -8 -3 -15 -16 -7 -17 -9 -3
-9 26 -1 33 20 12 36 -16 12 -17 15 -4 23 13 8 12 10 -2 10 -11 0 -18 -8 -18
-19z"/>
<path d="M4766 1961 c-3 -5 3 -7 14 -4 11 3 20 1 20 -5 0 -5 -9 -12 -20 -15
-30 -8 -25 -37 6 -37 23 0 25 3 22 32 -3 32 -29 50 -42 29z m29 -41 c-3 -5
-10 -10 -16 -10 -5 0 -9 5 -9 10 0 6 7 10 16 10 8 0 12 -4 9 -10z"/>
<path d="M4837 1963 c-2 -5 -5 -27 -6 -51 -1 -42 0 -43 26 -40 35 4 46 38 12
38 -20 0 -21 2 -7 13 8 6 18 20 21 30 5 13 1 17 -18 17 -13 0 -26 -3 -28 -7z
m33 -18 c0 -8 -4 -15 -9 -15 -13 0 -22 16 -14 24 11 11 23 6 23 -9z m10 -55
c0 -5 -9 -10 -20 -10 -11 0 -20 5 -20 10 0 6 9 10 20 10 11 0 20 -4 20 -10z"/>
<path d="M4911 1956 c-20 -24 -9 -51 22 -54 15 -2 27 1 27 6 0 6 -8 8 -19 5
-10 -3 -22 0 -25 6 -5 7 3 11 19 11 20 0 26 4 23 17 -4 23 -31 28 -47 9z m34
-6 c3 -5 -3 -10 -15 -10 -12 0 -18 5 -15 10 3 6 10 10 15 10 5 0 12 -4 15 -10z"/>
<path d="M4984 1958 c-4 -6 0 -16 9 -23 22 -16 21 -22 0 -28 -14 -4 -12 -5 5
-6 25 -1 31 26 7 35 -8 4 -15 11 -15 16 0 6 7 8 15 4 8 -3 15 -1 15 4 0 14
-27 12 -36 -2z"/>
<path d="M5171 1956 c-20 -24 -9 -51 22 -54 15 -2 27 1 27 6 0 6 -8 8 -19 5
-10 -3 -22 0 -25 6 -5 7 3 11 19 11 20 0 26 4 23 17 -4 23 -31 28 -47 9z m34
-6 c3 -5 -3 -10 -15 -10 -12 0 -18 5 -15 10 3 6 10 10 15 10 5 0 12 -4 15 -10z"/>
<path d="M5244 1958 c-4 -6 0 -16 9 -23 22 -16 21 -22 0 -28 -14 -4 -12 -5 5
-6 25 -1 31 26 7 35 -8 4 -15 11 -15 16 0 6 7 8 15 4 8 -3 15 -1 15 4 0 14
-27 12 -36 -2z"/>
<path d="M5430 1955 c-20 -25 -8 -50 25 -50 21 0 31 5 33 18 4 21 -14 47 -33
47 -7 0 -18 -7 -25 -15z m48 -18 c4 -20 -25 -34 -40 -19 -15 15 -1 44 19 40
10 -2 19 -11 21 -21z"/>
<path d="M5511 1931 c1 -36 1 -36 8 -6 3 17 13 30 21 30 8 0 18 -13 22 -30 6
-29 6 -29 5 5 -2 31 -5 35 -29 36 -26 1 -28 -2 -27 -35z"/>
<path d="M5591 1931 c1 -36 1 -36 8 -6 3 17 13 30 21 30 8 0 18 -13 22 -30 6
-29 6 -29 5 5 -2 31 -5 35 -29 36 -26 1 -28 -2 -27 -35z"/>
<path d="M5681 1956 c-20 -24 -9 -51 22 -54 15 -2 27 1 27 6 0 6 -8 8 -19 5
-10 -3 -22 0 -25 6 -5 7 3 11 19 11 20 0 26 4 23 17 -4 23 -31 28 -47 9z m34
-6 c3 -5 -3 -10 -15 -10 -12 0 -18 5 -15 10 3 6 10 10 15 10 5 0 12 -4 15 -10z"/>
<path d="M5754 1956 c-11 -29 1 -51 29 -54 15 -2 27 1 27 6 0 5 -11 7 -25 4
-15 -2 -25 0 -25 7 0 6 12 11 26 11 19 0 25 5 22 18 -4 22 -46 29 -54 8z m41
-6 c3 -5 -3 -10 -15 -10 -12 0 -18 5 -15 10 3 6 10 10 15 10 5 0 12 -4 15 -10z"/>
<path d="M5830 1951 c0 -10 8 -22 18 -26 16 -7 15 -8 -3 -15 -16 -7 -17 -9 -3
-9 26 -1 33 20 12 36 -16 12 -17 15 -4 23 13 8 12 10 -2 10 -11 0 -18 -8 -18
-19z"/>
<path d="M5931 1956 c-20 -24 -9 -51 22 -54 15 -2 27 1 27 6 0 6 -8 8 -19 5
-10 -3 -22 0 -25 6 -5 7 3 11 19 11 20 0 26 4 23 17 -4 23 -31 28 -47 9z m34
-6 c3 -5 -3 -10 -15 -10 -12 0 -18 5 -15 10 3 6 10 10 15 10 5 0 12 -4 15 -10z"/>
<path d="M200 1780 c0 -27 5 -50 10 -50 6 0 10 23 10 50 0 28 -4 50 -10 50 -5
0 -10 -22 -10 -50z"/>
<path d="M970 1816 c0 -8 -10 -16 -22 -18 -18 -2 -23 -10 -23 -33 0 -27 4 -30
33 -33 l32 -3 0 50 c0 28 -4 51 -10 51 -5 0 -10 -6 -10 -14z m0 -51 c0 -25
-23 -35 -35 -15 -10 16 2 40 20 40 9 0 15 -9 15 -25z"/>
<path d="M1290 1819 c0 -5 5 -7 10 -4 6 3 10 8 10 11 0 2 -4 4 -10 4 -5 0 -10
-5 -10 -11z"/>
<path d="M1560 1810 c0 -14 -5 -18 -16 -13 -10 4 -22 -1 -30 -12 -18 -24 -1
-55 31 -55 23 0 25 4 25 50 0 28 -2 50 -5 50 -3 0 -5 -9 -5 -20z m-2 -48 c3
-17 -2 -22 -17 -22 -14 0 -21 6 -21 18 0 38 33 41 38 4z"/>
<path d="M1713 1780 c0 -30 2 -43 4 -27 2 15 2 39 0 55 -2 15 -4 2 -4 -28z"/>
<path d="M3200 1811 c0 -14 -5 -18 -18 -14 -24 6 -45 -21 -37 -47 4 -14 15
-20 36 -20 28 0 29 1 29 50 0 28 -2 50 -5 50 -3 0 -5 -9 -5 -19z m-2 -49 c3
-16 -2 -22 -17 -22 -24 0 -33 13 -25 35 9 23 38 14 42 -13z"/>
<path d="M4730 1816 c0 -8 -10 -16 -22 -18 -18 -2 -23 -10 -23 -33 0 -27 4
-30 33 -33 l32 -3 0 50 c0 28 -4 51 -10 51 -5 0 -10 -6 -10 -14z m0 -51 c0
-25 -23 -35 -35 -15 -10 16 2 40 20 40 9 0 15 -9 15 -25z"/>
<path d="M5110 1810 c0 -14 -5 -18 -16 -13 -10 4 -22 -1 -30 -12 -18 -24 -1
-55 31 -55 23 0 25 4 25 50 0 28 -2 50 -5 50 -3 0 -5 -9 -5 -20z m-2 -48 c3
-17 -2 -22 -17 -22 -14 0 -21 6 -21 18 0 38 33 41 38 4z"/>
<path d="M240 1805 c0 -8 2 -15 4 -15 2 0 6 7 10 15 3 8 1 15 -4 15 -6 0 -10
-7 -10 -15z"/>
<path d="M2387 1804 c-9 -9 9 -68 21 -70 7 -1 8 0 2 3 -14 7 -13 50 2 55 8 3
6 6 -4 10 -9 4 -18 5 -21 2z"/>
<path d="M2657 1804 c-11 -11 10 -69 26 -70 13 -2 13 -1 2 3 -18 5 -20 50 -3
55 8 3 6 6 -4 10 -9 4 -18 5 -21 2z"/>
<path d="M3347 1804 c-11 -11 10 -69 26 -70 13 -2 13 -1 2 3 -18 5 -20 50 -3
55 8 3 6 6 -4 10 -9 4 -18 5 -21 2z"/>
<path d="M3707 1804 c-9 -9 9 -68 21 -70 7 -1 8 0 2 3 -14 7 -13 50 2 55 8 3
6 6 -4 10 -9 4 -18 5 -21 2z"/>
<path d="M5327 1804 c-2 -3 -1 -19 2 -37 5 -21 13 -33 26 -35 18 -3 19 -2 3 8
-22 14 -23 36 -2 48 14 8 14 10 -4 14 -12 3 -23 4 -25 2z"/>
<path d="M276 1791 c-3 -5 3 -7 14 -4 11 3 20 1 20 -5 0 -5 -9 -12 -20 -15
-30 -8 -25 -37 6 -37 23 0 25 3 22 32 -3 32 -29 50 -42 29z m29 -41 c-3 -5
-10 -10 -16 -10 -5 0 -9 5 -9 10 0 6 7 10 16 10 8 0 12 -4 9 -10z"/>
<path d="M350 1785 c-19 -23 -8 -50 23 -53 15 -2 27 1 27 6 0 5 -10 8 -22 8
-17 -1 -23 5 -23 19 0 14 6 20 22 19 12 0 20 3 17 8 -8 13 -30 9 -44 -7z"/>
<path d="M419 1784 c-17 -21 0 -48 32 -51 24 -2 24 -2 -1 5 -14 5 -25 13 -24
20 3 31 5 34 24 29 11 -3 18 -1 14 4 -8 14 -30 11 -45 -7z"/>
<path d="M491 1781 c-14 -25 8 -55 35 -48 17 4 16 5 -3 6 -31 1 -29 21 2 21
27 0 32 9 13 28 -17 17 -36 15 -47 -7z m39 -1 c0 -5 -7 -10 -15 -10 -8 0 -15
5 -15 10 0 6 7 10 15 10 8 0 15 -4 15 -10z"/>
<path d="M564 1789 c-4 -7 4 -20 17 -30 22 -17 22 -19 5 -19 -11 0 -17 -3 -13
-6 3 -4 14 -4 23 0 15 6 15 8 -2 27 -16 17 -16 22 -4 29 13 8 12 10 -2 10 -9
0 -20 -5 -24 -11z"/>
<path d="M666 1791 c-3 -5 3 -7 14 -4 11 3 20 1 20 -5 0 -5 -9 -12 -20 -15
-30 -8 -25 -37 6 -37 23 0 25 3 22 32 -3 32 -29 50 -42 29z m34 -41 c0 -5 -7
-10 -16 -10 -8 0 -12 5 -9 10 3 6 10 10 16 10 5 0 9 -4 9 -10z"/>
<path d="M731 1780 c-1 -34 13 -53 35 -48 13 2 19 12 20 33 1 30 1 30 -3 2 -6
-38 -36 -32 -44 8 -6 27 -7 28 -8 5z"/>
<path d="M818 1785 c7 -15 7 -26 -1 -40 -10 -19 -9 -19 8 -5 14 11 19 12 22 3
3 -7 9 -13 15 -13 6 0 6 6 -2 15 -6 8 -9 24 -5 37 5 17 4 19 -4 9 -8 -13 -12
-13 -27 0 -16 13 -16 12 -6 -6z"/>
<path d="M1011 1782 c-20 -38 31 -71 58 -38 9 11 10 20 1 35 -13 26 -46 27
-59 3z m47 -20 c3 -17 -2 -22 -17 -22 -14 0 -21 6 -21 18 0 38 33 41 38 4z"/>
<path d="M1103 1793 c-15 -6 -18 -63 -3 -63 6 0 10 14 10 30 0 42 27 40 33 -2
l5 -33 -2 35 c-1 34 -15 45 -43 33z"/>
<path d="M1182 1763 l1 -38 4 33 c5 42 35 40 44 -3 6 -28 7 -28 8 -4 1 29 -15
49 -41 49 -14 0 -18 -7 -16 -37z"/>
<path d="M1261 1781 c-14 -25 8 -55 35 -48 17 4 16 5 -3 6 -31 1 -29 21 2 21
27 0 32 9 13 28 -17 17 -36 15 -47 -7z m39 -1 c0 -5 -7 -10 -15 -10 -8 0 -15
5 -15 10 0 6 7 10 15 10 8 0 15 -4 15 -10z"/>
<path d="M1340 1785 c-18 -22 -1 -49 31 -52 19 -1 20 -1 4 4 -34 9 -41 23 -11
23 21 0 27 4 24 17 -4 24 -32 28 -48 8z m40 -5 c0 -5 -7 -10 -15 -10 -8 0 -15
5 -15 10 0 6 7 10 15 10 8 0 15 -4 15 -10z"/>
<path d="M1414 1788 c-4 -6 0 -16 9 -23 22 -16 21 -22 0 -28 -14 -4 -12 -5 5
-6 25 -1 31 26 7 35 -8 4 -15 11 -15 16 0 6 7 8 15 4 8 -3 15 -1 15 4 0 14
-27 12 -36 -2z"/>
<path d="M1600 1785 c-18 -22 -1 -49 31 -52 19 -1 20 -1 4 4 -34 9 -41 23 -11
23 21 0 27 4 24 17 -4 24 -32 28 -48 8z m40 -5 c0 -5 -7 -10 -15 -10 -8 0 -15
5 -15 10 0 6 7 10 15 10 8 0 15 -4 15 -10z"/>
<path d="M1750 1790 c0 -6 5 -8 10 -5 6 3 15 3 21 -1 7 -4 2 -11 -11 -18 -30
-15 -27 -30 5 -34 24 -3 26 -1 23 30 -2 25 -8 34 -25 36 -13 2 -23 -2 -23 -8z
m35 -40 c-3 -5 -10 -10 -16 -10 -5 0 -9 5 -9 10 0 6 7 10 16 10 8 0 12 -4 9
-10z"/>
<path d="M2440 1785 c-18 -22 -1 -49 31 -52 19 -1 20 -1 4 4 -34 9 -41 23 -11
23 21 0 27 4 24 17 -4 24 -32 28 -48 8z m40 -5 c0 -5 -7 -10 -15 -10 -8 0 -15
5 -15 10 0 6 7 10 15 10 8 0 15 -4 15 -10z"/>
<path d="M2571 1761 c1 -28 3 -30 6 -11 3 14 9 30 14 36 5 7 3 11 -6 11 -11 0
-15 -11 -14 -36z"/>
<path d="M2623 1765 c0 -22 2 -30 4 -17 2 12 2 30 0 40 -3 9 -5 -1 -4 -23z"/>
<path d="M2714 1786 c-11 -28 1 -51 25 -51 32 0 49 28 32 49 -17 20 -50 21
-57 2z m50 -12 c7 -19 -1 -34 -19 -34 -18 0 -28 17 -21 35 7 20 32 19 40 -1z"/>
<path d="M2801 1761 c1 -28 3 -30 6 -11 3 14 9 30 14 36 5 7 3 11 -6 11 -11 0
-15 -11 -14 -36z"/>
<path d="M2853 1765 c0 -22 2 -30 4 -17 2 12 2 30 0 40 -3 9 -5 -1 -4 -23z"/>
<path d="M2890 1789 c0 -5 5 -7 10 -4 6 3 16 3 22 -1 9 -6 5 -10 -12 -14 -34
-8 -32 -34 3 -38 23 -3 27 0 27 20 0 13 -5 29 -12 36 -15 15 -38 16 -38 1z
m35 -39 c-3 -5 -13 -10 -21 -10 -8 0 -12 5 -9 10 3 6 13 10 21 10 8 0 12 -4 9
-10z"/>
<path d="M2963 1768 c4 -59 58 -47 56 12 -1 23 -2 22 -8 -5 -9 -42 -38 -45
-45 -6 l-6 31 3 -32z"/>
<path d="M3045 1782 c4 -13 1 -29 -5 -37 -8 -9 -8 -15 -2 -15 6 0 12 6 15 13
3 9 8 8 22 -3 17 -14 17 -13 7 5 -7 15 -7 26 1 40 10 18 9 19 -7 6 -15 -13
-19 -13 -27 0 -8 10 -9 8 -4 -9z"/>
<path d="M3241 1786 c-20 -24 -9 -51 22 -54 15 -2 27 1 27 6 0 6 -8 8 -19 5
-10 -3 -22 0 -25 6 -5 7 3 11 19 11 20 0 26 4 23 17 -4 23 -31 28 -47 9z m34
-6 c3 -5 -3 -10 -15 -10 -12 0 -18 5 -15 10 3 6 10 10 15 10 5 0 12 -4 15 -10z"/>
<path d="M3401 1760 c1 -27 3 -29 6 -10 2 14 11 30 20 37 13 10 13 12 -6 10
-17 -1 -21 -7 -20 -37z"/>
<path d="M3456 1791 c-3 -5 3 -7 14 -4 11 3 20 1 20 -5 0 -5 -9 -12 -20 -15
-30 -8 -25 -37 6 -37 23 0 25 3 22 32 -3 32 -29 50 -42 29z m34 -41 c0 -5 -7
-10 -16 -10 -8 0 -12 5 -9 10 3 6 10 10 16 10 5 0 9 -4 9 -10z"/>
<path d="M3532 1763 l1 -38 4 33 c5 42 35 40 44 -3 6 -28 7 -28 8 -4 1 29 -15
49 -41 49 -14 0 -18 -7 -16 -37z"/>
<path d="M3610 1781 c0 -10 8 -22 18 -26 16 -7 15 -8 -3 -15 -16 -7 -17 -9 -3
-9 26 -1 33 20 12 36 -16 12 -17 15 -4 23 13 8 12 10 -2 10 -11 0 -18 -8 -18
-19z"/>
<path d="M3673 1765 c0 -22 2 -30 4 -17 2 12 2 30 0 40 -3 9 -5 -1 -4 -23z"/>
<path d="M3763 1765 c0 -22 2 -30 4 -17 2 12 2 30 0 40 -3 9 -5 -1 -4 -23z"/>
<path d="M3800 1785 c-18 -22 -1 -50 31 -50 20 0 24 5 24 30 0 23 -5 31 -21
33 -11 2 -27 -4 -34 -13z m48 -18 c4 -20 -25 -34 -39 -20 -14 14 1 45 20 41 9
-2 17 -11 19 -21z"/>
<path d="M3881 1761 c1 -36 1 -36 8 -6 3 17 13 30 21 30 8 0 18 -13 22 -30 6
-29 6 -29 5 5 -2 31 -5 35 -29 36 -26 1 -28 -2 -27 -35z"/>
<path d="M4771 1781 c-14 -25 8 -55 35 -48 17 4 16 5 -3 6 -31 1 -29 21 2 21
27 0 32 9 13 28 -17 17 -36 15 -47 -7z m39 -1 c0 -5 -7 -10 -15 -10 -8 0 -15
5 -15 10 0 6 7 10 15 10 8 0 15 -4 15 -10z"/>
<path d="M4844 1788 c-4 -6 0 -16 9 -23 22 -16 21 -22 0 -28 -14 -4 -12 -5 5
-6 25 -1 31 26 7 35 -8 4 -15 11 -15 16 0 6 7 8 15 4 8 -3 15 -1 15 4 0 14
-27 12 -36 -2z"/>
<path d="M4943 1765 c0 -22 2 -30 4 -17 2 12 2 30 0 40 -3 9 -5 -1 -4 -23z"/>
<path d="M4982 1763 l1 -38 4 33 c5 42 35 40 44 -3 6 -28 7 -28 8 -4 1 29 -15
49 -41 49 -14 0 -18 -7 -16 -37z"/>
<path d="M5153 1765 c0 -22 2 -30 4 -17 2 12 2 30 0 40 -3 9 -5 -1 -4 -23z"/>
<path d="M5184 1786 c-12 -30 1 -51 31 -53 28 -2 28 -1 5 5 -33 10 -35 47 -3
46 12 0 20 3 17 8 -9 13 -44 9 -50 -6z"/>
<path d="M5260 1789 c0 -5 5 -7 10 -4 6 3 16 3 22 -1 9 -6 5 -10 -12 -14 -34
-8 -32 -34 3 -38 23 -3 27 0 27 20 0 13 -5 29 -12 36 -15 15 -38 16 -38 1z
m35 -39 c-3 -5 -13 -10 -21 -10 -8 0 -12 5 -9 10 3 6 13 10 21 10 8 0 12 -4 9
-10z"/>
<path d="M5391 1786 c-20 -24 -9 -51 22 -54 15 -2 27 1 27 6 0 6 -8 8 -19 5
-10 -3 -22 0 -25 6 -5 7 3 11 19 11 20 0 26 4 23 17 -4 23 -31 28 -47 9z m34
-6 c3 -5 -3 -10 -15 -10 -12 0 -18 5 -15 10 3 6 10 10 15 10 5 0 12 -4 15 -10z"/>
<path d="M5463 1770 c2 -30 5 -35 27 -35 21 0 25 5 26 30 1 30 1 30 -3 2 -6
-38 -35 -32 -45 8 -6 29 -6 29 -5 -5z"/>
<path d="M5541 1760 c1 -27 3 -29 6 -10 2 14 11 30 20 37 13 10 13 12 -6 10
-17 -1 -21 -7 -20 -37z"/>
<path d="M5594 1788 c-4 -6 0 -16 9 -23 22 -16 21 -22 0 -28 -14 -4 -12 -5 5
-6 25 -1 31 26 7 35 -8 4 -15 11 -15 16 0 6 7 8 15 4 8 -3 15 -1 15 4 0 14
-27 12 -36 -2z"/>
<path d="M5691 1745 c1 -27 3 -42 6 -32 3 10 14 17 28 17 15 0 26 7 30 20 9
27 -11 50 -41 48 -22 -2 -24 -6 -23 -53z m53 29 c7 -19 -1 -34 -19 -34 -18 0
-28 17 -21 35 7 20 32 19 40 -1z"/>
<path d="M5781 1782 c-20 -38 31 -71 58 -38 9 11 10 20 1 35 -13 26 -46 27
-59 3z m47 -20 c3 -17 -2 -22 -17 -22 -14 0 -21 6 -21 18 0 38 33 41 38 4z"/>
<path d="M5861 1780 c-1 -34 13 -53 35 -48 13 2 19 12 20 33 1 30 1 30 -3 2
-6 -38 -36 -32 -44 8 -6 27 -7 28 -8 5z"/>
<path d="M2510 1760 c0 -16 5 -30 10 -30 6 0 10 14 10 30 0 17 -4 30 -10 30
-5 0 -10 -13 -10 -30z"/>
<path d="M5940 1760 c0 -16 5 -30 10 -30 6 0 10 14 10 30 0 17 -4 30 -10 30
-5 0 -10 -13 -10 -30z"/>
<path d="M1223 1610 c0 -30 2 -43 4 -27 2 15 2 39 0 55 -2 15 -4 2 -4 -28z"/>
<path d="M2850 1649 c0 -5 5 -7 10 -4 6 3 10 8 10 11 0 2 -4 4 -10 4 -5 0 -10
-5 -10 -11z"/>
<path d="M3050 1610 c0 -27 5 -50 10 -50 6 0 10 23 10 50 0 28 -4 50 -10 50
-5 0 -10 -22 -10 -50z"/>
<path d="M4710 1640 c0 -14 -5 -18 -16 -13 -10 4 -22 -1 -30 -12 -18 -24 -1
-55 31 -55 23 0 25 4 25 50 0 28 -2 50 -5 50 -3 0 -5 -9 -5 -20z m-2 -48 c3
-17 -2 -22 -17 -22 -14 0 -21 6 -21 18 0 38 33 41 38 4z"/>
<path d="M4788 1641 c-9 -10 -12 -23 -8 -27 5 -5 10 -20 13 -34 4 -21 4 -20 6
8 0 18 6 32 14 32 8 0 7 4 -3 10 -13 9 -13 11 0 20 8 5 10 10 5 10 -6 0 -18
-9 -27 -19z"/>
<path d="M4842 1643 c-4 -10 -5 -34 -1 -53 l6 -35 2 32 c0 17 7 34 14 36 10 4
10 6 0 6 -19 1 -16 19 5 24 16 4 16 5 0 6 -10 0 -21 -7 -26 -16z"/>
<path d="M5190 1610 c0 -27 5 -50 10 -50 6 0 10 23 10 50 0 28 -4 50 -10 50
-5 0 -10 -22 -10 -50z"/>
<path d="M331 1630 c-9 -5 -10 -10 -2 -14 6 -4 11 -18 11 -32 0 -16 5 -24 18
-23 10 0 12 3 5 6 -16 6 -17 50 -1 55 8 3 7 6 -3 10 -9 3 -22 3 -28 -2z"/>
<path d="M687 1634 c-2 -3 -1 -19 2 -37 5 -21 13 -33 26 -35 18 -3 19 -2 3 8
-22 14 -23 36 -2 48 14 8 14 10 -4 14 -12 3 -23 4 -25 2z"/>
<path d="M5557 1634 c-9 -9 9 -68 21 -70 7 -1 8 0 2 3 -14 7 -13 50 2 55 8 3
6 6 -4 10 -9 4 -18 5 -21 2z"/>
<path d="M5721 1630 c-9 -5 -10 -10 -2 -14 6 -4 11 -18 11 -32 0 -16 5 -24 18
-23 10 0 12 3 5 6 -16 6 -17 50 -1 55 8 3 7 6 -3 10 -9 3 -22 3 -28 -2z"/>
<path d="M391 1591 c1 -28 3 -30 6 -11 3 14 9 30 14 36 5 7 3 11 -6 11 -11 0
-15 -11 -14 -36z"/>
<path d="M440 1620 c0 -6 5 -8 10 -5 6 3 15 3 21 -1 7 -4 2 -11 -11 -18 -30
-15 -27 -30 5 -34 24 -3 26 -1 23 30 -2 25 -8 34 -25 36 -13 2 -23 -2 -23 -8z
m35 -40 c-3 -5 -10 -10 -16 -10 -5 0 -9 5 -9 10 0 6 7 10 16 10 8 0 12 -4 9
-10z"/>
<path d="M511 1591 c1 -36 1 -36 8 -6 3 17 13 30 21 30 8 0 18 -13 22 -30 6
-29 6 -29 5 5 -2 31 -5 35 -29 36 -26 1 -28 -2 -27 -35z"/>
<path d="M594 1618 c-4 -6 0 -16 9 -23 22 -16 21 -22 0 -28 -14 -4 -12 -5 5
-6 25 -1 31 26 7 35 -8 4 -15 11 -15 16 0 6 7 8 15 4 8 -3 15 -1 15 4 0 14
-27 12 -36 -2z"/>
<path d="M781 1612 c-20 -38 31 -71 58 -38 9 11 10 20 1 35 -13 26 -46 27 -59
3z m47 -20 c3 -17 -2 -22 -17 -22 -14 0 -21 6 -21 18 0 38 33 41 38 4z"/>
<path d="M873 1623 c-15 -6 -18 -63 -3 -63 6 0 10 14 10 30 0 42 27 40 33 -2
l5 -33 -2 35 c-1 34 -15 45 -43 33z"/>
<path d="M991 1616 c-20 -24 -9 -51 22 -54 15 -2 27 1 27 6 0 6 -8 8 -19 5
-10 -3 -22 0 -25 6 -5 7 3 11 19 11 20 0 26 4 23 17 -4 23 -31 28 -47 9z m34
-6 c3 -5 -3 -10 -15 -10 -12 0 -18 5 -15 10 3 6 10 10 15 10 5 0 12 -4 15 -10z"/>
<path d="M1064 1616 c-12 -30 1 -51 31 -53 28 -2 28 -1 5 5 -33 10 -35 47 -3
46 12 0 20 3 17 8 -9 13 -44 9 -50 -6z"/>
<path d="M1140 1615 c-20 -25 -8 -50 25 -50 21 0 31 5 33 18 4 21 -14 47 -33
47 -7 0 -18 -7 -25 -15z m48 -18 c4 -20 -25 -34 -40 -19 -15 15 -1 44 19 40
10 -2 19 -11 21 -21z"/>
<path d="M1260 1615 c-20 -25 -8 -50 25 -50 21 0 31 5 33 18 4 21 -14 47 -33
47 -7 0 -18 -7 -25 -15z m48 -18 c4 -20 -25 -34 -40 -19 -15 15 -1 44 19 40
10 -2 19 -11 21 -21z"/>
<path d="M1347 1623 c-3 -5 -7 -26 -8 -48 -4 -39 -3 -40 26 -40 37 0 41 26 5
35 -24 6 -24 6 -4 12 12 3 23 15 27 27 4 17 1 21 -18 21 -13 0 -26 -3 -28 -7z
m25 -18 c0 -5 -5 -11 -11 -13 -6 -2 -11 4 -11 13 0 9 5 15 11 13 6 -2 11 -8
11 -13z m18 -55 c0 -5 -11 -10 -25 -10 -14 0 -25 5 -25 10 0 6 11 10 25 10 14
0 25 -4 25 -10z"/>
<path d="M1413 1595 c0 -22 2 -30 4 -17 2 12 2 30 0 40 -3 9 -5 -1 -4 -23z"/>
<path d="M1450 1615 c-18 -21 -3 -55 25 -55 14 0 25 -7 28 -17 3 -10 5 5 6 32
1 47 -1 51 -23 53 -13 1 -29 -5 -36 -13z m48 -18 c4 -20 -25 -34 -39 -20 -14
14 1 45 20 41 9 -2 17 -11 19 -21z"/>
<path d="M1531 1610 c-1 -34 13 -53 35 -48 13 2 19 12 20 33 1 30 1 30 -3 2
-6 -38 -36 -32 -44 8 -6 27 -7 28 -8 5z"/>
<path d="M1620 1615 c-18 -22 -1 -49 31 -52 19 -1 20 -1 4 4 -34 9 -41 23 -11
23 21 0 27 4 24 17 -4 24 -32 28 -48 8z m40 -5 c0 -5 -7 -10 -15 -10 -8 0 -15
5 -15 10 0 6 7 10 15 10 8 0 15 -4 15 -10z"/>
<path d="M2821 1611 c-14 -25 8 -55 35 -48 17 4 16 5 -3 6 -31 1 -29 21 2 21
27 0 32 9 13 28 -17 17 -36 15 -47 -7z m39 -1 c0 -5 -7 -10 -15 -10 -8 0 -15
5 -15 10 0 6 7 10 15 10 8 0 15 -4 15 -10z"/>
<path d="M2899 1614 c-17 -21 0 -48 32 -51 24 -2 24 -2 -1 5 -14 5 -25 13 -24
20 3 31 5 34 24 29 11 -3 18 -1 14 4 -8 14 -30 11 -45 -7z"/>
<path d="M2971 1612 c-20 -38 31 -71 58 -38 9 11 10 20 1 35 -13 26 -46 27
-59 3z m47 -20 c3 -17 -2 -22 -17 -22 -14 0 -21 6 -21 18 0 38 33 41 38 4z"/>
<path d="M3091 1612 c-20 -38 31 -71 58 -38 9 11 10 20 1 35 -13 26 -46 27
-59 3z m47 -20 c3 -17 -2 -22 -17 -22 -14 0 -21 6 -21 18 0 38 33 41 38 4z"/>
<path d="M3177 1623 c-2 -5 -5 -27 -6 -51 -1 -42 0 -43 26 -40 35 4 46 38 12
38 -20 0 -21 2 -7 13 8 6 18 20 21 30 5 13 1 17 -18 17 -13 0 -26 -3 -28 -7z
m33 -18 c0 -8 -4 -15 -9 -15 -13 0 -22 16 -14 24 11 11 23 6 23 -9z m10 -55
c0 -5 -9 -10 -20 -10 -11 0 -20 5 -20 10 0 6 9 10 20 10 11 0 20 -4 20 -10z"/>
<path d="M3253 1595 c0 -22 2 -30 4 -17 2 12 2 30 0 40 -3 9 -5 -1 -4 -23z"/>
<path d="M3284 1616 c-10 -26 1 -51 24 -54 12 -2 22 -10 22 -18 0 -8 5 -14 10
-14 17 0 12 87 -6 94 -26 10 -44 7 -50 -8z m46 -21 c0 -25 -23 -35 -35 -15
-10 16 2 40 20 40 9 0 15 -9 15 -25z"/>
<path d="M3373 1598 c4 -59 58 -47 56 12 -1 23 -2 22 -8 -5 -9 -42 -38 -45
-45 -6 l-6 31 3 -32z"/>
<path d="M3454 1616 c-11 -29 1 -51 29 -54 15 -2 27 1 27 6 0 5 -11 7 -25 4
-15 -2 -25 0 -25 7 0 6 12 11 26 11 19 0 25 5 22 18 -4 22 -46 29 -54 8z m41
-6 c3 -5 -3 -10 -15 -10 -12 0 -18 5 -15 10 3 6 10 10 15 10 5 0 12 -4 15 -10z"/>
<path d="M4753 1595 c0 -22 2 -30 4 -17 2 12 2 30 0 40 -3 9 -5 -1 -4 -23z"/>
<path d="M4893 1598 c4 -59 58 -47 56 12 -1 23 -2 22 -8 -5 -9 -42 -38 -45
-45 -6 l-6 31 3 -32z"/>
<path d="M4970 1611 c0 -10 8 -22 18 -26 16 -7 15 -8 -3 -15 -16 -7 -17 -9 -3
-9 26 -1 33 20 12 36 -16 12 -17 15 -4 23 13 8 12 10 -2 10 -11 0 -18 -8 -18
-19z"/>
<path d="M5030 1615 c-18 -22 -1 -49 31 -52 19 -1 20 -1 4 4 -34 9 -41 23 -11
23 21 0 27 4 24 17 -4 24 -32 28 -48 8z m40 -5 c0 -5 -7 -10 -15 -10 -8 0 -15
5 -15 10 0 6 7 10 15 10 8 0 15 -4 15 -10z"/>
<path d="M5231 1611 c-14 -25 8 -55 35 -48 17 4 16 5 -3 6 -31 1 -29 21 2 21
27 0 32 9 13 28 -17 17 -36 15 -47 -7z m39 -1 c0 -5 -7 -10 -15 -10 -8 0 -15
5 -15 10 0 6 7 10 15 10 8 0 15 -4 15 -10z"/>
<path d="M5304 1619 c-4 -7 4 -20 17 -30 22 -17 22 -19 5 -19 -11 0 -17 -3
-13 -6 3 -4 14 -4 23 0 15 6 15 8 -2 27 -16 17 -16 22 -4 29 13 8 12 10 -2 10
-9 0 -20 -5 -24 -11z"/>
<path d="M5403 1595 c0 -22 2 -30 4 -17 2 12 2 30 0 40 -3 9 -5 -1 -4 -23z"/>
<path d="M5442 1593 l1 -38 4 33 c5 42 35 40 44 -3 6 -28 7 -28 8 -4 1 29 -15
49 -41 49 -14 0 -18 -7 -16 -37z"/>
<path d="M5523 1595 c0 -22 2 -30 4 -17 2 12 2 30 0 40 -3 9 -5 -1 -4 -23z"/>
<path d="M5613 1595 c0 -22 2 -30 4 -17 2 12 2 30 0 40 -3 9 -5 -1 -4 -23z"/>
<path d="M5650 1620 c0 -6 5 -8 10 -5 6 3 15 3 21 -1 7 -4 2 -11 -11 -18 -30
-15 -27 -30 5 -34 24 -3 26 -1 23 30 -2 25 -8 34 -25 36 -13 2 -23 -2 -23 -8z
m35 -40 c-3 -5 -10 -10 -16 -10 -5 0 -9 5 -9 10 0 6 7 10 16 10 8 0 12 -4 9
-10z"/>
<path d="M5783 1595 c0 -22 2 -30 4 -17 2 12 2 30 0 40 -3 9 -5 -1 -4 -23z"/>
<path d="M5848 1604 l-12 -25 -13 23 c-7 13 -12 17 -13 10 0 -21 20 -53 30
-47 9 6 32 65 24 65 -2 0 -10 -11 -16 -26z"/>
<path d="M5884 1616 c-11 -29 1 -51 29 -54 15 -2 27 1 27 6 0 5 -11 7 -25 4
-15 -2 -25 0 -25 7 0 6 12 11 26 11 19 0 25 5 22 18 -4 22 -46 29 -54 8z m41
-6 c3 -5 -3 -10 -15 -10 -12 0 -18 5 -15 10 3 6 10 10 15 10 5 0 12 -4 15 -10z"/>
<path d="M5960 1611 c0 -10 8 -22 18 -26 16 -7 15 -8 -3 -15 -16 -7 -17 -9 -3
-9 26 -1 33 20 12 36 -16 12 -17 15 -4 23 13 8 12 10 -2 10 -11 0 -18 -8 -18
-19z"/>
<path d="M650 1590 c0 -16 5 -30 10 -30 6 0 10 14 10 30 0 17 -4 30 -10 30 -5
0 -10 -13 -10 -30z"/>
<path d="M740 1590 c0 -16 5 -30 10 -30 6 0 10 14 10 30 0 17 -4 30 -10 30 -5
0 -10 -13 -10 -30z"/>
<path d="M5100 1590 c0 -16 5 -30 10 -30 6 0 10 14 10 30 0 17 -4 30 -10 30
-5 0 -10 -13 -10 -30z"/>
<path d="M5203 1440 c0 -30 2 -43 4 -27 2 15 2 39 0 55 -2 15 -4 2 -4 -28z"/>
<path d="M4621 1460 c-9 -5 -10 -10 -2 -14 6 -4 11 -18 11 -32 0 -16 5 -24 18
-23 10 0 12 3 5 6 -16 6 -17 50 -1 55 8 3 7 6 -3 10 -9 3 -22 3 -28 -2z"/>
<path d="M4897 1464 c-11 -11 10 -69 26 -70 13 -2 13 -1 2 3 -18 5 -20 50 -3
55 8 3 6 6 -4 10 -9 4 -18 5 -21 2z"/>
<path d="M5487 1464 c-9 -9 9 -68 21 -70 7 -1 8 0 2 3 -14 7 -13 50 2 55 8 3
6 6 -4 10 -9 4 -18 5 -21 2z"/>
<path d="M4680 1445 c-18 -22 -1 -49 31 -52 19 -1 20 -1 4 4 -34 9 -41 23 -11
23 21 0 27 4 24 17 -4 24 -32 28 -48 8z m40 -5 c0 -5 -7 -10 -15 -10 -8 0 -15
5 -15 10 0 6 7 10 15 10 8 0 15 -4 15 -10z"/>
<path d="M4811 1421 c1 -28 3 -30 6 -11 3 14 9 30 14 36 5 7 3 11 -6 11 -11 0
-15 -11 -14 -36z"/>
<path d="M4863 1425 c0 -22 2 -30 4 -17 2 12 2 30 0 40 -3 9 -5 -1 -4 -23z"/>
<path d="M4954 1446 c-11 -28 1 -51 25 -51 32 0 49 28 32 49 -17 20 -50 21
-57 2z m50 -12 c7 -19 -1 -34 -19 -34 -18 0 -28 17 -21 35 7 20 32 19 40 -1z"/>
<path d="M5041 1421 c1 -28 3 -30 6 -11 3 14 9 30 14 36 5 7 3 11 -6 11 -11 0
-15 -11 -14 -36z"/>
<path d="M5093 1425 c0 -22 2 -30 4 -17 2 12 2 30 0 40 -3 9 -5 -1 -4 -23z"/>
<path d="M5130 1449 c0 -5 5 -7 10 -4 6 3 16 3 22 -1 9 -6 5 -10 -12 -14 -34
-8 -32 -34 3 -38 23 -3 27 0 27 20 0 13 -5 29 -12 36 -15 15 -38 16 -38 1z
m35 -39 c-3 -5 -13 -10 -21 -10 -8 0 -12 5 -9 10 3 6 13 10 21 10 8 0 12 -4 9
-10z"/>
<path d="M5241 1446 c-20 -24 -9 -51 22 -54 15 -2 27 1 27 6 0 6 -8 8 -19 5
-10 -3 -22 0 -25 6 -5 7 3 11 19 11 20 0 26 4 23 17 -4 23 -31 28 -47 9z m34
-6 c3 -5 -3 -10 -15 -10 -12 0 -18 5 -15 10 3 6 10 10 15 10 5 0 12 -4 15 -10z"/>
<path d="M5314 1448 c-4 -6 0 -16 9 -23 22 -16 21 -22 0 -28 -14 -4 -12 -5 5
-6 25 -1 31 26 7 35 -8 4 -15 11 -15 16 0 6 7 8 15 4 8 -3 15 -1 15 4 0 14
-27 12 -36 -2z"/>
<path d="M5410 1445 c-18 -22 -1 -49 31 -52 19 -1 20 -1 4 4 -34 9 -41 23 -11
23 21 0 27 4 24 17 -4 24 -32 28 -48 8z m40 -5 c0 -5 -7 -10 -15 -10 -8 0 -15
5 -15 10 0 6 7 10 15 10 8 0 15 -4 15 -10z"/>
<path d="M5611 1421 c1 -36 1 -36 8 -6 3 17 13 30 21 30 8 0 18 -13 22 -30 6
-29 6 -29 5 5 -2 31 -5 35 -29 36 -26 1 -28 -2 -27 -35z"/>
<path d="M5694 1448 c-4 -6 0 -16 9 -23 22 -16 21 -22 0 -28 -14 -4 -12 -5 5
-6 25 -1 31 26 7 35 -8 4 -15 11 -15 16 0 6 7 8 15 4 8 -3 15 -1 15 4 0 14
-27 12 -36 -2z"/>
<path d="M5751 1406 c1 -28 3 -43 6 -33 3 10 14 17 29 17 50 0 41 64 -10 66
-25 1 -26 -1 -25 -50z m57 21 c4 -20 -25 -34 -40 -19 -15 15 -1 44 19 40 10
-2 19 -11 21 -21z"/>
<path d="M5843 1425 c0 -22 2 -30 4 -17 2 12 2 30 0 40 -3 9 -5 -1 -4 -23z"/>
<path d="M5881 1421 c1 -28 3 -30 6 -11 3 14 9 30 14 36 5 7 3 11 -6 11 -11 0
-15 -11 -14 -36z"/>
<path d="M5931 1446 c-20 -24 -9 -51 22 -54 15 -2 27 1 27 6 0 6 -8 8 -19 5
-10 -3 -22 0 -25 6 -5 7 3 11 19 11 20 0 26 4 23 17 -4 23 -31 28 -47 9z m34
-6 c3 -5 -3 -10 -15 -10 -12 0 -18 5 -15 10 3 6 10 10 15 10 5 0 12 -4 15 -10z"/>
<path d="M6001 1420 c1 -27 3 -29 6 -10 2 14 11 30 20 37 13 10 13 12 -6 10
-17 -1 -21 -7 -20 -37z"/>
<path d="M4750 1420 c0 -16 5 -30 10 -30 6 0 10 14 10 30 0 17 -4 30 -10 30
-5 0 -10 -13 -10 -30z"/>
<path d="M5570 1420 c0 -16 5 -30 10 -30 6 0 10 14 10 30 0 17 -4 30 -10 30
-5 0 -10 -13 -10 -30z"/>
<path d="M2263 1213 c53 -2 141 -2 195 0 53 1 9 3 -98 3 -107 0 -151 -2 -97
-3z"/>
<path d="M4433 1213 c54 -2 139 -2 190 0 51 1 7 3 -98 3 -104 0 -146 -2 -92
-3z"/>
<path d="M463 1165 c-31 -31 -35 -40 -31 -80 l3 -45 -217 0 -218 0 2 -512 3
-513 2 508 3 507 220 0 c131 0 220 -4 220 -9 0 -6 13 -18 30 -28 17 -9 35 -32
41 -50 5 -18 24 -44 40 -58 l31 -25 402 0 c394 0 404 0 430 21 79 62 74 175
-10 230 -27 18 -53 19 -396 19 -356 0 -368 1 -378 20 -15 28 -62 50 -106 50
-28 0 -44 -8 -71 -35z m148 -4 c56 -56 29 -153 -47 -167 -64 -12 -124 32 -124
91 0 92 107 140 171 76z m209 -131 c0 -5 -7 -10 -15 -10 -8 0 -15 -4 -15 -10
0 -5 5 -10 10 -10 18 0 11 -20 -7 -21 -17 -1 -17 -2 0 -6 26 -7 20 -23 -8 -23
-24 0 -26 2 -19 38 4 20 9 40 11 45 6 11 43 9 43 -3z m346 -32 c-7 -43 -12
-55 -20 -47 -9 8 7 89 17 89 6 0 7 -16 3 -42z m-286 -3 c-6 -7 -8 -20 -4 -29
3 -9 1 -16 -5 -16 -6 0 -11 5 -11 11 0 8 -5 8 -15 -1 -9 -8 -15 -9 -15 -2 0 6
4 13 10 17 5 3 7 11 4 18 -2 7 6 13 21 13 20 2 23 -1 15 -11z m68 -2 c2 -8 -5
-13 -17 -13 -12 0 -21 -5 -21 -11 0 -6 7 -9 15 -5 8 3 15 1 15 -4 0 -13 -37
-13 -45 0 -3 6 -3 19 0 31 7 22 45 23 53 2z m102 -13 c0 -16 -5 -30 -11 -30
-6 0 -9 9 -6 20 3 11 1 22 -4 25 -4 3 -11 -6 -15 -20 -8 -32 -23 -33 -16 0 6
33 -4 32 -22 -2 l-15 -28 -1 33 c0 31 1 32 45 32 43 0 45 -1 45 -30z m78 3
c-2 -20 -9 -29 -25 -31 -13 -2 -23 -10 -23 -18 0 -8 -5 -14 -11 -14 -8 0 -9
11 -5 31 3 17 6 38 6 45 0 9 11 14 31 14 27 0 30 -3 27 -27z m102 12 c0 -8 -9
-15 -21 -15 -11 0 -18 -4 -14 -10 3 -5 12 -7 20 -3 8 3 15 0 15 -6 0 -17 -47
-13 -54 5 -4 9 -1 23 5 30 15 19 49 18 49 -1z"/>
<path d="M510 1135 c-7 -8 -9 -19 -5 -23 4 -4 10 -1 12 6 6 15 43 16 43 0 0
-6 -7 -20 -17 -30 -9 -10 -13 -21 -9 -25 11 -11 46 39 43 62 -3 25 -48 32 -67
10z"/>
<path d="M530 1040 c0 -5 5 -10 10 -10 6 0 10 5 10 10 0 6 -4 10 -10 10 -5 0
-10 -4 -10 -10z"/>
<path d="M1092 987 c-9 -11 -10 -17 -2 -22 15 -9 23 -1 18 21 -3 15 -4 16 -16
1z"/>
<path d="M2648 1184 c-36 -19 -48 -43 -48 -98 l0 -46 -217 -2 -218 -2 220 -6
c214 -5 221 -6 257 -30 21 -14 38 -32 38 -40 0 -26 39 -79 72 -100 32 -20 48
-20 420 -18 l388 3 36 36 c58 58 66 141 18 205 -46 63 -54 64 -453 64 -228 0
-361 4 -361 10 0 16 -56 40 -92 40 -18 -1 -45 -7 -60 -16z m131 -25 c73 -72 5
-190 -95 -165 -112 28 -91 196 24 196 32 0 47 -7 71 -31z m211 -119 c0 -5 -7
-10 -15 -10 -8 0 -15 -4 -15 -10 0 -5 5 -10 10 -10 18 0 11 -20 -7 -21 -17 -1
-17 -2 0 -6 26 -7 20 -23 -9 -23 -25 0 -26 2 -19 37 4 21 9 41 11 45 7 12 44
10 44 -2z m343 -22 c-8 -47 -22 -70 -23 -38 0 34 11 70 21 70 5 0 6 -15 2 -32z
m-287 -28 c-1 -22 -6 -27 -28 -27 -22 0 -25 3 -17 14 6 7 9 19 6 27 -4 9 2 14
17 14 19 0 23 -6 22 -28z m72 13 c2 -8 -5 -13 -17 -13 -12 0 -21 -4 -21 -10 0
-5 7 -7 15 -4 8 4 15 1 15 -5 0 -17 -40 -13 -46 4 -10 25 4 47 28 43 12 -2 23
-9 26 -15z m102 -13 c0 -16 -4 -30 -10 -30 -5 0 -10 12 -10 26 0 14 -4 23 -10
19 -5 -3 -10 -15 -10 -26 0 -10 -5 -19 -11 -19 -6 0 -9 9 -6 20 3 11 1 22 -4
25 -4 3 -11 -6 -15 -20 -9 -35 -21 -31 -16 5 4 28 7 30 48 30 42 0 44 -1 44
-30z m76 15 c8 -20 -13 -45 -37 -45 -11 0 -19 -7 -19 -15 0 -8 -5 -15 -10 -15
-9 0 -8 20 7 73 6 21 51 23 59 2z m102 -2 c2 -8 -5 -13 -17 -13 -12 0 -21 -5
-21 -11 0 -6 7 -9 15 -5 8 3 15 1 15 -4 0 -16 -40 -11 -46 5 -10 25 4 47 28
43 12 -2 23 -9 26 -15z"/>
<path d="M2676 1134 c-4 -9 -3 -20 0 -23 4 -3 9 0 11 7 6 15 43 16 43 0 0 -6
-7 -20 -17 -30 -9 -10 -13 -21 -10 -24 11 -11 47 39 44 61 -3 27 -61 34 -71 9z"/>
<path d="M2700 1040 c0 -5 5 -10 10 -10 6 0 10 5 10 10 0 6 -4 10 -10 10 -5 0
-10 -4 -10 -10z"/>
<path d="M3255 1000 c-4 -6 -3 -16 3 -22 6 -6 12 -6 17 2 4 6 3 16 -3 22 -6 6
-12 6 -17 -2z"/>
<path d="M4824 1190 c-35 -14 -54 -50 -54 -104 0 -44 4 -53 40 -86 22 -20 40
-44 40 -53 0 -8 15 -32 34 -51 l33 -36 407 0 406 0 36 33 c31 28 37 42 41 83
6 62 -13 104 -60 133 -33 20 -46 21 -395 21 l-360 0 -35 35 c-28 28 -42 35
-73 34 -22 0 -49 -4 -60 -9z m112 -18 c88 -70 30 -198 -80 -178 -113 21 -94
196 21 196 21 0 48 -8 59 -18z m219 -142 c3 -5 -3 -10 -14 -10 -25 0 -28 -20
-3 -20 15 -1 15 -2 -2 -15 -11 -8 -14 -15 -8 -15 7 0 12 -4 12 -10 0 -5 -11
-10 -24 -10 -18 0 -23 5 -21 18 14 66 16 72 35 72 10 0 22 -4 25 -10z m341
-32 c-7 -43 -12 -55 -20 -47 -9 8 7 89 17 89 6 0 7 -16 3 -42z m-286 -3 c-6
-7 -8 -20 -4 -29 3 -9 1 -16 -5 -16 -6 0 -11 5 -11 11 0 8 -5 8 -15 -1 -9 -8
-15 -9 -15 -2 0 6 4 13 10 17 5 3 7 11 4 18 -2 7 6 13 21 13 20 2 23 -1 15
-11z m68 -2 c2 -8 -5 -13 -17 -13 -12 0 -21 -5 -21 -11 0 -6 7 -9 15 -5 8 3
15 1 15 -4 0 -13 -37 -13 -45 0 -3 6 -3 19 0 31 7 22 45 23 53 2z m106 9 c7
-11 -4 -52 -14 -52 -4 0 -5 11 -2 25 6 33 -4 32 -22 -2 l-15 -28 -1 28 c0 16
-4 26 -10 22 -5 -3 -10 -15 -10 -26 0 -10 -4 -19 -10 -19 -11 0 -13 20 -4 44
7 17 78 23 88 8z m79 -4 c7 -21 -12 -48 -33 -48 -11 0 -20 -7 -20 -15 0 -8 -5
-15 -11 -15 -7 0 -9 9 -5 23 3 12 6 32 6 45 0 18 6 22 29 22 16 0 31 -6 34
-12z m97 -3 c0 -8 -9 -15 -21 -15 -11 0 -18 -4 -14 -10 3 -5 12 -7 20 -3 8 3
15 0 15 -6 0 -17 -47 -13 -54 5 -4 9 -1 23 5 30 15 19 49 18 49 -1z"/>
<path d="M4846 1134 c-4 -9 -3 -20 0 -23 4 -3 9 0 11 7 5 13 43 17 43 4 0 -5
-7 -17 -15 -28 -16 -21 -19 -34 -7 -34 16 1 43 51 37 70 -8 25 -60 28 -69 4z"/>
<path d="M4865 1040 c-3 -5 1 -10 9 -10 9 0 16 5 16 10 0 6 -4 10 -9 10 -6 0
-13 -4 -16 -10z"/>
<path d="M5424 986 c-8 -22 3 -33 18 -18 9 9 9 15 0 24 -9 9 -13 7 -18 -6z"/>
<path d="M2720 752 c0 -38 3 -42 24 -42 25 0 43 27 27 43 -6 6 -9 2 -8 -9 1
-10 -6 -20 -15 -22 -13 -2 -16 4 -16 28 1 16 -2 33 -5 37 -4 3 -7 -12 -7 -35z"/>
<path d="M2959 773 c-1 -10 -1 -26 0 -35 2 -11 -5 -18 -15 -18 -11 0 -15 6
-11 20 3 11 1 20 -5 20 -5 0 -8 -10 -6 -22 2 -15 11 -24 26 -26 20 -3 22 1 22
37 0 40 -9 58 -11 24z"/>
<path d="M3082 750 c-1 -30 1 -40 7 -31 8 13 12 13 28 0 16 -13 17 -12 5 3 -8
10 -10 23 -6 30 6 10 5 10 -8 0 -14 -12 -17 -10 -21 15 -3 19 -4 13 -5 -17z"/>
<path d="M2471 743 c2 -33 3 -34 6 -9 l5 29 23 -29 24 -29 -1 40 c0 36 -1 37
-7 11 l-6 -29 -14 26 c-20 38 -31 33 -30 -10z"/>
<path d="M4803 730 c0 -25 2 -35 4 -22 2 12 2 32 0 45 -2 12 -4 2 -4 -23z"/>
<path d="M5089 753 c-1 -10 -1 -26 0 -35 2 -11 -5 -18 -15 -18 -11 0 -15 6
-11 20 3 11 1 20 -5 20 -5 0 -8 -10 -6 -22 2 -15 11 -24 26 -26 20 -3 22 1 22
37 0 40 -9 58 -11 24z"/>
<path d="M5283 730 c0 -25 2 -35 4 -22 2 12 2 32 0 45 -2 12 -4 2 -4 -23z"/>
<path d="M5540 732 c0 -38 3 -42 24 -42 25 0 43 27 27 43 -6 6 -9 2 -8 -9 1
-10 -6 -20 -15 -22 -13 -2 -16 4 -16 28 1 16 -2 33 -5 37 -4 3 -7 -12 -7 -35z"/>
<path d="M5643 730 c0 -25 2 -35 4 -22 2 12 2 32 0 45 -2 12 -4 2 -4 -23z"/>
<path d="M5959 753 c-1 -10 0 -27 1 -37 1 -14 -3 -18 -19 -13 -12 3 -19 1 -15
-4 3 -5 14 -9 25 -9 16 0 19 7 19 40 0 39 -9 57 -11 23z"/>
<path d="M2554 745 c-8 -19 3 -35 26 -35 21 0 35 29 21 43 -6 6 -9 2 -8 -9 1
-11 -6 -20 -17 -22 -15 -3 -18 0 -13 17 6 24 -1 29 -9 6z"/>
<path d="M2620 735 c0 -14 2 -25 4 -25 2 0 6 11 8 25 3 14 1 25 -3 25 -5 0 -9
-11 -9 -25z"/>
<path d="M2658 735 c2 -14 6 -25 7 -25 1 0 5 11 7 25 3 16 1 25 -7 25 -8 0
-10 -9 -7 -25z"/>
<path d="M2791 733 c1 -22 2 -23 6 -8 3 11 10 23 17 27 7 5 5 8 -6 8 -13 0
-18 -7 -17 -27z"/>
<path d="M2834 735 c1 -12 9 -21 21 -22 14 -1 15 0 3 3 -9 3 -19 13 -21 22 -3
12 -4 11 -3 -3z"/>
<path d="M2994 735 c1 -12 9 -21 21 -22 14 -1 15 0 3 3 -9 3 -19 13 -21 22 -3
12 -4 11 -3 -3z"/>
<path d="M3140 735 c0 -14 2 -25 4 -25 2 0 6 11 8 25 3 14 1 25 -3 25 -5 0 -9
-11 -9 -25z"/>
<path d="M3178 735 c2 -14 6 -25 7 -25 1 0 5 11 7 25 3 16 1 25 -7 25 -8 0
-10 -9 -7 -25z"/>
<path d="M3274 735 c1 -12 9 -21 21 -22 14 -1 15 0 3 3 -9 3 -19 13 -21 22 -3
12 -4 11 -3 -3z"/>
<path d="M3333 744 c-8 -20 10 -37 33 -31 15 4 14 5 -5 6 -18 1 -22 5 -18 21
6 24 -1 27 -10 4z"/>
<path d="M3390 740 c0 -24 26 -38 42 -22 8 8 4 9 -12 5 -20 -5 -22 -3 -18 15
4 12 2 22 -3 22 -5 0 -9 -9 -9 -20z"/>
<path d="M3425 750 c3 -5 8 -10 11 -10 2 0 4 5 4 10 0 6 -5 10 -11 10 -5 0 -7
-4 -4 -10z"/>
<path d="M3460 735 c0 -14 2 -25 4 -25 2 0 6 11 8 25 3 14 1 25 -3 25 -5 0 -9
-11 -9 -25z"/>
<path d="M3498 733 c5 -21 7 -23 10 -9 2 10 0 22 -6 28 -6 6 -7 0 -4 -19z"/>
<path d="M3526 751 c-10 -16 5 -41 25 -41 23 0 36 27 21 42 -8 8 -9 4 -5 -12
5 -18 2 -21 -13 -18 -11 2 -18 11 -18 21 2 19 -2 22 -10 8z"/>
<path d="M3590 735 c0 -14 2 -25 4 -25 2 0 6 11 8 25 3 14 1 25 -3 25 -5 0 -9
-11 -9 -25z"/>
<path d="M3630 735 c0 -14 2 -25 4 -25 2 0 6 11 8 25 3 14 1 25 -3 25 -5 0 -9
-11 -9 -25z"/>
<path d="M3668 733 c5 -21 7 -23 10 -9 2 10 0 22 -6 28 -6 6 -7 0 -4 -19z"/>
<path d="M3692 735 c0 -16 2 -22 5 -12 2 9 2 23 0 30 -3 6 -5 -1 -5 -18z"/>
<path d="M3720 751 c0 -5 5 -13 11 -17 8 -4 7 -9 -2 -15 -11 -7 -10 -9 4 -9
21 0 22 16 2 36 -8 9 -15 11 -15 5z"/>
<path d="M3774 735 c1 -12 9 -21 21 -22 14 -1 15 0 3 3 -9 3 -19 13 -21 22 -3
12 -4 11 -3 -3z"/>
<path d="M3800 750 c0 -5 5 -10 11 -10 5 0 7 5 4 10 -3 6 -8 10 -11 10 -2 0
-4 -4 -4 -10z"/>
<path d="M3830 751 c0 -5 5 -13 11 -17 8 -4 7 -9 -2 -15 -11 -7 -10 -9 4 -9
21 0 22 16 2 36 -8 9 -15 11 -15 5z"/>
<path d="M4532 728 c-2 -34 1 -38 21 -37 15 1 17 3 5 6 -10 2 -18 17 -21 36
-4 31 -4 31 -5 -5z"/>
<path d="M5441 728 c-1 -30 3 -38 17 -38 11 0 13 3 5 8 -6 4 -13 21 -16 37 -4
27 -4 27 -6 -7z"/>
<path d="M5701 728 c-1 -30 3 -38 17 -38 11 0 13 3 5 8 -6 4 -13 21 -16 37 -4
27 -4 27 -6 -7z"/>
<path d="M4586 731 c-11 -17 6 -41 28 -40 20 0 20 1 -3 10 -15 6 -21 15 -17
24 6 16 0 20 -8 6z"/>
<path d="M4680 729 c0 -5 5 -7 10 -4 6 3 10 8 10 11 0 2 -4 4 -10 4 -5 0 -10
-5 -10 -11z"/>
<path d="M4764 731 c3 -5 -4 -11 -15 -14 -21 -6 -18 -27 4 -27 7 0 6 4 -3 10
-13 8 -13 10 2 10 9 0 19 -6 21 -12 3 -7 6 -1 6 15 1 15 -4 27 -10 27 -5 0 -8
-4 -5 -9z"/>
<path d="M4824 725 c-8 -19 3 -35 26 -35 10 0 21 -6 23 -12 3 -7 6 4 6 25 1
20 -3 37 -8 37 -5 0 -8 -8 -7 -17 0 -10 -7 -19 -18 -21 -15 -3 -18 0 -13 17 6
24 -1 29 -9 6z"/>
<path d="M4930 719 c0 -15 -5 -19 -15 -15 -8 3 -15 1 -15 -4 0 -6 9 -10 20
-10 15 0 20 7 20 25 0 14 -2 25 -5 25 -3 0 -5 -9 -5 -21z"/>
<path d="M4964 715 c1 -12 9 -21 21 -22 14 -1 15 0 3 3 -9 3 -19 13 -21 22 -3
12 -4 11 -3 -3z"/>
<path d="M4990 730 c0 -5 5 -10 11 -10 5 0 7 5 4 10 -3 6 -8 10 -11 10 -2 0
-4 -4 -4 -10z"/>
<path d="M5124 715 c1 -12 9 -21 21 -22 14 -1 15 0 3 3 -9 3 -19 13 -21 22 -3
12 -4 11 -3 -3z"/>
<path d="M5211 698 c1 -24 3 -35 6 -25 2 9 13 17 23 17 21 0 35 29 21 43 -6 6
-9 2 -8 -9 1 -11 -6 -20 -17 -22 -15 -3 -18 0 -13 17 3 12 1 21 -4 21 -5 0 -8
-19 -8 -42z"/>
<path d="M5340 730 c0 -5 -7 -10 -15 -10 -8 0 -15 -7 -15 -15 0 -8 9 -15 20
-15 15 0 20 7 20 25 0 14 -2 25 -5 25 -3 0 -5 -4 -5 -10z"/>
<path d="M5370 715 c0 -14 2 -25 4 -25 2 0 6 11 8 25 3 14 1 25 -3 25 -5 0 -9
-11 -9 -25z"/>
<path d="M5408 715 c2 -14 6 -25 8 -25 2 0 4 11 4 25 0 14 -4 25 -9 25 -4 0
-6 -11 -3 -25z"/>
<path d="M5510 730 c0 -5 -7 -10 -15 -10 -8 0 -15 -7 -15 -15 0 -8 9 -15 20
-15 15 0 20 7 20 25 0 14 -2 25 -5 25 -3 0 -5 -4 -5 -10z"/>
<path d="M5612 715 c0 -16 2 -22 5 -12 2 9 2 23 0 30 -3 6 -5 -1 -5 -18z"/>
<path d="M5672 715 c0 -16 2 -22 5 -12 2 9 2 23 0 30 -3 6 -5 -1 -5 -18z"/>
<path d="M5744 715 c1 -12 9 -21 21 -22 14 -1 15 0 3 3 -9 3 -19 13 -21 22 -3
12 -4 11 -3 -3z"/>
<path d="M5860 730 c0 -5 -7 -10 -15 -10 -8 0 -15 -7 -15 -15 0 -8 9 -15 20
-15 15 0 20 7 20 25 0 14 -2 25 -5 25 -3 0 -5 -4 -5 -10z"/>
<path d="M5892 715 c0 -16 2 -22 5 -12 2 9 2 23 0 30 -3 6 -5 -1 -5 -18z"/>
<path d="M5920 729 c0 -5 5 -7 10 -4 6 3 10 8 10 11 0 2 -4 4 -10 4 -5 0 -10
-5 -10 -11z"/>
<path d="M5994 715 c1 -12 9 -21 21 -22 14 -1 15 0 3 3 -9 3 -19 13 -21 22 -3
12 -4 11 -3 -3z"/>
<path d="M6020 730 c0 -5 5 -10 11 -10 5 0 7 5 4 10 -3 6 -8 10 -11 10 -2 0
-4 -4 -4 -10z"/>
<path d="M6110 730 c0 -5 -7 -10 -15 -10 -8 0 -15 -7 -15 -15 0 -8 9 -15 20
-15 15 0 20 7 20 25 0 14 -2 25 -5 25 -3 0 -5 -4 -5 -10z"/>
<path d="M4688 698 c5 -5 16 -8 23 -6 8 3 3 7 -10 11 -17 4 -21 3 -13 -5z"/>
<path d="M2903 620 c0 -25 2 -35 4 -22 2 12 2 32 0 45 -2 12 -4 2 -4 -23z"/>
<path d="M2933 620 c0 -25 2 -35 4 -22 2 12 2 32 0 45 -2 12 -4 2 -4 -23z"/>
<path d="M3436 652 c-3 -5 1 -9 9 -9 8 0 12 4 9 9 -3 4 -7 8 -9 8 -2 0 -6 -4
-9 -8z"/>
<path d="M549 623 c-1 -10 0 -27 1 -37 1 -14 -3 -18 -19 -13 -12 3 -19 1 -15
-4 3 -5 14 -9 25 -9 16 0 19 7 19 40 0 39 -9 57 -11 23z"/>
<path d="M723 600 c0 -25 2 -35 4 -22 2 12 2 32 0 45 -2 12 -4 2 -4 -23z"/>
<path d="M3250 630 c0 -5 5 -10 10 -10 6 0 10 5 10 10 0 6 -4 10 -10 10 -5 0
-10 -4 -10 -10z"/>
<path d="M4513 600 c0 -25 2 -35 4 -22 2 12 2 32 0 45 -2 12 -4 2 -4 -23z"/>
<path d="M5459 623 c-1 -10 0 -26 1 -36 1 -13 -4 -18 -17 -15 -10 2 -17 12
-16 22 1 11 -2 15 -8 9 -16 -16 2 -43 27 -43 21 0 24 4 24 40 0 39 -9 57 -11
23z"/>
<path d="M5583 600 c0 -25 2 -35 4 -22 2 12 2 32 0 45 -2 12 -4 2 -4 -23z"/>
<path d="M5833 600 c0 -25 2 -35 4 -22 2 12 2 32 0 45 -2 12 -4 2 -4 -23z"/>
<path d="M282 598 c-2 -30 2 -38 16 -38 9 0 23 4 30 9 18 11 11 55 -8 57 -10
1 -10 -1 -2 -3 18 -6 11 -47 -10 -51 -12 -2 -18 5 -21 30 l-4 33 -1 -37z"/>
<path d="M361 593 c1 -21 3 -30 6 -20 2 9 11 17 18 17 20 0 29 20 15 33 -9 9
-11 9 -8 -2 2 -7 -3 -16 -11 -19 -10 -3 -12 0 -8 12 4 9 2 16 -3 16 -6 0 -9
-17 -9 -37z"/>
<path d="M420 595 c0 -30 3 -35 23 -34 16 1 18 2 5 6 -10 2 -18 8 -18 13 0 5
8 11 18 13 15 4 15 5 -2 6 -12 1 -16 6 -12 16 3 8 1 15 -4 15 -6 0 -10 -16
-10 -35z"/>
<path d="M1478 618 c-6 -16 3 -58 11 -58 4 0 5 16 3 35 -4 37 -8 43 -14 23z"/>
<path d="M1651 598 c-1 -30 3 -38 17 -38 11 0 13 3 5 8 -6 4 -13 21 -16 37 -4
27 -4 27 -6 -7z"/>
<path d="M2613 623 c4 -6 -2 -13 -13 -16 -28 -7 -25 -27 5 -27 18 0 25 5 25
19 0 11 -5 23 -12 27 -6 4 -8 3 -5 -3z m4 -29 c-3 -3 -12 -4 -19 -1 -8 3 -5 6
6 6 11 1 17 -2 13 -5z"/>
<path d="M2640 605 c0 -14 2 -25 4 -25 2 0 6 11 8 25 3 14 1 25 -3 25 -5 0 -9
-11 -9 -25z"/>
<path d="M2682 605 c0 -16 2 -22 5 -12 2 9 2 23 0 30 -3 6 -5 -1 -5 -18z"/>
<path d="M2710 605 c0 -14 2 -25 4 -25 2 0 6 11 8 25 3 14 1 25 -3 25 -5 0 -9
-11 -9 -25z"/>
<path d="M2748 605 c2 -14 6 -25 8 -25 2 0 4 11 4 25 0 14 -4 25 -9 25 -4 0
-6 -11 -3 -25z"/>
<path d="M2810 609 c0 -15 -5 -19 -15 -15 -8 3 -15 1 -15 -4 0 -6 9 -10 20
-10 15 0 20 7 20 25 0 14 -2 25 -5 25 -3 0 -5 -9 -5 -21z"/>
<path d="M2844 605 c1 -12 9 -21 21 -22 14 -1 15 0 3 3 -9 3 -19 13 -21 22 -3
12 -4 11 -3 -3z"/>
<path d="M2964 605 c1 -12 9 -21 21 -22 14 -1 15 0 3 3 -9 3 -19 13 -21 22 -3
12 -4 11 -3 -3z"/>
<path d="M3020 605 c0 -14 2 -25 4 -25 2 0 6 11 8 25 3 14 1 25 -3 25 -5 0 -9
-11 -9 -25z"/>
<path d="M3058 605 c2 -14 6 -25 7 -25 1 0 5 11 7 25 3 16 1 25 -7 25 -8 0
-10 -9 -7 -25z"/>
<path d="M3123 614 c-8 -20 10 -37 33 -31 15 4 14 5 -5 6 -18 1 -22 5 -18 21
6 24 -1 27 -10 4z"/>
<path d="M3155 620 c3 -5 8 -10 11 -10 2 0 4 5 4 10 0 6 -5 10 -11 10 -5 0 -7
-4 -4 -10z"/>
<path d="M3180 605 c0 -14 2 -25 4 -25 2 0 6 11 8 25 3 14 1 25 -3 25 -5 0 -9
-11 -9 -25z"/>
<path d="M3222 605 c0 -16 2 -22 5 -12 2 9 2 23 0 30 -3 6 -5 -1 -5 -18z"/>
<path d="M3323 595 c1 -22 7 -39 15 -41 7 -1 8 0 2 3 -5 2 -10 9 -10 14 0 14
28 11 33 -3 3 -8 6 -6 6 5 1 11 -7 17 -21 18 -16 1 -18 3 -6 6 9 2 19 11 22
19 7 17 -10 19 -17 2 -4 -10 -8 -10 -15 1 -7 10 -10 3 -9 -24z"/>
<path d="M3381 603 c1 -22 2 -23 6 -8 3 11 10 23 17 27 7 5 5 8 -6 8 -13 0
-18 -7 -17 -27z"/>
<path d="M3453 623 c4 -6 -2 -13 -13 -16 -28 -7 -25 -27 5 -27 18 0 25 5 25
19 0 11 -5 23 -12 27 -6 4 -8 3 -5 -3z m4 -29 c-3 -3 -12 -4 -19 -1 -8 3 -5 6
6 6 11 1 17 -2 13 -5z"/>
<path d="M3483 614 c-8 -20 10 -37 33 -31 15 4 14 5 -5 6 -18 1 -22 5 -18 21
6 24 -1 27 -10 4z"/>
<path d="M3544 605 c1 -12 9 -21 21 -22 14 -1 15 0 3 3 -9 3 -19 13 -21 22 -3
12 -4 11 -3 -3z"/>
<path d="M3660 620 c0 -5 -7 -10 -15 -10 -8 0 -15 -7 -15 -15 0 -8 9 -15 20
-15 15 0 20 7 20 25 0 14 -2 25 -5 25 -3 0 -5 -4 -5 -10z"/>
<path d="M3694 605 c1 -29 41 -27 42 3 1 18 1 19 -3 2 -5 -25 -30 -26 -36 -2
-3 13 -4 12 -3 -3z"/>
<path d="M5892 601 c2 -20 9 -36 18 -38 12 -4 13 -3 1 5 -8 6 -11 16 -8 24 3
8 1 21 -4 29 -7 10 -9 4 -7 -20z"/>
<path d="M1160 610 c0 -5 5 -10 10 -10 6 0 10 5 10 10 0 6 -4 10 -10 10 -5 0
-10 -4 -10 -10z"/>
<path d="M510 599 c0 -5 5 -7 10 -4 6 3 10 8 10 11 0 2 -4 4 -10 4 -5 0 -10
-5 -10 -11z"/>
<path d="M584 585 c1 -12 9 -21 21 -22 14 -1 15 0 3 3 -9 3 -19 13 -21 22 -3
12 -4 11 -3 -3z"/>
<path d="M610 600 c0 -5 5 -10 11 -10 5 0 7 5 4 10 -3 6 -8 10 -11 10 -2 0 -4
-4 -4 -10z"/>
<path d="M640 601 c0 -5 5 -13 11 -17 8 -4 7 -9 -2 -15 -11 -7 -10 -9 4 -9 21
0 22 16 2 36 -8 9 -15 11 -15 5z"/>
<path d="M744 595 c-8 -19 3 -35 26 -35 21 0 35 29 21 43 -6 6 -9 2 -8 -9 1
-11 -6 -20 -17 -22 -15 -3 -18 0 -13 17 6 24 -1 29 -9 6z"/>
<path d="M813 575 c1 -22 7 -39 15 -41 7 -1 8 0 2 3 -5 2 -10 9 -10 14 0 14
28 11 33 -3 3 -8 6 -6 6 5 1 11 -7 17 -21 18 -16 1 -18 3 -6 6 9 2 19 11 22
19 7 17 -10 19 -17 2 -4 -10 -8 -10 -15 1 -7 10 -10 3 -9 -24z"/>
<path d="M874 585 c1 -12 9 -21 21 -22 14 -1 15 0 3 3 -9 3 -19 13 -21 22 -3
12 -4 11 -3 -3z"/>
<path d="M900 600 c0 -5 5 -10 11 -10 5 0 7 5 4 10 -3 6 -8 10 -11 10 -2 0 -4
-4 -4 -10z"/>
<path d="M930 585 c0 -14 2 -25 4 -25 2 0 6 11 8 25 3 14 1 25 -3 25 -5 0 -9
-11 -9 -25z"/>
<path d="M968 585 c2 -14 6 -25 7 -25 1 0 5 11 7 25 3 16 1 25 -7 25 -8 0 -10
-9 -7 -25z"/>
<path d="M1034 585 c1 -12 9 -21 21 -22 14 -1 15 0 3 3 -9 3 -19 13 -21 22 -3
12 -4 11 -3 -3z"/>
<path d="M1090 585 c0 -14 2 -25 4 -25 2 0 6 11 8 25 3 14 1 25 -3 25 -5 0 -9
-11 -9 -25z"/>
<path d="M1132 585 c0 -16 2 -22 5 -12 2 9 2 23 0 30 -3 6 -5 -1 -5 -18z"/>
<path d="M1210 603 c0 -7 5 -15 11 -19 8 -4 7 -9 -2 -15 -11 -7 -10 -9 4 -9 9
0 17 3 17 8 -1 12 -30 47 -30 35z"/>
<path d="M1284 585 c1 -12 9 -21 21 -22 14 -1 15 0 3 3 -9 3 -19 13 -21 22 -3
12 -4 11 -3 -3z"/>
<path d="M1345 584 c0 -16 3 -19 12 -13 7 7 13 5 16 -3 2 -7 4 -2 3 12 -1 32
-31 35 -31 4z"/>
<path d="M1402 585 c0 -16 2 -22 5 -12 2 9 2 23 0 30 -3 6 -5 -1 -5 -18z"/>
<path d="M1430 603 c0 -7 5 -15 11 -19 8 -4 7 -9 -2 -15 -11 -7 -10 -9 4 -9 9
0 17 3 17 8 -1 12 -30 47 -30 35z"/>
<path d="M1550 600 c0 -5 -7 -10 -15 -10 -8 0 -15 -7 -15 -15 0 -8 5 -15 11
-15 5 0 7 5 4 10 -3 6 -2 10 4 10 5 0 12 -6 14 -12 3 -7 6 -1 6 15 1 15 -1 27
-4 27 -3 0 -5 -4 -5 -10z"/>
<path d="M1580 585 c0 -14 2 -25 4 -25 2 0 6 11 8 25 3 14 1 25 -3 25 -5 0 -9
-11 -9 -25z"/>
<path d="M1618 583 c5 -21 7 -23 10 -9 2 10 0 22 -6 28 -6 6 -7 0 -4 -19z"/>
<path d="M1690 601 c0 -5 5 -13 11 -17 8 -4 7 -9 -2 -15 -11 -7 -10 -9 4 -9
21 0 22 16 2 36 -8 9 -15 11 -15 5z"/>
<path d="M4570 600 c0 -5 -7 -10 -15 -10 -8 0 -15 -7 -15 -15 0 -8 9 -15 20
-15 15 0 20 7 20 25 0 14 -2 25 -5 25 -3 0 -5 -4 -5 -10z"/>
<path d="M4630 585 c0 -14 2 -25 4 -25 2 0 6 11 8 25 3 14 1 25 -3 25 -5 0 -9
-11 -9 -25z"/>
<path d="M4668 585 c2 -14 6 -25 8 -25 2 0 4 11 4 25 0 14 -4 25 -9 25 -4 0
-6 -11 -3 -25z"/>
<path d="M4702 585 c0 -16 2 -22 5 -12 2 9 2 23 0 30 -3 6 -5 -1 -5 -18z"/>
<path d="M4732 585 c0 -16 2 -22 5 -12 2 9 2 23 0 30 -3 6 -5 -1 -5 -18z"/>
<path d="M4760 601 c0 -5 5 -13 11 -17 8 -4 7 -9 -2 -15 -11 -7 -10 -9 4 -9
21 0 22 16 2 36 -8 9 -15 11 -15 5z"/>
<path d="M4803 594 c-8 -20 10 -37 33 -31 15 4 14 5 -5 6 -18 1 -22 5 -18 21
6 24 -1 27 -10 4z"/>
<path d="M4835 600 c3 -5 8 -10 11 -10 2 0 4 5 4 10 0 6 -5 10 -11 10 -5 0 -7
-4 -4 -10z"/>
<path d="M4896 601 c-11 -17 6 -41 28 -40 20 0 20 1 -3 10 -15 6 -21 15 -17
24 6 16 0 20 -8 6z"/>
<path d="M4960 585 c0 -14 2 -25 4 -25 2 0 6 11 8 25 3 14 1 25 -3 25 -5 0 -9
-11 -9 -25z"/>
<path d="M4998 583 c5 -21 7 -23 10 -9 2 10 0 22 -6 28 -6 6 -7 0 -4 -19z"/>
<path d="M5054 595 c-10 -25 5 -33 54 -32 26 0 36 2 24 5 -18 3 -23 9 -19 23
3 11 0 19 -8 19 -7 0 -12 -8 -11 -17 0 -10 -7 -19 -18 -21 -15 -3 -18 0 -13
17 6 24 -1 29 -9 6z"/>
<path d="M5164 585 c1 -13 9 -21 24 -23 19 -3 22 1 21 25 -2 23 -2 24 -6 6 -5
-27 -30 -31 -36 -5 -3 13 -4 12 -3 -3z"/>
<path d="M5231 588 c12 -27 29 -38 29 -19 0 5 3 18 6 28 5 17 5 17 -6 0 -11
-18 -12 -18 -26 0 -13 16 -13 15 -3 -9z"/>
<path d="M5290 585 c0 -14 2 -25 4 -25 2 0 6 11 8 25 3 14 1 25 -3 25 -5 0 -9
-11 -9 -25z"/>
<path d="M5323 594 c-8 -20 10 -37 33 -31 15 4 14 5 -5 6 -18 1 -22 5 -18 21
6 24 -1 27 -10 4z"/>
<path d="M5355 600 c3 -5 8 -10 11 -10 2 0 4 5 4 10 0 6 -5 10 -11 10 -5 0 -7
-4 -4 -10z"/>
<path d="M5486 601 c-11 -17 6 -41 28 -40 20 0 20 1 -3 10 -15 6 -21 15 -17
24 6 16 0 20 -8 6z"/>
<path d="M5633 603 c4 -6 -2 -13 -13 -16 -28 -7 -25 -27 5 -27 18 0 25 5 25
19 0 11 -5 23 -12 27 -6 4 -8 3 -5 -3z m4 -29 c-3 -3 -12 -4 -19 -1 -8 3 -5 6
6 6 11 1 17 -2 13 -5z"/>
<path d="M5691 573 c0 -21 3 -32 6 -25 2 6 13 12 24 12 23 0 36 27 21 42 -8 8
-9 4 -5 -12 5 -18 2 -21 -13 -18 -11 2 -18 11 -18 21 1 9 -2 17 -7 17 -5 0 -9
-17 -8 -37z"/>
<path d="M5764 595 c-8 -19 3 -35 26 -35 21 0 35 29 21 43 -6 6 -9 2 -8 -9 1
-11 -6 -20 -17 -22 -15 -3 -18 0 -13 17 6 24 -1 29 -9 6z"/>
<path d="M5862 585 c0 -16 2 -22 5 -12 2 9 2 23 0 30 -3 6 -5 -1 -5 -18z"/>
<path d="M5932 585 c0 -16 2 -22 5 -12 2 9 2 23 0 30 -3 6 -5 -1 -5 -18z"/>
<path d="M5960 590 c0 -11 8 -24 18 -27 9 -4 20 -11 24 -17 4 -6 8 6 8 27 0
20 -4 37 -9 37 -5 0 -7 -9 -4 -20 4 -14 0 -20 -12 -20 -12 0 -16 6 -12 20 3
11 1 20 -4 20 -5 0 -9 -9 -9 -20z"/>
<path d="M6034 585 c1 -13 9 -21 24 -23 19 -3 22 1 21 25 -2 23 -2 24 -6 6 -5
-27 -30 -31 -36 -5 -3 13 -4 12 -3 -3z"/>
<path d="M6096 601 c-11 -17 6 -41 28 -40 20 0 20 1 -3 10 -15 6 -21 15 -17
24 6 16 0 20 -8 6z"/>
<path d="M3160 500 c0 -5 5 -10 10 -10 6 0 10 5 10 10 0 6 -4 10 -10 10 -5 0
-10 -4 -10 -10z"/>
<path d="M4699 493 c-1 -10 0 -26 1 -36 1 -13 -4 -18 -17 -15 -10 2 -17 12
-16 22 1 11 -2 15 -8 9 -16 -16 2 -43 27 -43 21 0 24 4 24 40 0 39 -9 57 -11
23z"/>
<path d="M5163 470 c0 -25 2 -35 4 -22 2 12 2 32 0 45 -2 12 -4 2 -4 -23z"/>
<path d="M5599 493 c-1 -10 0 -27 1 -37 1 -14 -3 -18 -19 -13 -12 3 -19 1 -15
-4 3 -5 14 -9 25 -9 16 0 19 7 19 40 0 39 -9 57 -11 23z"/>
<path d="M5853 470 c0 -25 2 -35 4 -22 2 12 2 32 0 45 -2 12 -4 2 -4 -23z"/>
<path d="M5883 470 c0 -25 2 -35 4 -22 2 12 2 32 0 45 -2 12 -4 2 -4 -23z"/>
<path d="M2853 484 c-8 -20 10 -37 33 -31 15 4 14 5 -5 6 -18 1 -22 5 -18 21
6 24 -1 27 -10 4z"/>
<path d="M2910 480 c0 -24 26 -38 42 -22 8 8 4 9 -12 5 -20 -5 -22 -3 -18 15
4 12 2 22 -3 22 -5 0 -9 -9 -9 -20z"/>
<path d="M2945 490 c3 -5 8 -10 11 -10 2 0 4 5 4 10 0 6 -5 10 -11 10 -5 0 -7
-4 -4 -10z"/>
<path d="M2982 475 c0 -16 2 -22 5 -12 2 9 2 23 0 30 -3 6 -5 -1 -5 -18z"/>
<path d="M3011 478 c12 -27 29 -38 29 -19 0 5 3 18 6 28 5 17 5 17 -6 0 -11
-18 -12 -18 -26 0 -13 16 -13 15 -3 -9z"/>
<path d="M3064 485 c-8 -19 3 -35 26 -35 21 0 35 29 21 43 -6 6 -9 2 -8 -9 1
-11 -6 -20 -17 -22 -15 -3 -18 0 -13 17 6 24 -1 29 -9 6z"/>
<path d="M3132 475 c0 -16 2 -22 5 -12 2 9 2 23 0 30 -3 6 -5 -1 -5 -18z"/>
<path d="M3204 475 c1 -13 9 -21 24 -23 19 -3 22 1 21 25 -2 23 -2 24 -6 6 -5
-27 -30 -31 -36 -5 -3 13 -4 12 -3 -3z"/>
<path d="M3270 475 c0 -14 2 -25 4 -25 2 0 6 11 8 25 3 14 1 25 -3 25 -5 0 -9
-11 -9 -25z"/>
<path d="M3340 490 c0 -5 -7 -10 -15 -10 -8 0 -15 -7 -15 -15 0 -8 5 -15 11
-15 5 0 7 5 4 10 -3 6 -2 10 4 10 5 0 12 -6 14 -12 3 -7 6 -1 6 15 1 15 -1 27
-4 27 -3 0 -5 -4 -5 -10z"/>
<path d="M3368 471 c-6 -41 16 -62 39 -38 15 15 15 17 -7 25 -19 7 -20 10 -7
15 10 4 17 12 17 19 0 9 -3 9 -10 -2 -8 -12 -12 -13 -19 -1 -6 9 -10 4 -13
-18z m34 -33 c-9 -9 -15 -9 -24 0 -9 9 -7 12 12 12 19 0 21 -3 12 -12z"/>
<path d="M3426 491 c-11 -17 6 -41 28 -40 20 0 20 1 -3 10 -15 6 -21 15 -17
24 6 16 0 20 -8 6z"/>
<path d="M5058 488 c-6 -16 3 -58 11 -58 4 0 5 16 3 35 -4 37 -8 43 -14 23z"/>
<path d="M5320 480 c0 -5 5 -10 10 -10 6 0 10 5 10 10 0 6 -4 10 -10 10 -5 0
-10 -4 -10 -10z"/>
<path d="M4726 471 c-11 -17 6 -41 28 -40 20 0 20 1 -3 10 -15 6 -21 15 -17
24 6 16 0 20 -8 6z"/>
<path d="M4817 465 c3 -11 8 -24 11 -29 6 -10 32 22 32 38 0 6 -5 3 -11 -7
-10 -18 -11 -18 -25 0 -13 17 -14 17 -7 -2z"/>
<path d="M4873 464 c-8 -20 10 -37 33 -31 15 4 14 5 -5 6 -18 1 -22 5 -18 21
6 24 -1 27 -10 4z"/>
<path d="M4905 470 c3 -5 8 -10 11 -10 2 0 4 5 4 10 0 6 -5 10 -11 10 -5 0 -7
-4 -4 -10z"/>
<path d="M4933 445 c1 -22 7 -39 15 -41 7 -1 8 0 2 3 -5 2 -10 9 -10 14 0 14
28 11 33 -3 3 -8 6 -6 6 5 1 11 -7 17 -21 18 -16 1 -18 3 -6 6 9 2 19 11 22
19 7 17 -10 19 -17 2 -4 -10 -8 -10 -15 1 -7 10 -10 3 -9 -24z"/>
<path d="M4994 455 c1 -12 9 -21 21 -22 14 -1 15 0 3 3 -9 3 -19 13 -21 22 -3
12 -4 11 -3 -3z"/>
<path d="M5130 470 c0 -5 -7 -10 -15 -10 -8 0 -15 -7 -15 -15 0 -8 5 -15 11
-15 5 0 7 5 4 10 -3 6 -2 10 4 10 5 0 12 -6 14 -12 3 -7 6 -1 6 15 1 15 -1 27
-4 27 -3 0 -5 -4 -5 -10z"/>
<path d="M5192 455 c0 -16 2 -22 5 -12 2 9 2 23 0 30 -3 6 -5 -1 -5 -18z"/>
<path d="M5210 470 c0 -6 8 -14 17 -17 15 -6 15 -7 -3 -14 -16 -6 -16 -8 -2
-8 26 -1 29 14 7 32 -10 9 -19 12 -19 7z"/>
<path d="M5290 470 c0 -5 -7 -10 -15 -10 -8 0 -15 -7 -15 -15 0 -8 9 -15 20
-15 15 0 20 7 20 25 0 14 -2 25 -5 25 -3 0 -5 -4 -5 -10z"/>
<path d="M5372 455 c0 -16 2 -22 5 -12 2 9 2 23 0 30 -3 6 -5 -1 -5 -18z"/>
<path d="M5394 465 c-8 -19 3 -35 26 -35 21 0 35 29 21 43 -6 6 -9 2 -8 -9 1
-11 -6 -20 -17 -22 -15 -3 -18 0 -13 17 6 24 -1 29 -9 6z"/>
<path d="M5460 455 c0 -14 2 -25 4 -25 2 0 6 11 8 25 3 14 1 25 -3 25 -5 0 -9
-11 -9 -25z"/>
<path d="M5502 455 c0 -16 2 -22 5 -12 2 9 2 23 0 30 -3 6 -5 -1 -5 -18z"/>
<path d="M5560 469 c0 -5 5 -7 10 -4 6 3 10 8 10 11 0 2 -4 4 -10 4 -5 0 -10
-5 -10 -11z"/>
<path d="M5634 455 c1 -12 9 -21 21 -22 14 -1 15 0 3 3 -9 3 -19 13 -21 22 -3
12 -4 11 -3 -3z"/>
<path d="M5660 470 c0 -5 5 -10 11 -10 5 0 7 5 4 10 -3 6 -8 10 -11 10 -2 0
-4 -4 -4 -10z"/>
<path d="M5690 471 c0 -5 5 -13 11 -17 8 -4 7 -9 -2 -15 -11 -7 -10 -9 4 -9
21 0 22 16 2 36 -8 9 -15 11 -15 5z"/>
<path d="M5767 465 c3 -11 8 -24 11 -29 6 -10 32 22 32 38 0 6 -5 3 -11 -7
-10 -18 -11 -18 -25 0 -13 17 -14 17 -7 -2z"/>
<path d="M5822 455 c0 -16 2 -22 5 -12 2 9 2 23 0 30 -3 6 -5 -1 -5 -18z"/>
<path d="M5906 471 c-11 -17 6 -41 28 -40 20 0 20 1 -3 10 -15 6 -21 15 -17
24 6 16 0 20 -8 6z"/>
<path d="M5970 471 c0 -5 5 -13 11 -17 8 -4 7 -9 -2 -15 -11 -7 -10 -9 4 -9
21 0 22 16 2 36 -8 9 -15 11 -15 5z"/>
<path d="M1239 241 c7 -5 11 -13 7 -19 -3 -6 -1 -14 5 -18 6 -3 15 0 20 7 16
25 9 39 -18 39 -20 0 -24 -3 -14 -9z"/>
<path d="M1511 224 c-6 -15 -9 -29 -6 -32 3 -4 8 4 12 16 6 25 23 30 23 8 0
-8 4 -17 10 -21 5 -3 5 7 -1 25 -13 37 -22 38 -38 4z"/>
<path d="M1571 222 c-1 -29 2 -33 21 -30 12 2 23 9 24 16 1 7 0 8 -3 2 -10
-20 -32 -9 -36 18 -4 25 -4 24 -6 -6z"/>
<path d="M1640 220 c0 -16 4 -30 8 -30 5 0 7 14 4 30 -2 17 -6 30 -8 30 -2 0
-4 -13 -4 -30z"/>
<path d="M1681 218 c1 -25 3 -27 6 -10 4 19 7 21 19 11 17 -14 19 2 2 19 -20
20 -28 14 -27 -20z"/>
<path d="M1726 223 c10 -40 14 -41 14 -5 0 18 -5 32 -10 32 -6 0 -8 -11 -4
-27z"/>
<path d="M1761 223 c-1 -25 3 -33 17 -33 11 0 13 3 6 8 -7 4 -14 18 -17 32 -4
21 -4 20 -6 -7z"/>
<path d="M5315 241 c-4 -7 4 -11 19 -11 17 0 26 -6 29 -22 4 -16 5 -13 4 7 -2
22 -7 31 -24 33 -11 2 -24 -2 -28 -7z"/>
<path d="M5411 220 c0 -25 2 -30 8 -17 4 10 10 18 14 18 22 -3 27 1 27 15 0
13 -3 14 -13 5 -10 -8 -17 -7 -25 1 -9 9 -12 4 -11 -22z"/>
<path d="M5752 220 c0 -19 2 -27 5 -17 2 9 2 25 0 35 -3 9 -5 1 -5 -18z"/>
<path d="M5879 243 c0 -5 -2 -18 -3 -30 -2 -13 1 -23 6 -23 4 0 8 14 8 30 0
26 -8 44 -11 23z"/>
<path d="M5970 220 c0 -16 4 -30 8 -30 5 0 7 14 4 30 -2 17 -6 30 -8 30 -2 0
-4 -13 -4 -30z"/>
<path d="M6238 223 c5 -21 7 -23 10 -9 2 10 0 22 -6 28 -6 6 -7 0 -4 -19z"/>
<path d="M1410 228 c0 -11 48 -10 54 1 3 4 -8 8 -24 7 -17 -1 -30 -4 -30 -8z"/>
<path d="M5070 230 c0 -5 23 -10 50 -10 38 0 50 -4 50 -15 0 -9 9 -15 25 -15
16 0 25 6 25 15 0 9 -9 15 -25 15 -14 0 -25 5 -25 10 0 6 -22 10 -50 10 -27 0
-50 -4 -50 -10z m137 -26 c-3 -3 -12 -4 -19 -1 -8 3 -5 6 6 6 11 1 17 -2 13
-5z"/>
<path d="M5530 215 c0 -14 4 -25 9 -25 4 0 6 11 3 25 -2 14 -6 25 -8 25 -2 0
-4 -11 -4 -25z"/>
<path d="M1846 218 c3 -5 10 -6 15 -3 13 9 11 12 -6 12 -8 0 -12 -4 -9 -9z"/>
<path d="M5474 219 c-3 -6 -1 -16 5 -22 8 -8 11 -5 11 11 0 24 -5 28 -16 11z"/>
<path d="M5500 220 c0 -5 5 -10 11 -10 5 0 7 5 4 10 -3 6 -8 10 -11 10 -2 0
-4 -4 -4 -10z"/>
<path d="M5560 210 c0 -11 2 -20 4 -20 2 0 6 9 9 20 3 11 1 20 -4 20 -5 0 -9
-9 -9 -20z"/>
<path d="M5592 213 c2 -10 11 -19 21 -21 12 -3 17 3 16 20 -1 17 -3 18 -6 6
-2 -10 -9 -18 -15 -18 -5 0 -8 7 -4 15 3 8 1 15 -5 15 -6 0 -9 -8 -7 -17z"/>
<path d="M5674 210 c0 -13 4 -16 10 -10 7 7 7 13 0 20 -6 6 -10 3 -10 -10z"/>
<path d="M5702 213 c4 -23 32 -23 34 0 1 12 1 13 -3 2 -2 -8 -9 -15 -15 -15
-5 0 -8 7 -4 15 3 8 1 15 -5 15 -6 0 -9 -8 -7 -17z"/>
<path d="M5774 219 c-3 -6 -2 -15 3 -20 5 -5 9 -1 10 11 2 22 -2 25 -13 9z"/>
<path d="M5844 219 c-3 -6 -2 -15 3 -20 5 -5 9 -1 9 11 0 23 -2 24 -12 9z"/>
<path d="M5903 216 c1 -11 9 -21 17 -23 10 -3 11 -2 4 4 -6 4 -14 15 -17 23
-5 11 -6 9 -4 -4z"/>
<path d="M5920 220 c0 -5 5 -10 11 -10 5 0 7 5 4 10 -3 6 -8 10 -11 10 -2 0
-4 -4 -4 -10z"/>
<path d="M6013 205 l2 -30 -360 -5 -360 -5 485 -1 c267 0 430 3 363 6 l-121 5
12 24 c11 19 14 21 19 7 7 -18 32 -21 43 -5 3 6 1 16 -5 22 -9 9 -11 8 -6 -5
5 -13 2 -18 -10 -18 -11 0 -15 5 -12 14 6 14 -9 16 -30 3 -6 -4 -14 -1 -16 5
-3 7 -4 0 -4 -17z"/>
<path d="M6112 210 c0 -14 2 -19 5 -12 2 6 2 18 0 25 -3 6 -5 1 -5 -13z"/>
<path d="M6137 210 c3 -11 7 -20 9 -20 2 0 4 9 4 20 0 11 -4 20 -9 20 -5 0 -7
-9 -4 -20z"/>
<path d="M6210 220 c-9 -6 -10 -10 -3 -10 6 0 15 5 18 10 8 12 4 12 -15 0z"/>
<path d="M5340 209 c0 -5 -4 -7 -10 -4 -5 3 -10 1 -10 -4 0 -6 7 -11 15 -11 8
0 15 7 15 15 0 8 -2 15 -5 15 -3 0 -5 -5 -5 -11z"/>
<path d="M1837 198 c2 -5 13 -8 23 -8 10 0 21 3 23 8 3 4 -8 7 -23 7 -15 0
-26 -3 -23 -7z"/>
<path d="M1423 193 c9 -2 23 -2 30 0 6 3 -1 5 -18 5 -16 0 -22 -2 -12 -5z"/>
<path d="M4402 13 c37 -2 100 -2 140 0 40 1 10 3 -67 3 -77 0 -110 -1 -73 -3z"/>
</g>
</svg>
