<svg width="120" height="120" viewBox="0 0 120 120" fill="none" xmlns="http://www.w3.org/2000/svg">
<path fill-rule="evenodd" clip-rule="evenodd" d="M93 38C92.4486 38 92 37.5514 92 37C92 36.4486 92.4486 36 93 36C93.5514 36 94 36.4486 94 37C94 37.5514 93.5514 38 93 38Z" fill="#ECECFE"/>
<path fill-rule="evenodd" clip-rule="evenodd" d="M27 38C26.4486 38 26 37.5514 26 37C26 36.4486 26.4486 36 27 36C27.5514 36 28 36.4486 28 37C28 37.5514 27.5514 38 27 38Z" fill="#ECECFE"/>
<path fill-rule="evenodd" clip-rule="evenodd" d="M31 88C30.4486 88 30 87.5514 30 87C30 86.4486 30.4486 86 31 86C31.5514 86 32 86.4486 32 87C32 87.5514 31.5514 88 31 88Z" fill="#ECECFE"/>
<path fill-rule="evenodd" clip-rule="evenodd" d="M39 26C38.4486 26 38 25.5514 38 25C38 24.4485 38.4486 24 39 24C39.5514 24 40 24.4485 40 25C40 25.5514 39.5514 26 39 26Z" fill="#ECECFE"/>
<path fill-rule="evenodd" clip-rule="evenodd" d="M75 98C74.4486 98 74 97.5514 74 97C74 96.4486 74.4486 96 75 96C75.5514 96 76 96.4486 76 97C76 97.5514 75.5514 98 75 98Z" fill="#ECECFE"/>
<path d="M74.0369 60.7318C74.185 60.1997 74.7364 59.8885 75.2684 60.0367C77.608 60.6881 79.4016 62.523 79.8764 64.7982C79.9892 65.3389 79.6424 65.8686 79.1018 65.9814C78.5612 66.0943 78.0314 65.7475 77.9186 65.2068C77.6 63.6804 76.3666 62.4185 74.732 61.9633C74.1999 61.8152 73.8887 61.2638 74.0369 60.7318Z" fill="#E1000F"/>
<path fill-rule="evenodd" clip-rule="evenodd" d="M64 66C64 60.4848 68.485 56 74 56C79.515 56 84 60.4848 84 66C84 68.5661 83.0289 70.9093 81.4349 72.6814L87.3301 82.8923C88.1586 84.3272 87.6669 86.162 86.2321 86.9904C84.8484 87.7892 83.0929 87.3606 82.2265 86.0424L82.134 85.8923L76.2724 75.7397C75.5421 75.91 74.7814 76 74 76C68.4851 76 64 71.5149 64 66ZM78.1984 75.0757L83.866 84.8923C84.1422 85.3706 84.7538 85.5345 85.2321 85.2583C85.6762 85.0019 85.8492 84.4563 85.6506 83.9967L85.5981 83.8923L79.9191 74.056C79.3836 74.4505 78.8076 74.7929 78.1984 75.0757ZM82 66C82 61.5894 78.4105 58 74 58C69.5895 58 66 61.5894 66 66C66 70.4103 69.5897 74 74 74C78.4103 74 82 70.4103 82 66Z" fill="#E1000F"/>
<path d="M88.9933 37.8834C88.9355 37.386 88.5128 37 88 37H34L33.8834 37.0067C33.386 37.0645 33 37.4872 33 38V84L33.0067 84.1166C33.0645 84.614 33.4872 85 34 85H76L76.1166 84.9933C76.614 84.9355 77 84.5128 77 84L76.9933 83.8834C76.9355 83.386 76.5128 83 76 83H35V47H72L72.1166 46.9933C72.614 46.9355 73 46.5128 73 46C73 45.4477 72.5523 45 72 45H35V39H87V45H78L77.8834 45.0067C77.386 45.0645 77 45.4872 77 46C77 46.5523 77.4477 47 78 47H87V76L87.0067 76.1166C87.0645 76.614 87.4872 77 88 77C88.5523 77 89 76.5523 89 76V38L88.9933 37.8834Z" fill="#000091"/>
<path d="M38 43C37.4486 43 37 42.5514 37 42C37 41.4486 37.4486 41 38 41C38.5514 41 39 41.4486 39 42C39 42.5514 38.5514 43 38 43Z" fill="#000091"/>
<path d="M41 42C41 42.5514 41.4486 43 42 43C42.5514 43 43 42.5514 43 42C43 41.4486 42.5514 41 42 41C41.4486 41 41 41.4486 41 42Z" fill="#000091"/>
<path d="M46 43C45.4486 43 45 42.5514 45 42C45 41.4486 45.4486 41 46 41C46.5514 41 47 41.4486 47 42C47 42.5514 46.5514 43 46 43Z" fill="#000091"/>
<path d="M84 41C84.5523 41 85 41.4477 85 42C85 42.5128 84.614 42.9355 84.1166 42.9933L84 43H54C53.4477 43 53 42.5523 53 42C53 41.4872 53.386 41.0645 53.8834 41.0067L54 41H84Z" fill="#000091"/>
<path d="M61 54C61 53.4477 60.5523 53 60 53H42L41.8834 53.0067C41.386 53.0645 41 53.4872 41 54C41 54.5523 41.4477 55 42 55H60L60.1166 54.9933C60.614 54.9355 61 54.5128 61 54Z" fill="#000091"/>
<path d="M56 59C56.5523 59 57 59.4477 57 60C57 60.5128 56.614 60.9355 56.1166 60.9933L56 61H42C41.4477 61 41 60.5523 41 60C41 59.4872 41.386 59.0645 41.8834 59.0067L42 59H56Z" fill="#000091"/>
<path d="M55 66C55 65.4477 54.5523 65 54 65H42L41.8834 65.0067C41.386 65.0645 41 65.4872 41 66C41 66.5523 41.4477 67 42 67H54L54.1166 66.9933C54.614 66.9355 55 66.5128 55 66Z" fill="#000091"/>
</svg>
