<svg width="120" height="120" viewBox="0 0 120 120" fill="none" xmlns="http://www.w3.org/2000/svg">
<path fill-rule="evenodd" clip-rule="evenodd" d="M83 25C82.4486 25 82 24.5514 82 24C82 23.4485 82.4486 23 83 23C83.5514 23 84 23.4485 84 24C84 24.5514 83.5514 25 83 25Z" fill="#ECECFE"/>
<path fill-rule="evenodd" clip-rule="evenodd" d="M47 97C46.4486 97 46 96.5514 46 96C46 95.4486 46.4486 95 47 95C47.5514 95 48 95.4486 48 96C48 96.5514 47.5514 97 47 97Z" fill="#ECECFE"/>
<path fill-rule="evenodd" clip-rule="evenodd" d="M37 33C36.4486 33 36 32.5514 36 32C36 31.4486 36.4486 31 37 31C37.5514 31 38 31.4486 38 32C38 32.5514 37.5514 33 37 33Z" fill="#ECECFE"/>
<path fill-rule="evenodd" clip-rule="evenodd" d="M69.1665 32.2494C68.8186 31.1568 68.4203 30.4137 67.8383 30.0503C66.7837 29.3917 65.8917 30.076 65.3846 31.3462L65.2937 31.5663C64.8394 32.6268 64.3756 33.109 63.2982 33.8754L62.8161 34.2231C61.807 34.9746 61.1823 35.6475 60.5707 36.7887C59.1254 39.4852 59.6346 42.9242 61.4804 44.5291C61.1813 45.1637 60.8935 45.8461 60.6167 46.5764C60.0469 45.5446 59.2026 44.6101 58.1358 43.9484C57.0355 43.2659 56.158 42.9956 54.9084 42.8493L54.317 42.7893C53.0008 42.6642 52.358 42.4785 51.4343 41.7872L51.2455 41.6421C50.1713 40.7956 49.0566 40.649 48.4726 41.7466C48.1503 42.3524 48.1769 43.1951 48.4219 44.3152C48.8292 46.1775 49.858 48.6497 50.9118 50.2622C52.7253 53.0372 56.1002 54.3063 58.6201 53.5244C57.6028 58.3229 57.3975 62.863 58.0087 67.1414C58.0868 67.6882 58.5934 68.0681 59.1401 67.99C59.6868 67.9119 60.0667 67.4053 59.9886 66.8586C59.501 63.4453 59.5646 59.8409 60.1821 56.0432C60.3968 56.463 60.693 56.8437 61.0756 57.1647C63.4104 59.1239 67.5464 58.2652 69.4659 55.2559C70.3696 53.8391 71.2114 51.6546 71.5102 49.9897C71.6913 48.9802 71.6817 48.2054 71.3588 47.6402C70.7866 46.6386 69.7311 46.7296 68.7452 47.4772L68.5764 47.6015C67.8062 48.1513 67.2576 48.2836 66.1014 48.3414L65.5443 48.3732C64.4126 48.4566 63.6139 48.6686 62.6258 49.2445C62.2369 49.4711 61.8833 49.7393 61.5676 50.0389C62.0987 48.2419 62.6736 46.6895 63.2889 45.3827C66.4529 45.8938 69.762 42.6531 69.9837 38.6446C70.0901 36.7212 69.7449 34.0658 69.1665 32.2494ZM65.7058 41.7071C65.2457 42.1672 64.8009 42.7313 64.3723 43.3992C66.076 43.1038 67.8473 41.0563 67.9868 38.5341C68.0796 36.8553 67.766 34.4428 67.2608 32.8562L67.1556 32.5476L67.1057 32.4147L67.0091 32.6295C66.4556 33.8181 65.8153 34.5086 64.7032 35.3275L64.2207 35.6738C63.2955 36.3367 62.8259 36.8146 62.3334 37.7334C61.4061 39.4636 61.6304 41.5684 62.4707 42.6702C63.0412 41.7292 63.6476 40.9369 64.2916 40.2929C64.6821 39.9024 65.3153 39.9024 65.7058 40.2929C66.0963 40.6834 66.0963 41.3166 65.7058 41.7071ZM50.2885 43.427L50.4804 43.5657C51.554 44.3184 52.4537 44.5961 53.8263 44.7493L54.4173 44.808C55.55 44.9194 56.1957 45.0985 57.0815 45.648C58.7848 46.7045 59.6437 48.6995 59.4185 50.078L56.5534 48.168C56.0939 47.8616 55.473 47.9858 55.1666 48.4453C54.8822 48.872 54.9689 49.4378 55.3507 49.7618L55.444 49.8321L58.0889 51.5953C56.4633 52.1483 53.951 51.2568 52.586 49.1681C51.6661 47.7606 50.7315 45.5145 50.3757 43.8879L50.3126 43.568L50.2885 43.427ZM69.59 49.3329L69.5278 49.3749C68.564 50.0178 67.7421 50.2369 66.4965 50.3216L65.941 50.3521C64.9404 50.4055 64.3841 50.5346 63.6328 50.9725C62.5665 51.5939 61.9255 52.6797 61.7783 53.686L63.6825 53.0513L63.7952 53.0208C64.2853 52.9184 64.7852 53.1973 64.9474 53.6838C65.122 54.2077 64.8389 54.7741 64.3149 54.9487L62.3338 55.6091C62.3428 55.617 62.3519 55.6249 62.3611 55.6326C63.7312 56.7822 66.4847 56.2106 67.7797 54.1803C68.5413 52.9864 69.2883 51.0476 69.5416 49.6364C69.5603 49.5323 69.5754 49.4339 69.59 49.3329Z" fill="#E1000F"/>
<path d="M42.174 45.0149C44.5634 45.4362 46.4429 48.5774 45.9852 51.1733C45.8893 51.7172 45.3706 52.0804 44.8268 51.9845C44.2829 51.8886 43.9197 51.3699 44.0156 50.826C44.2917 49.26 43.0603 47.202 41.8268 46.9845C40.4513 46.742 38.9163 47.6443 38.5724 49.0137L38.5381 49.1738L33.9855 67.1796L33.9683 67.3384C33.8351 68.8473 34.4473 70.8423 35.772 73.4971L36.0908 74.1228L36.3703 74.6533L36.8332 75.5045L37.3703 76.4642L38.3429 78.1792L39.0213 79.3883L39.7439 80.7044L40.1143 81.4002L40.4396 82.0326L40.722 82.6074L40.8874 82.9614L41.0352 83.2942L41.166 83.6073L41.2804 83.9025L41.3789 84.1815L41.4623 84.4461C41.475 84.489 41.487 84.5315 41.4985 84.5734L41.5602 84.8194C41.5693 84.8595 41.5778 84.8992 41.5858 84.9385L41.6272 85.1698L41.6557 85.3935L41.672 85.6112L41.6767 85.8247L41.6715 86H52.0002C52.0002 85.9257 52.0086 85.8502 52.0261 85.7747C53.3867 79.8925 50.9819 73.9038 47.4418 71.5972L47.2414 71.4632C44.5549 69.6208 44.0335 67.2913 44.8048 63.0374L44.9268 62.401C44.9487 62.2926 44.9713 62.183 44.9946 62.0722L45.1103 61.543L45.386 60.2018C45.6288 59.0594 44.6714 57.165 43.7925 56.9781C42.8063 56.7685 42.1971 57.1794 41.9821 58.1905L41.049 62.9531L40.4474 65.9511L40.0805 67.7262L39.9784 68.2085C39.7297 69.3751 40.5311 71.483 42.4343 74.4155L42.859 75.0565C43.0062 75.2743 43.1591 75.4963 43.3176 75.7225L43.8101 76.4131C44.1342 76.8603 44.0344 77.4856 43.5872 77.8097C43.1401 78.1338 42.5148 78.034 42.1907 77.5869L41.9273 77.2205L41.4253 76.505L40.9567 75.8119C38.697 72.4027 37.6897 69.8306 37.9882 67.9747L38.0224 67.7915L38.3591 66.1801L39.0068 62.9689L39.9197 58.3198L40.0222 57.7921C40.4673 55.6982 42.1261 54.5793 44.2083 55.0219C46.2139 55.4482 47.7097 58.3068 47.3777 60.4261L47.3436 60.6111L47.1083 61.7558C47.1045 61.7819 47.0997 61.808 47.0938 61.8341L47.0688 61.9482L46.9137 62.7029C46.906 62.7403 46.8963 62.7769 46.8847 62.8124L46.8313 63.0752L46.7264 63.6449L46.6397 64.1827C46.1877 67.2294 46.6862 68.7178 48.5336 69.9215L48.7556 70.0708C52.8263 72.8945 55.437 79.4905 54.0252 86H57.0004C57.5527 86 58.0004 86.4477 58.0004 87C58.0004 87.5128 57.6143 87.9355 57.117 87.9933L57.0004 88H37.0004C36.4481 88 36.0004 87.5523 36.0004 87C36.0004 86.4872 36.3864 86.0645 36.8837 86.0067L37.0004 86H39.6488L39.6508 85.9199L39.6444 85.7536L39.6267 85.5791L39.5972 85.395L39.5553 85.1999L39.5005 84.9922L39.4321 84.7706L39.3496 84.5336L39.2524 84.2797L39.0778 83.8641L38.9413 83.5617L38.7881 83.2374L38.5256 82.7065L38.2222 82.1181L37.8759 81.4672L37.344 80.4937L36.3866 78.7835L35.4351 77.1041L34.9135 76.164L34.4571 75.3145L34.1766 74.7743C32.5538 71.603 31.7813 69.1859 31.9798 67.1201L32.0097 66.8637L32.0309 66.7546L36.5838 48.7551C37.0301 46.2238 39.7073 44.5799 42.174 45.0149Z" fill="#000091"/>
<path d="M74.2043 51.1733C73.7465 48.5774 75.6261 45.4362 78.0154 45.0149C80.4822 44.5799 83.1594 46.2238 83.6057 48.7551L88.1586 66.7546L88.1798 66.8637L88.2082 67.1076C88.4131 69.2353 87.5381 71.7456 85.7066 75.1043L85.3888 75.6791L85.0492 76.2775L84.4776 77.2585L83.4677 78.9557L82.7828 80.1153L82.1838 81.1448L81.6663 82.0545L81.2259 82.8549L80.9435 83.3896L80.7 83.8732L80.4936 84.3098L80.3758 84.577L80.273 84.8267L80.1848 85.0601L80.1105 85.2785L80.0497 85.4832L80.0018 85.6756L79.9662 85.8568L79.9463 86H83L83.1166 86.0067C83.6139 86.0645 84 86.4872 84 87C84 87.5523 83.5523 88 83 88H63L62.8833 87.9933C62.386 87.9355 62 87.5128 62 87C62 86.4477 62.4477 86 63 86H66.1606C64.7488 79.4905 67.3595 72.8945 71.4302 70.0708L71.6522 69.9215C73.4996 68.7178 73.9981 67.2294 73.5461 64.1827L73.4594 63.6449L73.3545 63.0752C73.3384 62.9919 73.3217 62.9077 73.3044 62.8224C73.2914 62.7838 73.2806 62.7439 73.2721 62.7029L73.1098 61.9131L73.092 61.8341C73.0861 61.808 73.0812 61.7818 73.0775 61.7558L72.8422 60.6111L72.8081 60.4261C72.4761 58.3068 73.9719 55.4482 75.9775 55.0219C78.0597 54.5793 79.7185 55.6982 80.1636 57.7921L80.3328 58.7987L80.8068 61.5616L81.1633 63.5709L81.3606 64.6492L81.6043 65.939L81.7726 66.7958L81.978 67.7915C82.3764 69.6601 81.3787 72.289 79.0437 75.8119L78.575 76.505L78.0731 77.2205L77.8097 77.5869C77.4855 78.034 76.8603 78.1338 76.4131 77.8097C75.9659 77.4856 75.8662 76.8603 76.1903 76.4131C76.2752 76.296 76.3587 76.1798 76.4408 76.0647L76.9163 75.3864L77.3579 74.7329C79.4106 71.6348 80.2796 69.4167 80.022 68.2085L79.9164 67.7044L79.6879 66.5621L79.3699 64.8827L79.0895 63.3378L78.6256 60.6844L78.1991 58.1649C77.9887 57.1794 77.3795 56.7685 76.3933 56.9781C75.5144 57.165 74.557 59.0594 74.7998 60.2018L75.0756 61.5432L75.1912 62.0722L75.3222 62.7227C76.1764 67.1774 75.6964 69.5758 72.9444 71.4632L72.744 71.5972C69.2039 73.9038 66.7991 79.8925 68.1597 85.7747C68.1772 85.8502 68.1856 85.9257 68.1856 86H77.9051L77.9065 85.9514L77.924 85.7362C77.9279 85.6999 77.9323 85.6634 77.9373 85.6265L77.9736 85.402L78.0233 85.1693L78.0869 84.9266L78.165 84.6723C78.1936 84.5854 78.2247 84.4963 78.2584 84.4048L78.3675 84.1223L78.4931 83.8233L78.6357 83.5061L78.796 83.169L79.0709 82.6224L79.2781 82.2284L79.6263 81.5886L80.1635 80.6359L80.7889 79.5572L82.9489 75.9124L83.4804 74.9914L83.7987 74.4235L84.1435 73.7894C85.6527 70.9606 86.3556 68.8704 86.2197 67.3259L86.2039 67.1797L81.6514 49.1738L81.6171 49.0137C81.2732 47.6443 79.7382 46.742 78.3627 46.9845C77.1291 47.202 75.8978 49.26 76.1739 50.826C76.2698 51.3699 75.9066 51.8886 75.3627 51.9845C74.8188 52.0804 74.3002 51.7172 74.2043 51.1733Z" fill="#000091"/>
<path d="M75.1992 80C75.7515 80 76.1992 79.5523 76.1992 79C76.1992 78.4477 75.7515 78 75.1992 78C74.6469 78 74.1992 78.4477 74.1992 79C74.1992 79.5523 74.6469 80 75.1992 80Z" fill="#000091"/>
</svg>
