<svg width="108" height="112" viewBox="0 0 108 112" fill="none" xmlns="http://www.w3.org/2000/svg">
<path fill-rule="evenodd" clip-rule="evenodd" d="M87 34C86.4486 34 86 33.5514 86 33C86 32.4486 86.4486 32 87 32C87.5514 32 88 32.4486 88 33C88 33.5514 87.5514 34 87 34Z" fill="#ECECFE"/>
<path fill-rule="evenodd" clip-rule="evenodd" d="M21 34C20.4486 34 20 33.5514 20 33C20 32.4486 20.4486 32 21 32C21.5514 32 22 32.4486 22 33C22 33.5514 21.5514 34 21 34Z" fill="#ECECFE"/>
<path fill-rule="evenodd" clip-rule="evenodd" d="M25 84C24.4486 84 24 83.5514 24 83C24 82.4486 24.4486 82 25 82C25.5514 82 26 82.4486 26 83C26 83.5514 25.5514 84 25 84Z" fill="#ECECFE"/>
<path fill-rule="evenodd" clip-rule="evenodd" d="M33 22C32.4486 22 32 21.5514 32 21C32 20.4485 32.4486 20 33 20C33.5514 20 34 20.4485 34 21C34 21.5514 33.5514 22 33 22Z" fill="#ECECFE"/>
<path fill-rule="evenodd" clip-rule="evenodd" d="M69 94C68.4486 94 68 93.5514 68 93C68 92.4486 68.4486 92 69 92C69.5514 92 70 92.4486 70 93C70 93.5514 69.5514 94 69 94Z" fill="#ECECFE"/>
<path d="M68.0369 56.7318C68.185 56.1997 68.7364 55.8885 69.2684 56.0367C71.608 56.6881 73.4016 58.523 73.8764 60.7982C73.9892 61.3389 73.6424 61.8686 73.1018 61.9814C72.5612 62.0943 72.0314 61.7475 71.9186 61.2068C71.6 59.6804 70.3666 58.4185 68.732 57.9633C68.1999 57.8152 67.8887 57.2638 68.0369 56.7318Z" fill="#E1000F"/>
<path fill-rule="evenodd" clip-rule="evenodd" d="M58 62C58 56.4848 62.485 52 68 52C73.515 52 78 56.4848 78 62C78 64.5661 77.0289 66.9093 75.4349 68.6814L81.3301 78.8923C82.1586 80.3272 81.6669 82.162 80.2321 82.9904C78.8484 83.7892 77.0929 83.3606 76.2265 82.0424L76.134 81.8923L70.2724 71.7397C69.5421 71.91 68.7814 72 68 72C62.4851 72 58 67.5149 58 62ZM72.1984 71.0757L77.866 80.8923C78.1422 81.3706 78.7538 81.5345 79.2321 81.2583C79.6762 81.0019 79.8492 80.4563 79.6506 79.9967L79.5981 79.8923L73.9191 70.056C73.3836 70.4505 72.8076 70.7929 72.1984 71.0757ZM76 62C76 57.5894 72.4105 54 68 54C63.5895 54 60 57.5894 60 62C60 66.4103 63.5897 70 68 70C72.4103 70 76 66.4103 76 62Z" fill="#E1000F"/>
<path d="M82.9933 33.8834C82.9355 33.386 82.5128 33 82 33H28L27.8834 33.0067C27.386 33.0645 27 33.4872 27 34V80L27.0067 80.1166C27.0645 80.614 27.4872 81 28 81H70L70.1166 80.9933C70.614 80.9355 71 80.5128 71 80L70.9933 79.8834C70.9355 79.386 70.5128 79 70 79H29V43H66L66.1166 42.9933C66.614 42.9355 67 42.5128 67 42C67 41.4477 66.5523 41 66 41H29V35H81V41H72L71.8834 41.0067C71.386 41.0645 71 41.4872 71 42C71 42.5523 71.4477 43 72 43H81V72L81.0067 72.1166C81.0645 72.614 81.4872 73 82 73C82.5523 73 83 72.5523 83 72V34L82.9933 33.8834Z" fill="#000091"/>
<path d="M32 39C31.4486 39 31 38.5514 31 38C31 37.4486 31.4486 37 32 37C32.5514 37 33 37.4486 33 38C33 38.5514 32.5514 39 32 39Z" fill="#000091"/>
<path d="M35 38C35 38.5514 35.4486 39 36 39C36.5514 39 37 38.5514 37 38C37 37.4486 36.5514 37 36 37C35.4486 37 35 37.4486 35 38Z" fill="#000091"/>
<path d="M40 39C39.4486 39 39 38.5514 39 38C39 37.4486 39.4486 37 40 37C40.5514 37 41 37.4486 41 38C41 38.5514 40.5514 39 40 39Z" fill="#000091"/>
<path d="M78 37C78.5523 37 79 37.4477 79 38C79 38.5128 78.614 38.9355 78.1166 38.9933L78 39H48C47.4477 39 47 38.5523 47 38C47 37.4872 47.386 37.0645 47.8834 37.0067L48 37H78Z" fill="#000091"/>
<path d="M55 50C55 49.4477 54.5523 49 54 49H36L35.8834 49.0067C35.386 49.0645 35 49.4872 35 50C35 50.5523 35.4477 51 36 51H54L54.1166 50.9933C54.614 50.9355 55 50.5128 55 50Z" fill="#000091"/>
<path d="M50 55C50.5523 55 51 55.4477 51 56C51 56.5128 50.614 56.9355 50.1166 56.9933L50 57H36C35.4477 57 35 56.5523 35 56C35 55.4872 35.386 55.0645 35.8834 55.0067L36 55H50Z" fill="#000091"/>
<path d="M49 62C49 61.4477 48.5523 61 48 61H36L35.8834 61.0067C35.386 61.0645 35 61.4872 35 62C35 62.5523 35.4477 63 36 63H48L48.1166 62.9933C48.614 62.9355 49 62.5128 49 62Z" fill="#000091"/>
</svg>
