<?xml version="1.0" encoding="UTF-8"?>
<svg id="Calque_2" data-name="Calque 2" xmlns="http://www.w3.org/2000/svg" xmlns:xlink="http://www.w3.org/1999/xlink" viewBox="0 0 800 450">
  <defs>
    <style>
      .cls-1 {
        mask: url(#mask);
      }

      .cls-2 {
        fill: #465f9d;
      }

      .cls-3 {
        fill: #fef4f3;
      }

      .cls-4 {
        fill: #27334c;
      }

      .cls-5 {
        fill: #fff;
      }

      .cls-6 {
        fill: url(#Dégradé_sans_nom);
      }

      .cls-7 {
        fill: #fcc63a;
      }
    </style>
    <linearGradient id="Dégradé_sans_nom" data-name="Dégradé sans nom" x1="356.5" y1="447.91" x2="403.79" y2="207.75" gradientTransform="translate(0 452) scale(1 -1)" gradientUnits="userSpaceOnUse">
      <stop offset="0" stop-color="#e1f3ff"/>
      <stop offset="1" stop-color="#fff"/>
    </linearGradient>
    <mask id="mask" x="342.1" y="154.83" width="236.06" height="228.76" maskUnits="userSpaceOnUse">
      <g id="mask2_187_1024" data-name="mask2 187 1024">
        <path class="cls-5" d="M523.09,238.22c-5.15-10.56-11.76-20.34-19.63-29.04-4.18-5.32-8.85-10.23-13.95-14.67-7.71-5.94-19.27-14.85-29.56-14.85-2.87.11-5.67.98-8.1,2.52-1.04.57-2.03,1.23-2.96,1.96-1.98-.98-4.06-1.74-6.21-2.26-2.76-.65-5.59-.92-8.43-.8-4.1.17-8.13,1.18-11.82,2.97-1.02.73-2.1,1.36-3.22,1.9-3.09-1.43-6.36-2.43-9.73-2.97-2.91-.08-5.8.47-8.48,1.6-2.88,1.04-5.69,2.26-8.42,3.65-6.67-5.44-13.03-11.26-19.04-17.43-4.95-6.06-11.03-11.1-17.89-14.85-1.56-.89-3.35-1.27-5.14-1.1-1.78.17-3.47.9-4.83,2.07-.97.69-1.82,1.55-2.51,2.53-.74,1.67-1.1,3.49-1.07,5.32.03,1.83.46,3.63,1.25,5.28,2.64,7.3,6.31,14.19,10.88,20.46,3.16,4.4,6.74,8.46,9.46,13.15-4.29,1.9-9.91,4.19-10.82,9.47-.17,1.89.23,3.79,1.15,5.45.92,1.66,2.32,3,4.02,3.84,3.42,1.65,7.18,2.47,10.97,2.37,2.88.21,5.79.06,8.63-.48,0,0,3.25,5.67,3.64,6.21,5.44,7.63,10.79,15.35,15.73,23.31,4.55,7.33,8.19,15.29,13.07,22.36-3.93-1.81-7.57-4.13-11.47-5.94-4-1.79-7.89-3.84-11.65-6.12-8.16-5.2-15.7-10.75-25.4-12.26-1.46-.27-2.95-.38-4.43-.33-5,.42-12.03,5.34-10.88,11.02.48,1.91,1.38,3.68,2.63,5.2,2.72,3.2,5.68,6.18,8.87,8.91,3.28,3.21,6.56,6.42,9.9,9.56,9.22,8.83,18.62,17.48,28.17,25.95,5.61,5.37,11.89,9.98,18.68,13.72,11.41,5.76,24.57,6.53,37.25,8.11,2.92.21,5.79.94,8.45,2.17,1.54.89,2.99,1.93,4.32,3.12,14.78,12.47,27.26,27.08,41.89,39.7,1.39,1.38,3.09,2.4,4.97,2.97,2.29.32,4.62-.04,6.71-1.04,22.59-8.46,46.06-23.76,57.88-45.67,1.75-3.02,2.47-6.53,2.07-10.01-.49-3.2-1.87-6.2-3.99-8.64-5.02-6.2-20.69-23.43-42.75-46.08-.18-5.68-.98-11.33-2.36-16.84-1.45-5.34-3.41-10.54-5.85-15.5Z"/>
      </g>
    </mask>
  </defs>
  <g id="Calque_1-2" data-name="Calque 1">
    <g>
      <rect class="cls-6" width="800" height="450"/>
      <g>
        <path class="cls-7" d="M310.29,139.02v-13.15c-.79-10.45-5.48-20.22-13.13-27.35-7.65-7.13-17.7-11.09-28.14-11.09s-20.49,3.96-28.14,11.09c-7.65,7.13-12.34,16.89-13.13,27.35v13.15h-5.91v65.33c.02,7.76,3.11,15.2,8.59,20.68,5.48,5.48,12.89,8.55,20.62,8.54h35.95c7.73,0,15.15-3.1,20.61-8.6,5.47-5.5,8.54-12.95,8.54-20.71v-65.33l-5.85.09ZM274.02,191.34l4.97,14.49h-20.04l4.97-14.49,1.74-5.05c-2.24-.77-4.13-2.31-5.34-4.35-1.21-2.04-1.67-4.45-1.28-6.79.39-2.35,1.59-4.48,3.4-6.01,1.81-1.54,4.09-2.38,6.46-2.38s4.66.84,6.46,2.38c1.81,1.53,3.01,3.66,3.4,6.01.39,2.34-.06,4.75-1.27,6.79-1.21,2.04-3.11,3.58-5.34,4.35l1.89,5.05ZM301.3,139.02h-64.59v-13.15c-.13-4.34.61-8.67,2.17-12.72,1.56-4.05,3.92-7.75,6.94-10.86,3.01-3.12,6.62-5.6,10.6-7.29,3.98-1.69,8.27-2.56,12.59-2.56s8.61.87,12.59,2.56c3.98,1.69,7.59,4.17,10.6,7.29,3.01,3.12,5.37,6.81,6.94,10.86,1.56,4.05,2.3,8.38,2.17,12.72v13.15Z"/>
        <path class="cls-2" d="M523.09,238.22c-5.15-10.56-11.76-20.34-19.63-29.04-4.18-5.32-8.85-10.23-13.95-14.67-7.71-5.94-19.27-14.85-29.56-14.85-2.87.11-5.67.98-8.1,2.52-1.04.57-2.03,1.23-2.96,1.96-1.98-.98-4.06-1.74-6.21-2.26-2.76-.65-5.59-.92-8.43-.8-4.1.17-8.13,1.18-11.82,2.97-1.02.73-2.1,1.36-3.22,1.9-3.09-1.43-6.36-2.43-9.73-2.97-2.91-.08-5.8.47-8.48,1.6-2.88,1.04-5.69,2.26-8.42,3.65-6.67-5.44-13.03-11.26-19.04-17.43-4.95-6.06-11.03-11.1-17.89-14.85-1.56-.89-3.35-1.27-5.14-1.1-1.78.17-3.47.9-4.83,2.07-.97.69-1.82,1.55-2.51,2.53-.74,1.67-1.1,3.49-1.07,5.32.03,1.83.46,3.63,1.25,5.28,2.64,7.3,6.31,14.19,10.88,20.46,3.16,4.4,6.74,8.46,9.46,13.15-4.29,1.9-9.91,4.19-10.82,9.47-.17,1.89.23,3.79,1.15,5.45.92,1.66,2.32,3,4.02,3.84,3.42,1.65,7.18,2.47,10.97,2.37,2.88.21,5.79.06,8.63-.48,0,0,3.25,5.67,3.64,6.21,5.44,7.63,10.79,15.35,15.73,23.31,4.55,7.33,8.19,15.29,13.07,22.36-3.93-1.81-7.57-4.13-11.47-5.94-4-1.79-7.89-3.84-11.65-6.12-8.16-5.2-15.7-10.75-25.4-12.26-1.46-.27-2.95-.38-4.43-.33-5,.42-12.03,5.34-10.88,11.02.48,1.91,1.38,3.68,2.63,5.2,2.72,3.2,5.68,6.18,8.87,8.91,3.28,3.21,6.56,6.42,9.9,9.56,9.22,8.83,18.62,17.48,28.17,25.95,5.61,5.37,11.89,9.98,18.68,13.72,11.41,5.76,24.57,6.53,37.25,8.11,2.92.21,5.79.94,8.45,2.17,1.54.89,2.99,1.93,4.32,3.12,14.78,12.47,27.26,27.08,41.89,39.7,1.39,1.38,3.09,2.4,4.97,2.97,2.29.32,4.62-.04,6.71-1.04,22.59-8.46,46.06-23.76,57.88-45.67,1.75-3.02,2.47-6.53,2.07-10.01-.49-3.2-1.87-6.2-3.99-8.64-5.02-6.2-20.69-23.43-42.75-46.08-.18-5.68-.98-11.33-2.36-16.84-1.45-5.34-3.41-10.54-5.85-15.5Z"/>
        <g class="cls-1">
          <g>
            <path class="cls-4" d="M354.2,174.74c-1.63-.26-3.1-1.13-4.11-2.44-1.1-1.25-2.08-2.59-2.96-4.01-1.07-1.51-1.8-3.23-2.16-5.05-.2-1.07-.1-2.18.3-3.19.4-1.01,1.07-1.89,1.95-2.54l1.48,2.26c-.41.36-.73.83-.91,1.35-.18.52-.24,1.08-.15,1.62.33,1.44.93,2.8,1.78,4.01.76,1.28,1.63,2.49,2.6,3.62.56.81,1.41,1.36,2.37,1.54,1.03-.15,1.99-.64,2.72-1.4,1.04-.93,2.03-1.92,2.96-2.97,1.12-1.19,1.24-1.81,1.15-2.14-.12-.29-.3-.55-.53-.77-1.16-1.39-2.46-2.65-3.87-3.77l1.71-2.11c1.52,1.24,2.94,2.61,4.23,4.1.52.43.93.98,1.19,1.6.26.62.38,1.29.34,1.97-.05.68-.25,1.33-.6,1.9-.35.58-.83,1.07-1.4,1.42-1.06,1.05-2.17,2.04-3.34,2.97-1.22,1.22-2.86,1.94-4.58,1.99l-.15.03ZM363.16,279.61l-.83-2.58c.67-.26,1.25-.7,1.68-1.28.42-.58.68-1.27.72-1.99.08-1.66-.41-3.3-1.39-4.63-1.1-1.49-2.37-2.85-3.79-4.04l-3.99-3.65c-.74-.68-1.51-1.31-2.13-1.22-.45.15-.86.39-1.21.71-1.44.84-2.56,2.13-3.19,3.68l-2.63-.68c.75-2.15,2.22-3.98,4.17-5.17.71-.62,1.56-1.05,2.48-1.25.82-.03,1.63.13,2.39.46.75.33,1.42.82,1.96,1.44l3.99,3.68c1.57,1.34,2.98,2.85,4.2,4.51,1.33,1.86,1.97,4.13,1.83,6.41-.1,1.24-.55,2.43-1.31,3.42-.76.99-1.78,1.74-2.95,2.16ZM429.68,226.55c-13.21-12.26-26.08-26.28-38.14-39.55l2.01-1.84c12,13.24,24.83,27.2,37.96,39.4l-1.83,1.99ZM455.04,217.26c-10.85-11.11-23.15-23.76-37.04-31.8l1.36-2.35c14.19,8.31,26.61,21.02,37.63,32.22l-1.95,1.93ZM470.56,204.84l-2.4-2.73c-5.91-6.77-12.24-13.81-19.9-18.23l1.33-2.35c8.07,4.63,14.43,11.88,20.69,18.8l2.39,2.7-2.13,1.81Z"/>
            <path class="cls-4" d="M361.08,204.18l2.19-1.57,11.61,16.27-2.19,1.57-11.61-16.27Z"/>
            <g>
              <path class="cls-3" d="M560.26,337.22c-.47-.1-.95-.1-1.42,0-.92,0-1.8.24-2.72.42-.49.05-.94.24-1.33.53-.38.49-.6,1.1-.62,1.72,0,.44,0,1.04.33,1.31.16.08.33.13.5.15.39.06.79.06,1.18,0,.36-.07.71-.2,1.03-.39l3.1-1.54c1.03-.42,1.21-1.81-.06-2.2ZM545.3,354.06c-1.12,0-2.22.37-3.1,1.07-.88.69-1.68,1.46-2.4,2.32-.35.38-.65.81-.89,1.28-.1.23-.16.49-.16.74s.05.51.16.74c.24.35.58.62.98.77.4.15.83.17,1.24.06,1.47-.34,2.79-1.15,3.75-2.31.77-.89,3.08-4.54.42-4.66ZM534.71,312.55c-.18-.03-.36-.01-.53.05-.17.07-.32.17-.43.32s-.18.32-.21.5c-.02.18,0,.36.07.53.17.28.41.5.69.66.29.16.61.24.93.23,1.92.06.53-2.02-.53-2.28ZM513.07,353.02l-.21-.62c-.21-.62-.47-1.34-1.12-1.48-.29-.03-.58.02-.83.16-.25.14-.46.35-.59.61-.12.17-.19.36-.22.56-.03.2-.01.41.05.6.21.48.77.68,1.18,1.04.41.36.8,1.07,1.42.83.62-.24.5-1.16.33-1.69ZM564.48,349.57c-.24-.14-.52-.21-.8-.21-.13,0-.26.03-.38.1-.12.07-.21.17-.27.28-.05.07-.08.15-.08.24s.03.17.08.24c.14.05.28.05.42,0h.94c.44-.3.36-.53.09-.65ZM554.87,353.05c.01-.18.01-.36,0-.53.03-.43.03-.87,0-1.31.02-.11.02-.22,0-.33-.05-.02-.09-.03-.15-.03s-.1.01-.15.03c-.08.02-.15.06-.21.12-.06.06-.1.13-.12.21-.19.42-.29.87-.3,1.34-.06.21-.06.44,0,.65.02.12.09.23.19.3.1.07.22.1.34.08.12-.02.23-.09.3-.19.07-.1.1-.23.08-.35ZM553.78,361.51c-.51-.06-1.03,0-1.51.21-.21,0-.44.24-.47.44,0,.07,0,.13.01.19.02.06.05.12.09.17.04.05.09.09.15.12.06.03.12.05.19.05.26.06.53.06.8,0,.21.03.43.03.65,0,.5-.36.77-1.07.09-1.19ZM546.39,360.03c-.12-.08-.25-.13-.38-.15l-.8-.18c-.13-.05-.28-.05-.41,0-.18,0-.27.24-.35.39-.09.15,0,.3,0,.39.11.03.22.03.33,0,.11.03.22.03.33,0h1.01c.41.12.59-.21.29-.44ZM540.57,363.14c-.32-.1-.66-.1-.98,0-.31.1-.6.23-.89.39-.13.07-.25.16-.35.27-.06.05-.11.11-.14.18-.03.07-.04.15-.04.23,0,.24.26.39.53.44.43.06.87-.03,1.24-.27.33-.18,1.33-.95.62-1.25ZM541.84,350.64s-.1-.04-.15-.04-.1.01-.15.04c-.05.03-.08.07-.11.11-.03.05-.04.1-.04.15.02.09.07.17.13.23.06.07.14.12.22.15.53.24.35-.42.09-.65ZM531.79,359.55v-.18c0-.18,0-.42-.18-.53-.07-.05-.15-.08-.24-.08s-.17.03-.24.08c-.05.03-.08.08-.11.13-.03.05-.04.11-.04.17,0,.15.15.27.21.39.06.12,0,.39.33.39s.26-.12.26-.36ZM526.17,366.97l-.15-.18c-.12-.05-.26-.05-.38,0-.06.02-.12.07-.17.12-.05.05-.08.11-.1.18-.02.05-.02.1,0,.15,0,0,.18.24.33.3.15.06.42.24.59,0,.18-.24,0-.42-.12-.56ZM529.69,372.38s.04-.1.04-.15-.01-.1-.04-.15h-.38l-1.18.21c-.21.02-.42.07-.62.15-.21.08-.38.24-.47.44-.06.09-.09.19-.09.3s.03.21.09.3c.12.08.27.12.42.12s.29-.04.41-.12c.32-.17.62-.36.92-.56.32-.21.92-.27.92-.53ZM535.6,376.92v-.24l-.21-.36v-.18c0-.18-.18,0-.21,0-.01.03-.02.07-.02.1,0,.04,0,.07.02.1,0,0,.42.77.42.56ZM541.66,370.98c-.41-.04-.82.06-1.18.27-.18.1-.31.27-.38.46-.07.2-.07.41,0,.6.09.18.25.32.44.39.25.08.52.08.77,0,.42-.15,1.01-.36,1.18-.8.18-.45-.44-.89-.83-.92ZM569.89,327.54c-.34-.15-.72-.21-1.1-.18-.84-.02-1.68.11-2.48.39-.4.15-.76.37-1.06.67s-.53.66-.69,1.05c-.03.16-.03.32,0,.47.05.16.13.31.23.44.11.13.24.23.39.3.59.31,1.21.53,1.86.65.34.03.69.03,1.03,0,1.33,0,2.96-1.36,2.72-2.97-.08-.2-.21-.37-.37-.51-.16-.14-.34-.25-.55-.32ZM549.02,298.56c-.48-.38-1.03-.65-1.63-.8-.68-.21-1.36-.44-2.07-.59h-.27c-.18,0,0,.39,0,.56.35.64.88,1.16,1.51,1.52.41.29.89.48,1.39.53.53.03,1.77-.53,1.06-1.22ZM519.07,304.11c.01.42.14.83.35,1.19.12.17.29.3.49.36.2.07.41.06.61,0,.24,0,.38-.36.53-.59.36-.88.59-1.81.65-2.76l.18-1.63c0-1.34.33-2.7.38-4.07,0-.56,0-1.72-.89-1.57-.89.15-1.12,1.13-1.42,1.69-.67,1.47-1.03,3.05-1.07,4.66-.01.91.05,1.83.18,2.73ZM491.55,299.93c-.77.44-1.43,1.03-1.95,1.75-.22.38-.34.82-.34,1.26s.12.88.34,1.26c.16.25.4.44.67.54.28.1.58.11.86.02.4-.25.69-.64.83-1.1l.71-1.61c.2-.42.35-.87.44-1.34.09-1.16-.74-1.31-1.57-.8ZM483.84,332.53c-.42-.41-.88-.77-1.39-1.07-1.02-.98-2.14-1.86-3.34-2.61-.34-.17-.72-.24-1.1-.21-.18,0-.36.06-.52.16s-.28.24-.37.4c-.08.25-.1.52-.05.77.05.26.16.5.32.71.85,1.25,1.91,2.33,3.13,3.21.54.52,1.2.89,1.92,1.07.31.11.66.11.97,0,.31-.11.57-.34.74-.63.17-.29.22-.63.17-.96-.06-.33-.23-.63-.49-.84ZM504.97,350.88c-1.11,1.28-1.84,2.84-2.13,4.51-.12.36-.16.74-.1,1.11.06.37.2.72.42,1.03.35.24.78.34,1.21.28.42-.05.81-.26,1.1-.58.52-.69.94-1.45,1.24-2.26.35-.66.65-1.34.89-2.05.35-1.81-1.1-3.77-2.63-2.05Z"/>
              <path class="cls-3" d="M536.13,374.28c-.46.35-.8.84-.98,1.4-.37.95-.59,1.95-.65,2.97,0,.42,0,.95.33,1.19.23.11.49.13.73.07.24-.06.46-.21.6-.42.38-.46.66-1,.83-1.57.24-.83,1.71-5.23-.86-3.62ZM536.46,335.56c-.36-.47-.78-.89-1.24-1.25-.71-.56-1.45-1.07-2.19-1.6-.25-.24-.55-.42-.88-.55-.33-.12-.67-.18-1.02-.17-.43.16-.8.46-1.05.85-.25.39-.35.86-.31,1.32.03.8.19,1.6.47,2.35.27.91.68,1.77,1.21,2.55.55.79,1.39,1.34,2.34,1.51.62.12,1.27.04,1.84-.23.57-.27,1.04-.73,1.34-1.29.3-.56.41-1.21.31-1.84-.09-.63-.39-1.21-.84-1.66ZM544.06,362.04c-.43.07-.85.23-1.21.48-.17.13-.29.32-.34.53-.05.21-.04.43.05.63.14.25.37.44.65.53.95.33,1.95.49,2.96.47h5.97c.62,0,1.8-.18,1.6-1.07-.21-.89-1.27-1.1-1.89-1.34-1.56-.61-3.23-.87-4.91-.77-.97.09-1.93.27-2.87.53ZM546.39,332.74c-.51-.79-1.2-1.46-2.01-1.93-.4-.24-.85-.37-1.31-.37s-.92.13-1.32.37c-.25.19-.43.45-.51.76-.08.3-.06.62.06.91.29.4.71.68,1.18.8l1.75.62c.47.18.95.3,1.45.36,1.18.21,1.3-.68.71-1.52ZM511.71,327.12c.41-.47.75-.99,1.03-1.54.96-1.14,1.79-2.39,2.48-3.71.09-.38.09-.78,0-1.16-.04-.2-.12-.38-.24-.54-.12-.16-.27-.29-.44-.38-.27-.05-.54-.05-.8.03-.26.07-.51.21-.7.39-1.25.99-2.31,2.2-3.13,3.56-.49.6-.83,1.31-.97,2.08-.08.18-.13.38-.14.58,0,.2.02.4.09.59.07.19.18.36.31.51.14.15.3.27.48.35.18.08.38.13.58.14.2,0,.4-.02.59-.09.19-.07.36-.18.51-.31.15-.14.27-.3.35-.49ZM494.21,350.67c-1.41-1.07-3.09-1.73-4.85-1.9-.38-.11-.78-.12-1.17-.04-.39.09-.75.27-1.04.54-.23.39-.31.85-.21,1.29.09.44.35.83.72,1.09.74.51,1.56.89,2.42,1.13.71.35,1.45.62,2.22.8,1.92.27,3.75-1.43,1.92-2.91ZM474.52,333.69c-.24-.42-.53-.8-.89-1.13-.68-.62-1.39-1.22-2.1-1.81-.36-.34-.81-.57-1.3-.65-.63,0-1.24.22-1.72.62-.41.27-.86.62-.8,1.1.04.18.11.35.21.51.19.36.44.68.74.95.29.25.62.43.98.56l3.19,1.37c1.09.48,2.19-.27,1.69-1.52ZM451.82,333.27c-.76-.89-1.81-1.5-2.96-1.72-1.1-.22-2.22-.32-3.34-.3-.52-.06-1.05-.06-1.57,0-.25.07-.49.19-.69.36-.2.17-.36.38-.47.62-.11.41-.09.84.05,1.24.14.4.4.74.75.99,1.24.9,2.73,1.38,4.26,1.37,1.3.21,5.62-.42,3.96-2.55ZM476.47,297.79c-.08-.16-.21-.3-.37-.39-.16-.09-.34-.15-.52-.15s-.36.05-.52.15c-.16.09-.28.23-.37.39-.11.31-.13.64-.06.96.07.32.22.61.44.85,1.39,1.63,1.98-.83,1.39-1.81ZM431.42,307.73l.33-.57c.22-.25.37-.54.44-.87.07-.32.06-.66-.03-.97-.16-.24-.39-.42-.66-.53-.27-.11-.56-.13-.85-.07-.21.01-.41.08-.59.19-.18.11-.33.26-.44.44-.24.47,0,1.04,0,1.57s-.3,1.34.3,1.66c.59.33,1.21-.39,1.51-.86ZM402.15,320.56c0-.25-.07-.51-.18-.74-.1-.22-.25-.41-.43-.56-.19-.15-.4-.25-.63-.31-.23-.04-.47-.03-.7.03-.23.06-.44.17-.63.32-.13.12-.23.28-.3.44-.03.26,0,.52.07.76.08.25.2.47.38.66.3.48.92,1.43,1.63,1.34.71-.09.89-1.34.8-1.96ZM512.48,382.74c.46-.42.87-.9,1.21-1.43.53-.81,1.03-1.61,1.51-2.4.45-.58.67-1.31.62-2.05-.2-.45-.54-.82-.98-1.06-.43-.24-.93-.32-1.42-.25-.83.11-1.63.34-2.39.68-.93.35-1.8.85-2.57,1.49-.78.63-1.29,1.55-1.42,2.55,0,.64.17,1.26.51,1.8.34.54.83.96,1.41,1.22.58.26,1.22.35,1.85.25.63-.1,1.21-.38,1.68-.81ZM553.69,276.97c-.86.35-1.62.9-2.22,1.61-.29.36-.49.79-.55,1.25-.07.46,0,.93.17,1.36.14.27.36.49.63.63.27.13.58.17.88.12.45-.21.81-.58,1.01-1.04.3-.54.59-1.07.92-1.58.26-.43.47-.89.62-1.36.3-1.16-.53-1.31-1.45-.98ZM542.02,309.99c-.4-.47-.85-.9-1.33-1.28-.96-1.1-2.03-2.09-3.19-2.97-.33-.22-.7-.34-1.1-.36-.19,0-.39.04-.56.13-.17.09-.33.22-.44.38-.12.24-.19.51-.19.79s.06.54.19.79c.77,1.38,1.78,2.63,2.96,3.68.51.58,1.15,1.04,1.86,1.34.33.24.74.34,1.14.28.4-.07.76-.29,1-.62.24-.33.34-.74.27-1.15-.06-.4-.28-.76-.61-1.01ZM561.94,331.34c-1.29,1.2-2.23,2.73-2.72,4.42-.18.35-.28.74-.28,1.13s.09.78.28,1.13c.33.31.76.48,1.21.48s.88-.17,1.21-.48c.63-.64,1.14-1.38,1.51-2.2.47-.62.86-1.3,1.15-2.02.86-1.78-.59-3.98-2.37-2.46ZM541.93,347.73c-.45.13-.87.36-1.24.65-.74.57-1.45,1.13-2.13,1.75-.4.29-.71.69-.89,1.16-.1.61.02,1.24.33,1.78.18.45.47.95.94.98.17.03.34.03.5,0,.38-.11.73-.29,1.03-.53.3-.25.56-.55.75-.89l1.89-2.97c.65-1.04.15-2.23-1.18-1.93Z"/>
              <path class="cls-3" d="M537.49,369.94c-.97.57-1.72,1.45-2.13,2.49-.43,1.04-.73,2.12-.89,3.24-.14.5-.19,1.02-.15,1.54,0,.26.08.52.2.75.12.23.3.43.51.59.39.17.82.23,1.23.16.42-.08.8-.27,1.1-.57,1.09-1.05,1.81-2.43,2.07-3.92.27-1.19.44-5.52-1.95-4.28ZM507.37,339.36c-.17.06-.32.17-.43.31-.12.14-.19.31-.22.49-.03.18,0,.36.06.53.07.17.18.32.32.42.28.17.6.26.93.26s.65-.09.93-.26c1.71-.95-.56-2.11-1.6-1.75ZM560.23,341.32c-.48-.22-1.01-.3-1.54-.24-.26.02-.5.12-.71.28-.2.16-.36.37-.45.61-.06.16-.06.34,0,.5.05.16.16.3.31.39.26.09.54.09.8,0l1.01-.3c.27-.06.54-.15.8-.27.56-.33.33-.8-.21-.98ZM542.49,349.9v-1.04c.08-.83.08-1.67,0-2.49-.04-.23-.16-.44-.33-.59-.08-.08-.17-.13-.27-.17-.1-.04-.21-.05-.32-.04-.14.06-.27.15-.36.27-.1.12-.17.26-.2.41-.26.85-.36,1.75-.3,2.64-.04.44.03.87.21,1.28.09.15.22.26.38.33.16.07.33.09.5.06.17-.03.32-.11.45-.23.12-.12.21-.27.25-.44ZM542.05,366.44c-1.03-.07-2.06.17-2.96.68-.41.21-.83.51-.86.95-.03.45.47.89.98.95.5-.01,1-.1,1.48-.27.43-.09.86-.2,1.27-.36,1.03-.44,1.39-1.87.09-1.96ZM527.53,365.01c-.24-.13-.5-.2-.77-.21l-1.54-.18c-.27-.08-.56-.08-.83,0-.28.22-.48.52-.59.86,0,.24-.18.56,0,.74.18.18.18,0,.27.18.21.1.42.17.65.21.2.03.41.03.62,0l1.89-.39c.65-.12.92-.8.3-1.22ZM516.95,372.17c-.61-.15-1.25-.09-1.83.15-.58.26-1.14.58-1.66.95-.25.15-.48.34-.68.57-.1.11-.17.24-.2.37-.04.14-.04.29,0,.43.08.22.22.42.41.56.19.14.42.21.66.21.86.02,1.7-.24,2.39-.74.59-.39,2.37-2.05.92-2.49ZM516.95,347.91c-.09-.04-.19-.06-.3-.05-.1,0-.2.05-.28.11-.08.06-.15.14-.18.24-.04.1-.05.2-.04.3.05.18.15.34.29.46.13.12.3.21.48.25.94.3.56-1.07.03-1.31ZM499.38,367.06v-.39c0-.36,0-.8-.38-.98-.15-.06-.32-.06-.48-.02-.16.04-.3.13-.41.26-.09.07-.16.16-.2.26-.05.1-.07.22-.06.33,0,.3.33.5.5.74.18.24.27.71.65.65.38-.06.41-.56.38-.86ZM513.49,366.88c.08-.38.08-.77,0-1.16-.12-.73-.26-1.47-.44-2.23-.08-.39-.25-.76-.5-1.07-.42-.32-.93-.47-1.45-.44-.38,0-.86,0-1.03.33-.03.14-.03.28,0,.42-.04.33-.04.66,0,.98.08.29.19.57.35.83.47.83.95,1.66,1.39,2.49.44.83,1.39.92,1.69-.15ZM499.06,355.3c-.03-.92-.39-1.81-1.01-2.49-.59-.7-1.25-1.33-1.98-1.87-.32-.28-.68-.51-1.06-.68-.2-.09-.41-.14-.62-.14s-.42.05-.62.14c-.27.21-.48.5-.58.83-.11.33-.11.68,0,1.01.35,1.19,1.08,2.23,2.07,2.97.77.68,3.84,2.46,3.81.24ZM532.64,344.94c.01-.15,0-.3-.07-.43-.06-.13-.16-.25-.28-.34-.12-.09-.26-.13-.41-.15-.15-.01-.29.01-.43.08-.22.14-.41.35-.52.59-.11.24-.16.51-.13.78-.12,1.43,1.51.18,1.83-.53ZM498.5,328.73l.5-.18c.5-.21,1.06-.48,1.18-1.01,0-.23-.05-.46-.17-.67-.12-.2-.3-.36-.51-.46-.15-.07-.32-.11-.49-.11s-.34.04-.49.11c-.38.18-.5.65-.8,1.01-.3.36-.83.68-.62,1.22.21.53.98.24,1.39.09ZM473.34,322.43c.12-.17.21-.36.26-.57.04-.19.03-.38-.02-.57s-.15-.36-.27-.5c-.12-.15-.27-.27-.45-.34-.17-.07-.37-.1-.56-.07-.14-.04-.28-.04-.42,0-.16.14-.27.32-.35.51s-.09.41-.07.62c0,.47,0,1.39.38,1.66.38.27,1.21-.3,1.48-.74ZM463.41,337.46c.15.02.3,0,.44-.07.13-.06.25-.16.33-.29.04-.18.04-.37,0-.55-.05-.18-.14-.35-.26-.49l-1.86-2.82c-.3-.54-.68-1.03-1.12-1.45-.43-.44-1.02-.69-1.63-.71-.3,0-.59.08-.85.25-.25.16-.45.4-.57.67-.09.4-.05.82.1,1.2.15.38.42.71.76.94.78.64,1.61,1.23,2.48,1.75.65.44,1.36,1.48,2.19,1.57ZM465.77,338.79c-.15.09-.28.19-.38.33-.27.3-.48.66-.62,1.04-.08.18-.13.38-.13.58s.05.4.13.58v.18c.07.03.15.05.22.05s.15-.01.22-.05c.3-.1.57-.26.8-.47.14-.09.27-.2.38-.33.38-.48.47-1.54-.18-1.87-.14-.05-.3-.06-.44-.03ZM449.01,337.28c-.28.05-.56.16-.8.33-.3.17-.58.36-.86.57,0,0,0,.15.21.18.33.09.68.09,1.01,0,.22-.07.43-.18.62-.33.09-.18.3-.8-.18-.74ZM489.39,366.88c-.14-.04-.3-.04-.44,0-.08.05-.14.12-.18.19-.05.08-.08.16-.08.25-.04.3.02.6.18.86.16.26.34.5.56.71l.38.42.35.36c.23.19.49.33.77.42.08.06.18.08.28.08s.2-.03.28-.08c.03-.06.04-.13.04-.19s-.01-.13-.04-.19c-.18-.56-.68-.95-.98-1.48-.3-.54-.44-1.22-1.12-1.34ZM477.98,356.43c-.3.14-.6.3-.89.48-.18,0-.38.18-.44.35-.01.07,0,.14,0,.21.02.07.05.13.09.19.04.06.09.1.16.14.06.03.13.06.2.06.29,0,.58-.07.83-.21l.59-.33c.92-.51.21-1.13-.53-.89ZM478.93,346.69c-.1-.03-.2-.03-.3,0-.18,0-.21.36,0,.5.12.16.3.26.5.3.24,0,1.33.45,1.42,0,.09-.44-1.36-.71-1.62-.8ZM518.22,329.8c-.25.06-.5.17-.71.33-.51.34-.95.77-1.3,1.28-.17.25-.29.54-.35.84s-.06.61,0,.91c.04.1.09.2.15.3.09.08.2.14.32.17.12.03.24.03.36,0,.47-.04.93-.17,1.36-.39.24-.08.47-.19.68-.33.77-.56,1.27-2.11.44-2.82-.12-.13-.27-.22-.43-.27-.17-.05-.34-.06-.51-.03ZM493.97,321.19c-.43-.03-.86.03-1.27.18-.5.14-1,.31-1.48.51h-.15s0,.3.21.39c.47.22.99.31,1.51.27.36,0,.71-.1,1.04-.27.38-.09.86-1.07.15-1.07ZM478.48,336.86c.18.23.41.42.68.53.14.06.29.07.43.03.14-.04.27-.12.36-.24.07-.19.07-.4,0-.59-.15-.67-.41-1.32-.77-1.9l-.53-1.04c-.47-.86-.92-1.75-1.45-2.58-.21-.36-.71-.98-1.15-.56-.44.42-.21,1.16,0,1.6.2,1.14.63,2.22,1.27,3.18.34.55.73,1.08,1.15,1.57Z"/>
              <path class="cls-3" d="M517.3,371.49c-.12.39-.12.8,0,1.19.15.69.41,1.35.77,1.96.15.27.35.56.68.56s.59-.39.65-.74c.04-.43-.02-.87-.18-1.27-.12-.51-1.03-3.74-1.92-1.69ZM501.66,348.36c-.4-.14-.82-.22-1.24-.24h-1.95c-.25-.04-.51-.02-.75.04-.24.07-.47.18-.67.34-.21.26-.32.59-.32.92s.11.66.32.92c.36.45.78.85,1.24,1.19.53.43,1.13.77,1.77,1.01.64.27,1.37.27,2.01,0,.42-.19.76-.51.99-.92.23-.4.33-.86.28-1.33-.04-.46-.23-.9-.53-1.24-.3-.35-.71-.6-1.15-.7ZM529.69,360.47c-.49.07-.98.19-1.45.36-.29,0-.65,0-.8.39s0,.89.44,1.04c.42.12.86.12,1.27,0l1.03-.24c1.42-.39.65-1.6-.5-1.54ZM534.71,346.43c-.12-.09-.26-.14-.41-.15-.3,0-.47.42-.35.71.15.27.37.49.65.62.33.18,1.83,1.16,2.1.51.27-.65-1.62-1.45-1.98-1.69ZM518.51,324.63c-.28-.08-.58-.08-.86,0-.67,0-1.33.13-1.95.39-.31.12-.59.31-.83.56-.23.25-.4.54-.5.86-.03.12-.03.24,0,.36.03.13.09.25.18.34.09.1.2.17.32.22.47.22.96.37,1.48.44.28.03.55.03.83,0,1.03,0,2.39-1.19,2.04-2.35-.04-.19-.13-.36-.25-.51s-.28-.26-.46-.33ZM501.04,302.57c-.39-.28-.83-.48-1.3-.59-.54-.16-1.1-.28-1.65-.39h-.21c-.06,0,0,.3,0,.45.32.49.76.89,1.27,1.16.33.21.71.33,1.09.36.42,0,1.36-.48.8-.98ZM477.63,308c.04.33.16.65.35.92.1.13.24.22.39.26.15.05.32.05.47,0,.17-.13.31-.3.38-.51.29-.7.43-1.44.42-2.2v-4.51c0-.44,0-1.34-.77-1.22-.77.12-.86.95-1.03,1.4-.49,1.16-.72,2.42-.68,3.68.1.74.25,1.46.47,2.17ZM455.78,305.69c-.6.36-1.11.86-1.48,1.45-.18.3-.28.64-.28,1s.1.69.28.99c.13.2.32.34.54.41.22.07.46.06.68-.02.3-.22.52-.53.62-.89l.5-1.28c.14-.35.24-.72.3-1.1.18-.89-.47-.98-1.15-.56ZM450.9,331.64c-.35-.3-.73-.57-1.12-.8-.84-.73-1.75-1.38-2.72-1.93-.29-.07-.59-.07-.89,0-.15.01-.29.07-.41.16-.12.09-.21.21-.27.35-.05.2-.04.41,0,.6s.15.38.29.53c.71.96,1.58,1.78,2.57,2.44.45.37.97.63,1.54.77.28.13.6.15.89.05.29-.1.53-.32.66-.6.13-.28.15-.6.05-.89-.1-.29-.32-.53-.59-.67ZM468.2,345.27c-.83,1.03-1.35,2.28-1.51,3.59-.08.29-.1.59-.04.89.06.29.18.57.37.81.29.17.63.24.96.18.33-.06.63-.24.84-.51.4-.55.7-1.16.89-1.81.28-.52.49-1.08.62-1.66.24-1.34-.98-2.82-2.13-1.49ZM493.59,362.76c-.36.28-.61.68-.71,1.13-.27.72-.42,1.49-.44,2.26,0,.33,0,.74.33.92.18.08.39.09.58.03.19-.06.35-.19.46-.36.27-.39.47-.82.59-1.28.15-.65,1.15-4.19-.8-2.7ZM492.47,332.14c-.3-.35-.65-.66-1.04-.92l-1.77-1.19c-.2-.18-.44-.33-.7-.41-.26-.09-.54-.12-.81-.09-.74.15-1.03,1.01-1.01,1.75.06.62.21,1.23.44,1.81.24.72.6,1.39,1.06,1.99.47.59,1.14.99,1.89,1.1.47.02.94-.1,1.35-.35.41-.25.73-.6.94-1.03.2-.43.28-.91.21-1.38-.07-.47-.27-.91-.58-1.27ZM511.36,359.79c-.5-.23-1.01-.42-1.54-.57-.32-.1-.66-.1-.98,0-.1.07-.18.15-.25.25-.06.1-.11.21-.12.33-.02.12,0,.24.03.35.03.11.09.22.17.31.31.36.72.61,1.18.71l1.09.39c1.54.3,1.57-1.27.42-1.78ZM524.16,349.63c0-.15,0-.33-.29-.39-.3-.06-.68,0-.74.44-.02.34.06.67.24.95.18.36,1.01,2.14,1.65,1.69.65-.44-.68-2.29-.86-2.7Z"/>
            </g>
          </g>
        </g>
      </g>
    </g>
  </g>
</svg>