<?xml version="1.0" encoding="UTF-8"?>
<svg id="Calque_2" data-name="Calque 2" xmlns="http://www.w3.org/2000/svg" xmlns:xlink="http://www.w3.org/1999/xlink" viewBox="0 0 800 450">
  <defs>
    <style>
      .cls-1 {
        fill: #000091;
      }

      .cls-2 {
        fill: #0078f3;
      }

      .cls-3 {
        fill: #0063cb;
      }

      .cls-4 {
        fill: #7996e6;
      }

      .cls-5 {
        fill: url(#Dégradé_sans_nom_6);
      }

      .cls-6 {
        fill: url(#Dégradé_sans_nom_3);
      }

      .cls-7 {
        fill: #465f9d;
      }

      .cls-8 {
        fill: url(#Dégradé_sans_nom_3-3);
      }

      .cls-9 {
        fill: url(#Dégradé_sans_nom_3-2);
      }

      .cls-10 {
        fill: url(#Dégradé_sans_nom_3-5);
      }

      .cls-11 {
        fill: url(#Dégradé_sans_nom_3-4);
      }

      .cls-12 {
        fill: #5576c2;
      }

      .cls-13 {
        fill: url(#Dégradé_sans_nom);
      }

      .cls-14 {
        fill: #2052be;
      }

      .cls-15 {
        fill: #fcc63a;
      }

      .cls-16 {
        fill: url(#Dégradé_sans_nom_10);
      }

      .cls-17 {
        fill: #fa7659;
      }

      .cls-18 {
        fill: #417dc4;
      }

      .cls-19 {
        fill: url(#Dégradé_sans_nom_10-4);
      }

      .cls-20 {
        fill: url(#Dégradé_sans_nom_10-3);
      }

      .cls-21 {
        fill: url(#Dégradé_sans_nom_10-2);
      }

      .cls-22 {
        fill: #7b7b7b;
      }
    </style>
    <linearGradient id="Dégradé_sans_nom" data-name="Dégradé sans nom" x1="356.5" y1="-593.8" x2="403.79" y2="-833.97" gradientTransform="translate(0 -589.72) scale(1 -1)" gradientUnits="userSpaceOnUse">
      <stop offset="0" stop-color="#e1f3ff"/>
      <stop offset="1" stop-color="#fff"/>
    </linearGradient>
    <linearGradient id="Dégradé_sans_nom_6" data-name="Dégradé sans nom 6" x1="363.1" y1="-765.31" x2="369.39" y2="-763.14" gradientTransform="translate(0 -589.72) scale(1 -1)" gradientUnits="userSpaceOnUse">
      <stop offset="0" stop-color="#1a3080"/>
      <stop offset="1" stop-color="#fcc63a"/>
    </linearGradient>
    <linearGradient id="Dégradé_sans_nom_3" data-name="Dégradé sans nom 3" x1="536.82" y1="-1020.78" x2="494.97" y2="-1020.78" gradientTransform="translate(0 -589.72) scale(1 -1)" gradientUnits="userSpaceOnUse">
      <stop offset="0" stop-color="#1a3080"/>
      <stop offset="1" stop-color="#1a3080"/>
    </linearGradient>
    <linearGradient id="Dégradé_sans_nom_10" data-name="Dégradé sans nom 10" x1="636.15" y1="-981.1" x2="484.6" y2="-1024.29" gradientTransform="translate(0 -589.72) scale(1 -1)" gradientUnits="userSpaceOnUse">
      <stop offset="0" stop-color="#8182ff"/>
      <stop offset="1" stop-color="#8182ff"/>
    </linearGradient>
    <linearGradient id="Dégradé_sans_nom_3-2" data-name="Dégradé sans nom 3" x1="620.25" y1="-1019.88" x2="604.22" y2="-1019.88" xlink:href="#Dégradé_sans_nom_3"/>
    <linearGradient id="Dégradé_sans_nom_10-2" data-name="Dégradé sans nom 10" x1="554.88" y1="-975.89" x2="649.33" y2="-1037.39" xlink:href="#Dégradé_sans_nom_10"/>
    <linearGradient id="Dégradé_sans_nom_3-3" data-name="Dégradé sans nom 3" x1="515.52" y1="-790.68" x2="515.27" y2="-819.7" xlink:href="#Dégradé_sans_nom_3"/>
    <linearGradient id="Dégradé_sans_nom_10-3" data-name="Dégradé sans nom 10" x1="252.77" y1="-1009.72" x2="280.22" y2="-1009.72" xlink:href="#Dégradé_sans_nom_10"/>
    <linearGradient id="Dégradé_sans_nom_3-4" data-name="Dégradé sans nom 3" x1="317.29" y1="-977.43" x2="217.41" y2="-1055.84" xlink:href="#Dégradé_sans_nom_3"/>
    <linearGradient id="Dégradé_sans_nom_3-5" data-name="Dégradé sans nom 3" x1="335.67" y1="-1000.05" x2="235.77" y2="-1078.46" xlink:href="#Dégradé_sans_nom_3"/>
    <linearGradient id="Dégradé_sans_nom_10-4" data-name="Dégradé sans nom 10" x1="295.16" y1="-1010.43" x2="334.68" y2="-1010.43" xlink:href="#Dégradé_sans_nom_10"/>
  </defs>
  <g id="Calque_1-2" data-name="Calque 1">
    <g>
      <rect class="cls-13" width="800" height="450"/>
      <g>
        <path class="cls-5" d="M379.86,164.91s-3.06-8-6.6-7.28c-3.54.72-7.42,3.46-7.42,3.46l-5.7,7.71s16,6.3,21.62,2.69c0,0,16.33,2.81,36.96-.57-2.6-5.59-4.56-11.47-5.81-17.51-10.44,5.91-21.69,10.32-33.06,11.49h.01Z"/>
        <path class="cls-12" d="M466.39,106.92s-23.39,29.46-53.48,46.49c1.27,6.04,3.21,11.92,5.81,17.51,15.6-2.56,33.66-8.66,48.98-22.25l-1.31-41.77h-.01Z"/>
        <path class="cls-12" d="M509.23,239.44c-4.42,0-8.96-.65-13.67-1.93-4.57-21.73-9.15-34.32-24.46-75.5-4.82-12.97-9.21-26.09-7.08-39.75l2.37-15.36s13.61-4.61,32.63-4.61c9.1,0,19.45,1.06,30.14,4.19,0,0,40.13,17.44,18.86,100.73-8.87.98-27.94,3.64-38.17,9.29-1.13.63-1.9,1.76-2.03,3.06-.14,1.23-.14,2.85.45,4.42.33.85,1.2,1.34,2.08,1.2l34.18-5.52c-.29.99-.62,1.98-.93,3-10.22,11.43-21.73,16.8-34.38,16.8h.01Z"/>
        <path class="cls-15" d="M471.47,87.32l7.71,18.54c.5,1.16,1.56,2,2.8,2.22,4.43.76,15.21,1.94,22.27-2.7.84-.56,1.05-1.67.5-2.5,0,0-.01-.03-.03-.03l-14.24-20.47-19.02,4.93h.01Z"/>
        <path class="cls-15" d="M479.44,58.93c-.34.31-13.68,26.55-13.68,26.55l15.12,7.3,16.37-22.97s-12.39-15.98-17.81-10.87h0Z"/>
        <path class="cls-22" d="M490.36,72.58l-7.55,12.58c-.12.19-.24.36-.41.51-.91.85-3.99,3.27-6.36-.03-2.03-2.84-3.93-5.39-5.96-6.45-1.18-.6-2.65-.13-3.25,1.05v.02c-2.03,3.95-3.76,8.05-5.17,12.25-.37,1.2.24,2.48,1.4,2.95,3.07,1.23,9.14,3.49,14.51,4.22.87.13,1.74-.24,2.28-.95,2.31-3.17,8.82-12.03,11.05-14.25,2.07-2.05,5.89-1.28,7.6-.78.65.19,1.35.1,1.93-.27,1.74-1.05,4.78-3.66,1.99-8.08-.68-1.12-.35-2.57.76-3.29,1.94-1.28,4.07-3.7,2.03-7.58-2.03-3.94-5.67-4.3-8.14-4-1.1.15-2.21-.44-2.63-1.45-.21-.53-.69-.91-1.25-.99-1.31-.27-2.15-1.45-1.88-2.77.44-2.22.1-5.13-3.46-7.08-6.54-3.59-12.25,2.27-13.72,7.21-1.46,4.94,5.85,8.44,10.44,9.02,3.38.42,5.23,4.09,5.96,6.03.28.69.22,1.46-.16,2.1h-.01l-.03.03Z"/>
        <path class="cls-15" d="M487.72,88.24s3.26-7.64,6.98-7.32c3.71.31,6.63,4.01,2.03,8.18-5.74,5.17-9.01-.86-9.01-.86Z"/>
        <path class="cls-6" d="M492.64,429.01c7.18.64,19.67,1.64,29.52,2.08,5.91.26,9.3-.31,11.27-1.1,0,.22,0,.44-.03.63-.06,1.04-.89,1.87-1.93,1.92-12.86.74-25.75.75-38.62.05-.8-.04-1.43-.71-1.39-1.52,0-.23.07-.46.19-.66.3-.49.63-.93.99-1.37v-.03Z"/>
        <path class="cls-16" d="M522.13,431.09c-9.85-.43-22.32-1.45-29.51-2.06,7.07-8.68,29.52-14.53,29.52-14.53h6.32c4.36,6.28,4.99,12.28,4.94,15.49-1.96.79-5.38,1.37-11.29,1.1h.01Z"/>
        <path class="cls-17" d="M529.54,404.15l-.58,11.75c-.07,1.27-1.01,2.33-2.3,2.52-1.59.24-3.22.11-4.75-.39-1.1-.36-1.93-1.31-2.14-2.44l-2.03-11.42h11.81-.01Z"/>
        <path class="cls-9" d="M611.85,431.01c3.12-.44,4.52-2.07,5.12-3.78v.05c.47,1.81-.59,3.71-2.72,4.61-2.4.94-4.98,1.34-7.56,1.2-2.18,0-4.25-.97-5.67-2.62v-.03c2.33,1.16,5.63,1.31,10.83.58Z"/>
        <path class="cls-21" d="M597.14,404.09h5.23c7.95-.17,12.94,16.62,14.58,23.12-.58,1.74-2,3.35-5.12,3.78-5.21.72-8.51.59-10.85-.57-4.3-5.65-6.44-13.94-7.46-18.79-1.16-5.5,3.6-7.56,3.6-7.56v.02Z"/>
        <path class="cls-17" d="M601.7,393.19l2.91,11.53c.35,1.43-.33,2.9-1.64,3.55-1.62.85-3.89,1.72-6,1.45-.99-.13-1.81-.81-2.14-1.74l-4.26-12.13,11.14-2.66Z"/>
        <path class="cls-4" d="M605.15,396.53c-3.6,3.2-15.36,3.64-15.36,3.64-42.29-101.55-59.93-129.49-59.93-129.49,6.1,38.33,1.31,136.69,1.31,136.69-6.98,3.08-15.96,0-15.96,0-.58-62.73-9.41-130.15-20.79-173.29,28.59-.64,44.13-6.88,49.08-10.8,23.83,38.43,61.65,173.26,61.65,173.26h.01Z"/>
        <path class="cls-7" d="M487.21,262.44l5.27,32.71c.93,5.73,6.21,9.69,11.96,8.97l78.73-9.6c3.84-.46,6.77-3.68,6.85-7.56.17-8.45-.14-23.5-3.71-37.21l-99.1,12.68h0Z"/>
        <path class="cls-7" d="M577.61,251.1c-.12,0-.23-.08-.23-.2s.08-.23.2-.23l1.79-.23c.15-.01.23.07.24.19.01.13-.07.23-.19.27l-1.79.22h-.02ZM584.28,251.66c-.1,0-.19-.07-.22-.17l-.29-1.16-.19.03c-.15.01-.24-.07-.27-.19,0-.13.07-.24.21-.27l.58-.07.06.19c.12.46.23.91.34,1.37.04.12-.04.24-.16.27h-.06ZM571.67,251.88c-.12,0-.23-.09-.24-.21,0-.12.09-.23.21-.24l1.78-.23c.15-.01.24.07.27.19,0,.13-.07.24-.21.26l-1.78.23h-.03ZM565.74,252.64c-.12,0-.22-.09-.23-.21,0-.12.07-.23.19-.24l1.79-.23c.15,0,.23.07.24.2.01.12-.07.23-.19.24l-1.79.23h-.02.01ZM559.79,253.4c-.12,0-.21-.08-.22-.19-.01-.13.07-.24.19-.26l1.79-.22c.15-.02.23.07.24.19s-.07.23-.19.24l-1.79.23h-.02ZM553.86,254.16c-.12,0-.22-.07-.22-.19-.03-.13.06-.23.19-.24l1.78-.23c.14-.01.24.07.26.19,0,.13-.07.24-.2.26l-1.78.22h-.04ZM547.92,254.93c-.1,0-.21-.08-.22-.2-.01-.12.07-.23.19-.24l1.79-.23c.15,0,.23.07.24.19.01.13-.07.24-.19.27l-1.79.22h-.02ZM541.98,255.7c-.12,0-.21-.08-.22-.21-.01-.12.07-.23.19-.24l1.79-.23c.13,0,.23.07.24.21,0,.12-.07.23-.2.24l-1.78.23h-.02ZM536.05,256.46c-.12,0-.22-.07-.23-.19,0-.13.07-.24.2-.27l1.78-.22c.14-.03.23.07.26.19,0,.12-.08.23-.2.24l-1.78.23h-.04ZM530.11,257.22c-.12,0-.23-.09-.23-.21s.09-.23.21-.23l1.79-.23c.15-.01.23.07.24.19.01.13-.07.23-.19.27l-1.79.22h-.02ZM585.51,257.56c-.12,0-.21-.07-.22-.19l-.34-1.74c-.03-.12.05-.24.17-.26.12-.03.24.05.27.17l.34,1.78c.01.12-.06.23-.19.27h-.02ZM524.17,257.99c-.12,0-.21-.09-.22-.21-.02-.12.06-.23.19-.24l1.79-.23c.15,0,.23.07.24.19,0,.13-.07.24-.2.27l-1.78.23h-.02ZM518.24,258.75c-.12,0-.22-.09-.23-.21,0-.12.07-.23.19-.24l1.79-.22c.14-.01.23.06.24.19.02.12-.07.23-.19.24l-1.79.23h-.03.01ZM512.3,259.51c-.12,0-.23-.08-.23-.2s.09-.23.21-.23l1.79-.23c.15-.01.23.07.24.19.01.13-.07.23-.19.24l-1.79.23h-.02ZM506.36,260.28c-.12,0-.21-.07-.23-.19,0-.13.07-.23.2-.24l1.78-.23c.15-.01.24.07.27.19,0,.13-.07.24-.21.26l-1.78.22h-.04ZM500.43,261.05c-.12,0-.22-.09-.23-.21,0-.12.07-.23.19-.24l1.79-.23c.14-.01.23.07.24.2.01.12-.07.23-.19.24l-1.79.22h-.03.01ZM494.49,261.81c-.12,0-.21-.08-.22-.19-.01-.14.07-.24.19-.26l1.79-.23c.15,0,.23.09.24.21.01.12-.07.23-.19.24l-1.79.23h-.02ZM586.38,263.5c-.1,0-.2-.09-.22-.19l-.23-1.79c0-.12.07-.23.2-.24.12-.03.23.07.24.19l.23,1.79c.01.12-.07.23-.19.24h-.05.01ZM489.92,264.21c-.1,0-.21-.08-.22-.19l-.31-2.01.92-.12c.15-.01.24.07.27.19,0,.12-.07.23-.21.24l-.47.06.24,1.56c.03.12-.06.23-.17.24h-.05v.02ZM586.99,269.45c-.12,0-.22-.07-.23-.19l-.14-1.79c-.01-.13.07-.23.2-.24s.23.07.23.2l.16,1.79c0,.13-.07.23-.21.24h-.01ZM490.86,270.11c-.1,0-.19-.07-.22-.19l-.29-1.78c0-.12.07-.23.19-.27.15,0,.24.07.27.19l.29,1.78c.01.12-.07.23-.19.27h-.05ZM587.36,275.43c-.12,0-.22-.1-.23-.22l-.08-1.79c0-.13.1-.23.22-.23.15-.01.23.09.23.21l.09,1.8c0,.12-.09.22-.21.23h-.01ZM491.82,276.01c-.12,0-.21-.07-.23-.19l-.29-1.78c0-.12.07-.23.21-.24.13-.02.23.06.27.19l.29,1.78c0,.12-.07.23-.21.24h-.04ZM587.49,281.42c-.12,0-.22-.1-.22-.23v-1.79c-.01-.13.07-.23.21-.23.12-.01.22.1.23.22v1.8c.01.12-.09.23-.21.23h-.01ZM492.76,281.93c-.1,0-.21-.07-.22-.19l-.29-1.78c-.01-.12.07-.23.19-.27.13,0,.23.07.26.19l.29,1.78c0,.12-.07.23-.19.27h-.05ZM587.25,287.38h-.06c-.12-.03-.19-.15-.14-.29.12-.5.17-1.01.19-1.56v-.15c0-.15.1-.23.23-.23.12,0,.22.1.22.22v.17c0,.56-.08,1.12-.22,1.66-.03.12-.12.17-.22.17h0ZM493.71,287.85c-.12,0-.21-.09-.23-.21l-.29-1.78c0-.12.07-.23.19-.24.15-.03.24.06.27.19l.29,1.76c.01.13-.06.24-.19.27h-.05.01ZM583.73,292.02c-.12,0-.22-.11-.2-.23,0-.07.05-.14.11-.18.5-.29.97-.64,1.38-1.05.1-.08.23-.07.31,0,.08.1.08.24,0,.34-.49.44-1.02.82-1.6,1.12ZM577.94,293.33c-.12,0-.22-.1-.23-.21,0-.13.07-.24.21-.27l1.78-.22c.15,0,.24.07.27.2,0,.12-.07.23-.21.24l-1.78.22h-.03v.03ZM494.65,293.75c-.1,0-.21-.09-.22-.19l-.29-1.78c-.01-.12.06-.23.19-.27.12-.01.23.07.27.19l.29,1.78c0,.12-.07.23-.19.27h-.05ZM572.01,294.04c-.12,0-.23-.07-.24-.19,0-.12.07-.23.19-.24l1.79-.23c.12,0,.23.07.24.2.01.12-.07.23-.2.24l-1.78.22h-.03.03ZM566.05,294.76c-.1,0-.2-.08-.22-.2-.01-.12.07-.23.19-.24l1.79-.22c.12-.01.23.07.24.19.01.12-.07.23-.19.24l-1.79.23h-.03ZM560.12,295.49c-.12,0-.22-.09-.23-.21,0-.12.09-.23.21-.24l1.78-.22c.15-.01.24.07.27.19,0,.13-.07.24-.21.27l-1.78.22h-.04ZM554.18,296.22c-.12,0-.21-.09-.22-.21-.01-.12.07-.23.19-.24l1.79-.22c.12-.01.23.07.24.19.01.13-.07.24-.19.24l-1.79.22h-.03ZM548.23,296.94c-.12,0-.23-.09-.24-.21,0-.12.09-.23.21-.24l1.79-.22c.13-.01.23.07.24.19.01.13-.07.23-.19.24l-1.79.22h-.02.01ZM542.3,297.66c-.12,0-.22-.1-.23-.2,0-.13.07-.24.21-.27l1.78-.21c.13-.02.24.06.27.19,0,.12-.07.23-.21.24l-1.78.22h-.02v.02ZM536.35,298.39c-.12,0-.2-.1-.22-.22s.07-.23.19-.24l1.79-.22c.12,0,.23.07.24.2.01.12-.07.23-.19.24l-1.79.22h-.03ZM497.35,298.98s-.12-.01-.15-.06c-.44-.44-.83-.93-1.16-1.44-.07-.1-.05-.23.06-.29.1-.09.24-.06.31.05.31.5.7.94,1.09,1.37.09.1.09.23,0,.31-.05.05-.1.06-.14.06h-.01ZM530.41,299.1c-.1,0-.21-.09-.22-.21-.01-.12.07-.23.19-.24l1.79-.22c.13,0,.23.07.24.21.01.12-.07.23-.19.24l-1.79.22h-.02ZM524.48,299.83c-.12,0-.22-.08-.23-.2,0-.12.08-.23.2-.24l1.78-.22c.15-.01.24.07.27.21,0,.12-.07.23-.21.24l-1.78.22h-.04ZM518.53,300.55c-.12,0-.2-.09-.22-.21-.01-.12.07-.23.19-.24l1.79-.22c.12-.01.23.07.24.19.01.13-.07.24-.19.27l-1.79.21h-.03ZM512.59,301.28c-.1,0-.21-.09-.22-.21-.01-.13.07-.23.19-.24l1.79-.22c.12-.01.23.07.24.19.01.13-.07.23-.19.24l-1.79.22h-.02ZM502.48,301.9h-.05c-.58-.15-1.17-.34-1.74-.57-.11-.05-.16-.18-.12-.29.05-.12.17-.17.29-.12.54.22,1.1.41,1.67.54.12.03.19.15.16.27-.01.1-.12.17-.22.17h.01ZM506.65,301.99c-.12,0-.23-.08-.23-.2s.08-.23.2-.23l1.78-.22c.14-.03.24.07.26.19,0,.12-.07.23-.2.24l-1.78.22h-.04Z"/>
        <path class="cls-15" d="M507.23,235.65l-.1-2.56c.19-.64.7-1.14,1.34-1.34,2.4-.7,8.39-2.15,11.6-.35l.81,2.89-13.67,1.36h.01Z"/>
        <path class="cls-15" d="M514.56,232.23c-.54.22-1.1.29-1.69.22-.71-.08-1.28-.64-1.37-1.34l-1.01-7.94,4.05-.51,1.02,7.93c.08.71-.31,1.38-.99,1.64Z"/>
        <path class="cls-15" d="M546.35,230.64l-.1-2.56c.19-.64.69-1.15,1.34-1.34,2.4-.7,8.39-2.16,11.59-.35l.81,2.89-13.66,1.36h.01Z"/>
        <path class="cls-15" d="M553.67,227.23c-.56.2-1.1.29-1.7.22-.7-.09-1.27-.64-1.35-1.34l-1.12-8.77,4.05-.52,1.12,8.77c.09.7-.31,1.38-.99,1.64Z"/>
        <path class="cls-15" d="M510.02,225.18c-.77,0-1.46-.49-1.74-1.21-.59-1.57-.62-3.2-.49-4.42.15-1.29.92-2.43,2.05-3.06,10.23-5.64,29.3-8.31,38.17-9.3l1.37-.15.54-.03c2.24,0,4.24,1.48,4.87,3.65.47,1.8.66,3.66.57,5.52-.05,1-.8,1.83-1.79,1.98l-9.04,1.45-34.19,5.52-.29.05h-.04ZM521.66,212.9h-.09c-3.67.74-7.25,1.89-10.66,3.44-1.28.56-2.19,1.75-2.38,3.14-.23,1.7.15,3.38.16,3.44.07.33.39.52.71.45.33-.07.52-.39.45-.71,0,0-.35-1.55-.15-3.02.15-.95.79-1.8,1.69-2.21,1.85-.8,6.54-2.74,10.37-3.35.33-.03.57-.31.54-.65-.03-.34-.31-.57-.65-.55h0Z"/>
        <path class="cls-8" d="M509.26,223.42c-.28,0-.52-.19-.58-.47,0-.07-.39-1.74-.16-3.44.19-1.39,1.1-2.58,2.38-3.14,3.43-1.56,7.05-2.72,10.74-3.44.32-.03.62.22.65.54.04.33-.22.62-.54.65-3.82.59-8.52,2.55-10.37,3.35-.91.4-1.55,1.23-1.69,2.21-.11,1.01-.06,2.03.14,3.02.07.33-.13.64-.45.71-.05,0-.09.01-.13.01Z"/>
        <path class="cls-14" d="M486.95,237.24c14-1.98,74.6-10.38,92.52-10.51,1.55,0,2.91.94,3.43,2.38,1.64,4.58,5.15,15.25,6.28,26.13.15,1.47-.77,2.86-2.18,3.31l-39.27,12.77-14.29,1.84-43.97-3.06c-1.55-.1-2.81-1.25-3.09-2.77-.98-5.42-3.06-18.16-2.63-26.59.08-1.79,1.44-3.27,3.21-3.52h-.01Z"/>
        <path class="cls-1" d="M572.63,230.74c-.12,0-.22-.09-.23-.21-.01-.12.09-.22.21-.23l1.79-.12c.15-.01.23.08.23.2,0,.13-.08.23-.2.24l-1.79.1h-.01.01ZM566.67,231.21c-.13,0-.23-.08-.23-.21,0-.13.07-.23.21-.24l1.79-.14c.13,0,.23.08.24.2,0,.12-.09.23-.21.24l-1.79.14h-.03.01ZM579.88,231.24c-.1,0-.19-.06-.22-.15l-.23-.64h-.81c-.12,0-.22-.08-.23-.22,0-.12.1-.22.22-.22h.88c.15-.01.29.07.34.2l.26.72c.04.11-.02.24-.13.28-.03,0-.05.01-.07.01h-.01ZM560.7,231.76c-.12,0-.21-.08-.22-.2,0-.12.07-.23.2-.24l1.79-.17c.12,0,.23.09.24.21,0,.13-.08.23-.2.24l-1.79.17h-.03ZM554.74,232.37c-.1,0-.21-.08-.22-.2,0-.13.09-.23.21-.24l1.79-.19c.15,0,.23.07.24.2,0,.12-.07.23-.21.24l-1.79.19h-.02ZM548.8,233.03c-.12,0-.21-.09-.22-.21-.01-.13.07-.23.2-.24l1.79-.21c.13,0,.23.07.23.21.01.12-.07.23-.19.24l-1.79.19h-.03ZM542.85,233.69c-.12,0-.23-.09-.23-.21s.09-.23.21-.23l1.79-.22c.15-.01.23.07.24.2.01.12-.07.23-.19.24l-1.79.21h-.02ZM536.91,234.4c-.12,0-.22-.09-.23-.21-.01-.12.08-.22.2-.23l1.78-.22c.14-.02.23.07.24.19.01.12-.07.23-.19.24l-1.79.22h-.03.01ZM530.97,235.13c-.12,0-.2-.09-.22-.19-.01-.13.07-.24.19-.27l1.79-.22c.12-.01.23.07.24.19.01.12-.07.23-.19.24l-1.79.23h-.03ZM525.03,235.87c-.1,0-.21-.07-.22-.19-.01-.13.07-.23.19-.24l1.79-.23c.13-.01.23.07.24.2.01.12-.07.23-.19.24l-1.79.22h-.02ZM519.1,236.64c-.12,0-.23-.08-.24-.2,0-.12.09-.23.21-.24l1.79-.23c.12,0,.23.07.24.19,0,.13-.07.24-.21.27l-1.78.23h-.03.01ZM581.74,236.93c-.1,0-.19-.06-.22-.16l-.52-1.72c-.05-.12.02-.24.14-.29.12-.03.24.05.29.14l.52,1.74c.03.1-.05.23-.14.27h-.07ZM513.15,237.41c-.12,0-.23-.09-.23-.21s.09-.23.21-.23l1.79-.24c.13,0,.23.07.24.21.03.12-.07.23-.19.24l-1.79.23h-.02ZM507.22,238.2c-.1,0-.21-.07-.22-.19-.01-.12.07-.23.19-.24l1.79-.24c.12-.01.23.07.24.19.01.13-.07.24-.19.27l-1.79.23h-.02ZM501.29,238.99c-.12,0-.21-.07-.22-.19-.01-.12.07-.23.19-.24l1.79-.24c.12,0,.23.07.24.19.01.13-.07.24-.19.27l-1.79.23h-.03ZM495.35,239.8c-.12,0-.2-.07-.22-.19-.01-.12.07-.23.19-.26l1.78-.23c.13-.02.24.06.27.19,0,.12-.07.23-.19.24l-1.79.24h-.04ZM489.42,240.64c-.12,0-.23-.09-.23-.21s.09-.23.21-.23l1.78-.27c.12-.03.24.07.27.19,0,.13-.07.24-.19.27l-1.79.24h-.04ZM583.32,242.7c-.1,0-.19-.06-.22-.17l-.44-1.73c-.05-.12.02-.24.14-.28.13-.02.24.05.29.16l.43,1.74c.03.12-.05.24-.16.28h-.06ZM487.21,244.81c-.13,0-.22-.1-.23-.23v-1.8c0-.12.09-.22.22-.22.12,0,.22.1.22.23v1.79c.01.12-.07.22-.21.23ZM584.63,248.54c-.12,0-.21-.07-.23-.17l-.35-1.77c-.02-.12.05-.24.17-.27.12-.02.23.05.26.17l.36,1.74c.01.14-.06.24-.19.28h-.05.03ZM487.57,250.78c-.12,0-.22-.09-.23-.21l-.14-1.8c0-.12.08-.23.2-.23.15,0,.23.09.24.21l.15,1.79c0,.12-.09.23-.21.24h-.02.01ZM585.57,254.45c-.12,0-.22-.08-.23-.2-.07-.58-.14-1.17-.24-1.78,0-.12.07-.23.19-.24.13-.02.24.06.27.19l.24,1.79c0,.12-.07.23-.21.24h-.02ZM488.23,256.72c-.12,0-.21-.07-.22-.19l-.23-1.79c0-.12.07-.23.21-.24.12-.01.23.07.24.19l.22,1.79c.03.12-.06.23-.19.24h-.03ZM581.02,257.04c-.1,0-.19-.06-.22-.15-.05-.13.02-.27.14-.29l1.71-.57c.12-.03.24.02.29.14.03.12-.03.24-.15.29l-1.72.56h-.06ZM575.32,258.89c-.09,0-.17-.06-.21-.15-.05-.13.01-.27.15-.29l1.7-.56c.12-.04.25.02.29.14.04.12-.02.25-.14.29l-1.72.54h-.07ZM569.64,260.74c-.1,0-.19-.06-.22-.15-.05-.13.03-.24.15-.29l1.7-.56c.12-.05.24.02.29.14.02.12-.03.24-.15.29l-1.72.54h-.06ZM563.94,262.6c-.1,0-.19-.07-.22-.16-.03-.12.03-.24.15-.29l1.72-.56c.12-.03.24.02.29.14.03.12-.05.24-.15.29l-1.72.56h-.07ZM489.08,262.66c-.1,0-.21-.07-.22-.19l-.28-1.78c-.01-.13.07-.24.19-.26.13,0,.23.07.27.19l.28,1.78c.01.12-.07.23-.19.27h-.05ZM558.25,264.45c-.1,0-.19-.06-.22-.15-.05-.15.03-.27.15-.29l1.7-.56c.12-.05.24.01.29.14.02.12-.03.23-.15.28l-1.72.56h-.06ZM552.54,266.29c-.1,0-.19-.06-.22-.15-.03-.13.03-.27.15-.29l1.72-.56c.12-.05.24.01.29.14.03.12-.05.23-.15.29l-1.72.54h-.07ZM491.54,266.96h-.01l-1.92-.13-.03-.17c-.01-.12.06-.27.17-.29.07,0,.13,0,.17.05l1.63.1c.12,0,.22.12.21.24,0,.12-.1.21-.22.21ZM497.49,267.38l-1.8-.13c-.12,0-.22-.12-.21-.23,0-.13.12-.22.23-.22l1.8.13c.12,0,.22.12.21.23,0,.12-.1.22-.22.22h-.01ZM503.48,267.79l-1.8-.13c-.12,0-.22-.12-.21-.23,0-.13.12-.2.23-.22l1.79.15c.13,0,.22.1.22.22,0,.13-.12.22-.23.22ZM546.84,268.13c-.12,0-.21-.09-.22-.21-.01-.12.07-.23.19-.24h.12l1.56-.52c.12-.05.24.02.29.14.03.12-.02.24-.14.29l-1.74.54h-.06ZM509.44,268.2h-.01l-1.79-.12c-.13,0-.22-.12-.22-.24.01-.12.13-.21.24-.21l1.79.12c.12,0,.22.11.22.23s-.11.22-.23.22ZM515.4,268.63l-1.8-.13c-.12,0-.2-.12-.2-.23,0-.13.13-.21.24-.22l1.79.13c.12.05.18.18.13.3-.03.06-.07.11-.15.13h-.01ZM540.91,268.89c-.12,0-.23-.09-.23-.21s.09-.23.21-.23l1.78-.23c.14-.03.24.07.26.19,0,.12-.07.23-.2.24l-1.78.23h-.04ZM521.38,269.04l-1.8-.12c-.12-.01-.22-.12-.2-.24,0-.12.13-.2.23-.2l1.79.12c.13,0,.22.12.22.23,0,.13-.12.22-.23.22ZM527.36,269.45l-1.8-.12c-.13,0-.22-.12-.2-.24,0-.12.12-.19.23-.21l1.79.12c.13.01.22.12.2.24,0,.12-.1.21-.22.21ZM534.96,269.65c-.1,0-.21-.07-.22-.19-.01-.13.07-.23.21-.27l1.78-.22c.15-.01.23.07.24.19.01.13-.07.23-.19.27l-1.79.22h-.02ZM533.33,269.87h-.01l-1.79-.13c-.13,0-.22-.12-.22-.23,0-.13.12-.21.24-.22l1.79.13c.12,0,.22.12.21.23,0,.12-.1.22-.22.22Z"/>
        <path class="cls-1" d="M547.14,277.5l-12.52,1.59c-1.63.22-3.16-.84-3.58-2.43l-3-11.85c-.48-1.89.81-3.78,2.77-4.02l15.03-1.92c1.91-.24,3.6,1.2,3.67,3.09l.47,12.18c.07,1.69-1.16,3.14-2.85,3.35h0Z"/>
        <path class="cls-2" d="M545.33,275.49l-9.53,1.22c-1.25.16-2.42-.64-2.72-1.86l-2.28-9.01c-.34-1.32.46-2.67,1.78-3.01.11-.03.22-.05.33-.06l11.44-1.47c1.35-.18,2.6.76,2.78,2.12,0,.08.01.16.03.24l.35,9.28c.06,1.3-.89,2.41-2.17,2.56h.01Z"/>
        <path class="cls-15" d="M537.87,179.45c2.95,12.21,3.02,24.13,2.58,28.5-.17,1.63-1.49,2.91-3.13,3.02l-6.69.43c-2.49.15-5.27-1.45-7.13-2.77-.93-.66-2.15.37-1.63,1.41,1.02,1.74,2.4,3.24,4.07,4.38.93.72,4.07,1.99,3.86,3.41-.07.43-.34.85-.63,1.17-1.74,2.09-4.39,3.21-6.98,4.01-.34.1-.69.2-.92.47-.06,1.67,5.12,3.55,6.45,4,2.01.65,4.13.94,6.22.73,5.22-.56,10.03-4.16,12.85-8.5,7.5-11.59,11.38-25.6,12.8-36.31-6.98-6.98-17.51-5.21-21.72-3.97l.02.02Z"/>
        <path class="cls-12" d="M559.6,184.53c5.57-42.05-26.84-74.38-26.84-74.38l-19.28,22.47c14.65,18.25,21.61,34.97,24.77,48.11,4.22-1.22,14.37-3.17,21.34,3.81h.01Z"/>
        <path class="cls-1" d="M537.8,180.5c-.55,0-1.03-.35-1.16-.91-3.93-16.18-12.18-32.21-24.54-47.64-.37-.54-.24-1.28.29-1.66.5-.34,1.16-.27,1.57.18,12.59,15.68,21,32.04,25.01,48.57.14.64-.25,1.28-.91,1.43-.08.02-.17.02-.26.02Z"/>
        <path class="cls-20" d="M276.11,429.81c0-.2,0-.41-.06-.63-3.09-12.29-18.5-19.94-18.5-19.94l-6.1.47c-3.49,10.85-3.06,17.5-2.48,20.45,0,.08.02.16.06.24,5.03.44,15.38.72,27.08-.58h0Z"/>
        <path class="cls-11" d="M249.04,430.41c.27.99.99,1.74,1.93,1.95,7.15,1.51,18.52.29,23.31-.34,1.05-.13,1.81-1.1,1.84-2.21-8.99,1.04-18.05,1.23-27.08.58v.02Z"/>
        <path class="cls-17" d="M249.01,400.65l2.59,12.44c.16.88.86,1.56,1.74,1.67,1.02.1,2.5.14,3.99-.06,1.34-.21,2.27-1.56,2.03-3.01l-1.8-11.06h-8.55v.03Z"/>
        <path class="cls-10" d="M303.09,430.24c-6.73-.19-10.21-.99-12.01-1.72v2.05c.05.76.59,1.37,1.29,1.35l36.97-.23c1.17,0,1.87-1.38,1.37-2.48-4.86.41-17.21,1.31-27.62,1.01Z"/>
        <path class="cls-19" d="M330.72,429.24l-.15-.29c-3.27-4.56-11.59-13.64-28.03-17.59l-7.88-.23s-3.52,6.1-3.58,17.4c1.8.72,5.28,1.52,12.02,1.72,10.42.29,22.75-.62,27.61-1.01h0Z"/>
        <path class="cls-17" d="M292.84,399.54c.13.58,1.78,9.42,2.4,12.86.15.83.8,1.43,1.55,1.45,1.35.09,3.53.09,5.41-.42,1.02-.28,1.69-1.31,1.62-2.44l-.87-14.01-10.09,2.56h-.03Z"/>
        <path class="cls-7" d="M291.47,217.65l11.85,183.23s-3.35,2.71-6.84,2.62c-1.86-.05-3.46-1.09-3.78-2.62-3.2-15.65-26.9-104.77-29.95-124.47,0,0-6.5,84.57-4.29,125.27.06,1.02-1.12,2.09-2.33,2.21-1.85.19-.99.34-4.72,0-1.43-.12-2.85-1.01-3.06-2.21-2.28-13.23-21.05-91.85-20.51-148.62.02-3.2,4.58-29.52,4.58-29.52l59.03-5.89h.03Z"/>
        <path class="cls-18" d="M238.69,227.1c-1.12-.39-7.66-3.26-7.78-4.44,7.13-23.63-2.44-85.57,41.65-121.28,0,0,2.53-6.62,23.31,9.66,20.8,16.25,8.64,28.84,3.66,52.36-4.43,15.34-13.38,9.96-7.27,55.19,0,1.72-8.93,6.25-10.1,6.7-16.14,5.96-27.45,7.52-43.48,1.81h.01Z"/>
        <path class="cls-15" d="M289.76,75.39c-.01,1.23-17.62,26.25-17.62,26.25,0,0,3.15,6.22,18.25,11.29l13.03-26.78-13.67-10.74h.01Z"/>
        <path class="cls-15" d="M303.62,61.07s6.27,14.39,6.7,21.95c.44,7.57,2.03,12.46-6.7,13.97-8.72,1.52-16.08-2.84-20.07-10.36,0,0-6.25-11.59-4.86-16.35,1.41-4.74,24.92-9.22,24.92-9.22h.01Z"/>
        <path class="cls-1" d="M286.52,81.23l.51-.22c.63-.29.91-1.03.58-1.64-1.23-2.38-3.64-7.84-.52-9.1,4-1.64,13.58-2.59,17-8.2,0,2.4-5.12,10.17-9.5,8.2,6.25,2.81,15.01-8.44,11.05-16.49-2.29-4.65-7.16-5.89-12.36-5.89-10.17,0-15.33,5.74-16.36,9.16,3.06-5.85-10.39-20.94-21.01-9.45-10.62,11.49,8.14,19.05,15.93,13.96,7.78-5.09-7.49,1.02-6.62,11.13.7,8.16,8.72,14.54,13.88,13.81,3.13-.44,2.67-.81,2.1-.15-1.67,1.96-1.74,6.1-.65,2.99,1.09-3.12,3.93-4.32,3.85-4.65l-.71-2.72c-.09-.31.11-.63.42-.71.05-.01.11-.02.17-.02h2.26-.02Z"/>
        <path class="cls-15" d="M286.81,82.61s-2.4-9.19-6.51-6.62c-4.13,2.57,2.14,10.31,5.45,10.64l1.05-4.02h.01Z"/>
        <path class="cls-15" d="M302.56,118.59l-2.88,24.39c3.44,1.2,12.72,7.46,15.85,8.14,1.95-6.3,4.36-11.15,7.89-16.89-12.95-4.58-20.87-15.64-20.87-15.64Z"/>
        <path class="cls-15" d="M367.22,118.04c-17.75,19.19-32.13,20.31-43.79,16.18-3.37,5.26-6.03,10.94-7.89,16.89,47.44,10.46,56.72-30.29,56.72-30.29l-5.02-2.79h-.02Z"/>
        <path class="cls-15" d="M370.81,116s2.05-2.17,5.85-1.5c3.78.69,7.15,2,9.52,0,2.36-2.01,3.19.69,3.19.69l-7.07,5.38-11.49-4.57Z"/>
        <path class="cls-15" d="M366.61,119.76s1.4-5.86,5.63-5.06c4.22.8,13.81,6.02,16.29,5.06,2.48-.96,5.64-3.26,7.27-2.45l-2.86,3.57s7.35-4.24,8.6-1.64l-12.22,6.89s-17.88-1.8-22.72-6.36Z"/>
        <path class="cls-15" d="M287.32,155.71s28.42,27.32,64.99,21.33c2.24-.76,4.68-.58,6.78.51l10.37,5.49c4.36,2.3,9.74.79,12.28-3.43,1.52-2.37,2.51-5.03,2.91-7.81l-20.3-8.22,1.51-2.48s-9.92-.86-12.51,6.25c0,0-18.87,7.86-50.7-27.17,0,0-9.96,6.72-15.32,15.52h-.01Z"/>
        <path class="cls-3" d="M286.26,155.93c-.12,0-.22-.03-.31-.09-14.07-9.51-20.67-24.85-20.75-25.01-.18-.27-.12-.63.13-.81.27-.18.63-.12.81.13.05.07.08.16.1.24.07.14,6.57,15.18,20.34,24.51.25.18.31.53.15.79-.11.16-.28.25-.47.26v-.02Z"/>
        <path class="cls-3" d="M301.99,139.73c-.19,0-.37-.11-.48-.28-.05-.06-4.35-6.74-12.52-21.4-2.53-4.51-5.84-7.36-9.85-8.48-6.64-1.86-13.03,1.71-13.09,1.74-.3.1-.63-.06-.74-.37-.07-.22,0-.47.17-.62.29-.17,6.85-3.85,13.96-1.86,4.31,1.21,7.85,4.23,10.52,9.02,3.96,7.24,8.13,14.35,12.49,21.36.16.28.06.63-.22.8-.09.05-.17.07-.27.07v.03Z"/>
      </g>
    </g>
  </g>
</svg>