<?xml version="1.0" encoding="UTF-8"?>
<svg id="Calque_2" data-name="Calque 2" xmlns="http://www.w3.org/2000/svg" xmlns:xlink="http://www.w3.org/1999/xlink" viewBox="0 0 800 450">
  <defs>
    <style>
      .cls-1 {
        opacity: .1;
      }

      .cls-1, .cls-2 {
        isolation: isolate;
      }

      .cls-2 {
        opacity: .05;
      }

      .cls-3 {
        fill: #465f9d;
      }

      .cls-4 {
        fill: #fcf2e3;
      }

      .cls-5 {
        fill: #ffdeaf;
      }

      .cls-6 {
        fill: #f43008;
      }

      .cls-7 {
        fill: url(#Dégradé_sans_nom);
      }

      .cls-8 {
        fill: #ff6444;
      }

      .cls-9 {
        fill: #192f5f;
      }

      .cls-10 {
        fill: #d8593f;
      }

      .cls-11 {
        fill: #fe9400;
      }
    </style>
    <linearGradient id="Dégradé_sans_nom" data-name="Dégradé sans nom" x1="356.5" y1="-1635.52" x2="403.79" y2="-1875.69" gradientTransform="translate(0 -1631.43) scale(1 -1)" gradientUnits="userSpaceOnUse">
      <stop offset="0" stop-color="#e1f3ff"/>
      <stop offset="1" stop-color="#fff"/>
    </linearGradient>
  </defs>
  <g id="Calque_1-2" data-name="Calque 1">
    <g>
      <rect class="cls-7" width="800" height="450"/>
      <g>
        <path class="cls-10" d="M538.99,163.01v175.37c0,11.51-9.34,20.86-20.87,20.86h-228.39c-11.53,0-20.88-9.35-20.88-20.86v-175.37c0-11.54,9.36-20.88,20.88-20.88h228.39c11.53,0,20.87,9.35,20.87,20.88Z"/>
        <path class="cls-5" d="M279.74,174.83l201.57,23.48,29.87,96.94,7.87,33.56,9.05-208.33-236.79-34.54-3.16,24.28-8.41,64.59Z"/>
        <path class="cls-2" d="M279.74,174.83l201.57,23.48,29.87,99.26V121.84l-223.03-11.6-8.41,64.59Z"/>
        <path class="cls-4" d="M507.55,127.5v219.15l-238.3-115.53v-114.98l48.93,2.32,189.38,9.04Z"/>
        <path class="cls-8" d="M515.32,359.24h-245.95c-7.06,0-13.87-5.72-15.18-12.79l-29.79-159.39c-.37-1.97-.28-3.84.22-5.51.39-1.3,1.01-2.49,1.84-3.51,1.84-2.3,4.76-3.73,8.23-3.75h.11c2.99,0,5.18-2.12,5.22-5.05l.15-10.95c.08-5.2,3.94-8.93,9.23-8.93h84.56c5.28,0,10.55,3.73,12.58,8.93l4.26,10.95c1.13,2.93,4.1,5.05,7.09,5.05h122.85c7.06,0,13.86,5.72,15.18,12.77l29.77,159.39c1.33,7.07-3.33,12.79-10.38,12.79Z"/>
        <path class="cls-1" d="M405.51,257.35h-3.63v-16.85c0-9.69-6.76-21.75-15.2-26.5-7.24-4.08-14.51-5.59-21.27-5.18-19.93-1.28-36.55,14.55-36.55,34.22v14.31h-3.64c-4.09,0-7.41,3.32-7.41,7.42v30.57c0,25.02,20.29,45.34,45.33,45.34.75,0,1.49-.02,2.23-.07.74.04,1.48.07,2.23.07,12.51,0,23.85-5.07,32.05-13.29,8.2-8.2,13.27-19.54,13.27-32.05v-30.57c0-4.1-3.32-7.42-7.41-7.42ZM385.92,243.04v14.31h-41.11v-16.78c0-6.46,3.25-12.55,8.73-16,3.96-2.49,7.96-3.82,11.8-4.18,11.54,1.11,20.59,10.84,20.59,22.66Z"/>
        <path class="cls-9" d="M330.34,241.68c0-25.04,26.97-43.89,53.38-29.05,8.44,4.75,15.2,16.83,15.2,26.52v30.59h-68.58v-28.06ZM387.41,241.68c0-17.06-18.86-29.81-36.83-18.47-5.47,3.45-8.73,9.54-8.73,16v19.02h45.56v-16.54Z"/>
        <path class="cls-6" d="M409.96,263.4v30.57c0,12.51-5.07,23.85-13.27,32.05-8.2,8.22-19.54,13.29-32.05,13.29-25.04,0-45.34-20.32-45.34-45.34v-30.57c0-4.1,3.31-7.42,7.41-7.42h75.85c4.09,0,7.41,3.32,7.41,7.42Z"/>
        <path class="cls-3" d="M325.89,241.68c0-25.04,26.97-43.89,53.38-29.05,8.44,4.75,15.2,16.83,15.2,26.52v30.59h-68.58v-28.06ZM382.96,241.68c0-17.06-18.86-29.81-36.83-18.47-5.47,3.45-8.73,9.54-8.73,16v19.02h45.56v-16.54Z"/>
        <path class="cls-11" d="M405.52,263.4v30.57c0,12.51-5.07,23.85-13.28,32.05-8.22,8.22-19.56,13.29-32.07,13.29-25.04,0-45.33-20.32-45.33-45.34v-30.57c0-4.1,3.32-7.42,7.41-7.42h75.85c4.08,0,7.41,3.32,7.41,7.42Z"/>
        <path class="cls-9" d="M357.73,298.38l-4.85,10.91h14.6l-4.9-10.91c4.49-1.08,7.81-5.12,7.81-9.91,0-5.66-4.59-10.21-10.21-10.21s-10.21,4.55-10.21,10.21c0,4.75,3.32,8.78,7.76,9.91Z"/>
        <path class="cls-3" d="M360.14,298.38l-4.84,10.91h-2.42l4.85-10.91c-4.44-1.13-7.76-5.16-7.76-9.91,0-5.66,4.59-10.19,10.19-10.19.41,0,.81,0,1.21.07-5.04.59-9,4.88-9,10.13,0,4.75,3.33,8.78,7.76,9.91Z"/>
      </g>
    </g>
  </g>
</svg>