<?xml version="1.0" encoding="UTF-8"?>
<svg id="Calque_2" data-name="Calque 2" xmlns="http://www.w3.org/2000/svg" xmlns:xlink="http://www.w3.org/1999/xlink" viewBox="0 0 800 450">
  <defs>
    <style>
      .cls-1 {
        fill: #dc9b92;
      }

      .cls-2 {
        fill: #4b74bc;
      }

      .cls-3 {
        fill: #e7e8ea;
      }

      .cls-4 {
        fill: #e7e7ea;
      }

      .cls-5 {
        fill: #d7d7da;
      }

      .cls-6 {
        fill: #e7b850;
      }

      .cls-7 {
        fill: url(#Dégradé_sans_nom);
      }

      .cls-8 {
        fill: #d7d7d9;
      }

      .cls-9 {
        fill: #d37b71;
      }

      .cls-10 {
        fill: #161012;
      }

      .cls-11 {
        fill: #e1e3e2;
      }
    </style>
    <linearGradient id="Dégradé_sans_nom" data-name="Dégradé sans nom" x1="356.5" y1="447.91" x2="403.79" y2="207.75" gradientTransform="translate(0 452) scale(1 -1)" gradientUnits="userSpaceOnUse">
      <stop offset="0" stop-color="#e1f3ff"/>
      <stop offset="1" stop-color="#fff"/>
    </linearGradient>
  </defs>
  <g id="Calque_1-2" data-name="Calque 1">
    <g>
      <rect class="cls-7" width="800" height="450"/>
      <g>
        <g>
          <circle class="cls-4" cx="263.65" cy="192.4" r="7.61"/>
          <path class="cls-8" d="M375.68,139.78c17.37,19.06,16.42,48.48-2.14,66.38-18.56,17.9-48,17.78-66.41-.27-18.42-18.05-19.13-47.48-1.6-66.4l70.16.28ZM329.18,180.34c0-4.99-4.05-9.04-9.04-9.04s-9.04,4.05-9.04,9.04,4.05,9.04,9.04,9.04,9.04-4.05,9.04-9.04ZM369.25,180.1c0-4.84-3.93-8.77-8.77-8.77s-8.77,3.93-8.77,8.77,3.93,8.77,8.77,8.77,8.77-3.93,8.77-8.77Z"/>
          <circle class="cls-4" cx="320.14" cy="180.34" r="9.04"/>
          <circle class="cls-3" cx="360.48" cy="180.1" r="8.77"/>
          <path class="cls-6" d="M340.45,114.57c-31.68,0-57.37,25.68-57.37,57.37s25.68,57.37,57.37,57.37,57.37-25.69,57.37-57.37-25.68-57.37-57.37-57.37ZM373.54,206.17c-18.56,17.9-48,17.78-66.41-.27-18.42-18.05-19.13-47.48-1.6-66.4,9.06-9.78,21.81-15.32,35.14-15.26,13.33.05,26.03,5.69,35.02,15.55,17.37,19.06,16.42,48.48-2.14,66.38Z"/>
          <g>
            <path class="cls-1" d="M300.6,213.21c2.57,2.49,5.38,4.73,8.37,6.69,1.57,4.98,8.85,9.67,11.83,14.68,8.46,14.24,8.88,33.9,3.42,49.18l4.89,77.22h-74.84c-3.01-18.26,4.1-41.92,1.75-59.13-.37-2.73-4.93-9.98-6.74-12.39,6.89,1.41,8.67-3.29,11.64-8.32,5.96,6.59,16.04-3.51,17.25-3.23,1.53.36,2.81,3.37,4.43,4.01,2.74,1.08,6.11.51,8.25,1.72,4.75,2.68.48,11.63,6.65,10.8,2-4.79-2.77-9.88-3.02-12.75-.16-1.79,2.3-4.05,2.97-6.47.57-2.08-.51-6.66.13-7.32.78-.81,11.94.99,11.51-10.71-.22-6.05-13.7-30.28-19.08-32.58-7.57-3.24,4.98,11.77,5.55,12.75,3.11,5.33,16.51,26.14,4.4,27.27-7.3.68-20.43-25.04-28.15-30.13-1.58-1.04-4.63-3.11-5.91-.74,4.95,7.82,33.13,33.34,27.52,42.4-7.21,11.63-17.45-8.71-21.66-13.34-2.16-2.38-13.51-14.29-15.01-14.93-1.97-.84-3.3.49-2.46,2.46,1.98,4.63,28.34,22.28,16.6,28.36-6.78,3.51-16.52-15.27-24.13-17.5-8.51-2.5,4.52,7.55,5.18,8.21,1.75,1.75,2.04,4.78,2.34,5.07-2.89,3.44-7.23,6.62-6.65,11.64-.43-.61-5.28-2.18-8.03-7.77-7.07-14.36,1.83-32.32,11.36-43.78,7.65-9.2,24.14-23.68,34.91-11.64.26-2.62.41-6.87,2.79-8.44,4.69-3.1,8.64,1.06,11.96-1.29Z"/>
            <path class="cls-10" d="M260.93,281.15c-2.97,5.02-4.76,9.73-11.64,8.32-1.05-1.39-1.26-2.75-1.66-3.33-.57-5.02,3.76-8.2,6.65-11.64.33.32,3.25.59,5.12,2.36,1.67,1.58,1.35,4.09,1.53,4.29Z"/>
            <path class="cls-9" d="M254.27,274.49c-.3-.29-.59-3.32-2.34-5.07-.66-.66-13.69-10.71-5.18-8.21,7.61,2.23,17.35,21.02,24.13,17.5,11.74-6.08-14.62-23.73-16.6-28.36-.84-1.97.49-3.3,2.46-2.46,1.5.64,12.85,12.56,15.01,14.93,4.21,4.63,14.45,24.97,21.66,13.34,5.62-9.06-22.57-34.58-27.52-42.4,1.28-2.37,4.33-.3,5.91.74,7.73,5.09,20.85,30.81,28.15,30.13,12.1-1.13-1.29-21.94-4.4-27.27-.57-.98-13.13-15.99-5.55-12.75,5.39,2.3,18.86,26.53,19.08,32.58.43,11.7-10.73,9.9-11.51,10.71-.64.66.45,5.24-.13,7.32-.67,2.42-3.12,4.67-2.97,6.47.25,2.87,5.02,7.96,3.02,12.75-6.17.84-1.9-8.12-6.65-10.8-2.14-1.21-5.51-.64-8.25-1.72-1.62-.64-2.9-3.65-4.43-4.01-1.21-.28-11.29,9.82-17.25,3.23-.18-.2.13-2.71-1.53-4.29-1.87-1.77-4.79-2.04-5.12-2.36Z"/>
          </g>
        </g>
        <g>
          <path class="cls-8" d="M497.08,149.76v84.82c-58.73.37-117.55-.27-176.29,0-2.98-5.02-10.25-9.71-11.83-14.68,21.05,13.82,48.66,12.3,68.06-3.76,19.4-16.06,26.06-42.89,16.42-66.16,34.86.02,69.29-.53,103.63-.22Z"/>
          <path class="cls-5" d="M287.54,149.77c-9.14,21.82-3.96,47.01,13.06,63.44-3.32,2.35-7.27-1.81-11.96,1.29-2.38,1.57-2.53,5.82-2.79,8.44-10.76-12.04-27.26,2.44-34.91,11.64-35.26,6.4-68.99-20.93-55.19-57.68,13.62-36.28,61.49-25.5,91.78-27.13ZM237.6,192.62c0-4.11-3.33-7.45-7.45-7.45s-7.45,3.33-7.45,7.45,3.33,7.45,7.45,7.45,7.45-3.33,7.45-7.45ZM271.27,192.4c0-4.21-3.41-7.61-7.61-7.61s-7.61,3.41-7.61,7.61,3.41,7.61,7.61,7.61,7.61-3.41,7.61-7.61Z"/>
          <circle class="cls-4" cx="230.16" cy="192.62" r="7.45"/>
          <g>
            <path class="cls-2" d="M497.08,234.58v-84.82c21.57.2,73.19-3.71,89.7,7.59,32.22,22.06,19.96,73.82-18.95,77.29-21.61,1.93-48.44-.21-70.75-.07ZM527.03,214.61c4.44,4.22,13.13-12.69,16.69-14.2,4.17-1.77,12.1,3.1,18.98-4.16,14.17-14.93-9-37.62-23.07-21.41-8.98,10.34.04,15.62-1.28,21.91-.77,3.67-13.93,15.38-11.32,17.86Z"/>
            <path class="cls-11" d="M527.03,214.61c-2.61-2.48,10.55-14.18,11.32-17.86,1.32-6.3-7.7-11.57,1.28-21.91,14.07-16.21,37.24,6.48,23.07,21.41-6.89,7.26-14.81,2.39-18.98,4.16-3.56,1.51-12.25,18.42-16.69,14.2ZM561.51,185.2c0-5.59-4.54-10.13-10.13-10.13s-10.13,4.54-10.13,10.13,4.54,10.13,10.13,10.13,10.13-4.54,10.13-10.13Z"/>
            <circle class="cls-2" cx="551.38" cy="185.2" r="10.13"/>
          </g>
        </g>
      </g>
    </g>
  </g>
</svg>