<?xml version="1.0" encoding="UTF-8"?>
<svg id="Calque_2" data-name="Calque 2" xmlns="http://www.w3.org/2000/svg" xmlns:xlink="http://www.w3.org/1999/xlink" viewBox="0 0 800 450">
  <defs>
    <style>
      .cls-1 {
        fill: #f05a3b;
      }

      .cls-2 {
        fill: #fff;
      }

      .cls-3 {
        fill: url(#Dégradé_sans_nom);
      }

      .cls-4 {
        fill: #fa7a35;
      }
    </style>
    <linearGradient id="Dégradé_sans_nom" data-name="Dégradé sans nom" x1="356.5" y1="-1635.52" x2="403.79" y2="-1875.69" gradientTransform="translate(0 -1631.43) scale(1 -1)" gradientUnits="userSpaceOnUse">
      <stop offset="0" stop-color="#e1f3ff"/>
      <stop offset="1" stop-color="#fff"/>
    </linearGradient>
  </defs>
  <g id="Calque_1-2" data-name="Calque 1">
    <g>
      <rect class="cls-3" width="800" height="450"/>
      <path class="cls-4" d="M574.33,210.64c.09-.81-.4-1.61-1.16-1.95l-21.68-9.42c-1.68-10.87-5.08-21.59-10.31-31.68l11.95-20.36c.43-.69.36-1.61-.18-2.24l-18.42-21.55c-.54-.63-1.41-.85-2.17-.54l-21.97,8.66c-9.02-6.62-19.06-11.72-29.71-15.1l-5.93-22.89c-.22-.81-.91-1.34-1.74-1.43l-28.26-2.17c-.81-.04-1.61.4-1.95,1.16l-9.42,21.68c-10.87,1.68-21.59,5.12-31.68,10.31l-20.36-11.95c-.72-.43-1.61-.34-2.24.18l-21.54,18.44c-.61.54-.83,1.39-.54,2.15l8.66,21.97c-6.62,9.02-11.72,19.06-15.1,29.71l-22.89,5.95c-.78.22-1.34.92-1.43,1.72l-2.21,28.26c-.05.81.4,1.59,1.16,1.9l21.68,9.42c1.7,11.05,5.17,21.75,10.31,31.68l-11.95,20.36c-.4.72-.31,1.61.22,2.24l18.42,21.55c.54.65,1.41.87,2.15.54l21.97-8.64c9.15,6.73,19.22,11.77,29.71,15.08l5.95,22.89c.22.81.91,1.37,1.72,1.44l28.26,2.21c.81.09,1.59-.4,1.9-1.16l9.42-21.68c10.89-1.68,21.61-5.08,31.68-10.31l20.36,11.95c.72.43,1.61.36,2.24-.18l21.54-18.41c.63-.54.87-1.43.54-2.17l-8.63-21.97c6.73-9.15,11.77-19.2,15.08-29.71l22.89-5.93c.81-.22,1.36-.92,1.45-1.75l2.17-28.24.05-.02Z"/>
      <path class="cls-2" d="M449.16,242.09c-14.9.43-27.34-11.32-27.74-26.24-.42-14.9,11.32-27.34,26.24-27.74h1.7c14.9.51,26.56,13.02,26.04,27.92-.49,14.25-11.99,25.66-26.24,26.04v.02ZM449.27,191.75c-7.61-.04-14.74,3.62-19.11,9.84-7.47,10.54-4.99,25.13,5.55,32.58,10.54,7.45,25.13,4.99,32.57-5.55,7.45-10.54,4.99-25.13-5.55-32.58-3.94-2.8-8.64-4.3-13.47-4.3Z"/>
      <path class="cls-1" d="M352.75,306.22c.02-.4-.22-.81-.58-1.01l-11.14-4.81c-.87-5.68-2.66-11.19-5.3-16.29l6.18-10.45c.22-.38.15-.83-.11-1.16l-9.49-11.03c-.27-.31-.72-.45-1.1-.29l-11.3,4.45c-4.63-3.4-9.78-6.02-15.24-7.76l-3.07-11.75c-.11-.42-.47-.72-.9-.76l-14.52-1.14c-.4-.02-.8.22-.96.58l-4.85,11.14c-5.68.87-11.19,2.64-16.29,5.28l-10.45-6.13c-.38-.22-.83-.16-1.16.11l-11.03,9.49c-.31.27-.45.72-.29,1.1l4.45,11.3c-3.4,4.63-6.02,9.78-7.76,15.24l-11.75,3.06c-.43.11-.72.47-.76.9l-1.14,14.48c-.02.43.22.83.58,1.01l11.14,4.85c.87,5.68,2.66,11.18,5.3,16.29l-6.18,10.45c-.22.38-.16.8.11,1.16l9.49,11.03c.27.36.72.45,1.1.29l11.3-4.46c4.63,3.4,9.78,6.02,15.24,7.77l3.07,11.75c.11.43.47.72.9.76l14.52,1.14c.4.02.81-.22.96-.58l4.85-11.14c5.59-.87,11.1-2.62,16.29-5.3l10.45,6.13c.38.22.83.18,1.16-.09l11.03-9.49c.36-.27.44-.72.29-1.1l-4.45-11.3c3.4-4.63,6.02-9.78,7.76-15.24l11.75-3.07c.43-.11.72-.47.76-.9l1.14-14.52Z"/>
      <path class="cls-2" d="M288.45,323.26c-8.14.31-14.99-6.02-15.32-14.16-.31-8.14,6.02-14.99,14.16-15.33h1.25c8.15.38,14.43,7.27,14.05,15.41-.36,7.65-6.51,13.76-14.16,14.05l.02.02ZM288.49,297.42c-6.13,0-11.12,4.94-11.14,11.07,0,6.13,4.94,11.12,11.08,11.14,6.13.02,11.12-4.95,11.14-11.08,0-6.13-4.94-11.12-11.08-11.14Z"/>
    </g>
  </g>
</svg>