<?xml version="1.0" encoding="UTF-8"?>
<svg id="Calque_2" data-name="Calque 2" xmlns="http://www.w3.org/2000/svg" xmlns:xlink="http://www.w3.org/1999/xlink" viewBox="0 0 800 450">
  <defs>
    <style>
      .cls-1 {
        fill: #000091;
      }

      .cls-2 {
        fill: #4b74bc;
      }

      .cls-3 {
        fill: url(#Dégradé_sans_nom_3);
      }

      .cls-4 {
        fill: #465f9d;
      }

      .cls-5 {
        fill: url(#Dégradé_sans_nom_3-2);
      }

      .cls-6 {
        fill: url(#Dégradé_sans_nom);
      }

      .cls-7 {
        fill: #fcc63a;
      }
    </style>
    <linearGradient id="Dégradé_sans_nom" data-name="Dégradé sans nom" x1="356.5" y1="-593.8" x2="403.79" y2="-833.97" gradientTransform="translate(0 -589.72) scale(1 -1)" gradientUnits="userSpaceOnUse">
      <stop offset="0" stop-color="#e1f3ff"/>
      <stop offset="1" stop-color="#fff"/>
    </linearGradient>
    <linearGradient id="Dégradé_sans_nom_3" data-name="Dégradé sans nom 3" x1="339.11" y1="-669.06" x2="338.45" y2="-747.06" gradientTransform="translate(0 -589.72) scale(1 -1)" gradientUnits="userSpaceOnUse">
      <stop offset="0" stop-color="#1a3080"/>
      <stop offset="1" stop-color="#1a3080"/>
    </linearGradient>
    <linearGradient id="Dégradé_sans_nom_3-2" data-name="Dégradé sans nom 3" x1="372.53" y1="262.15" x2="431.79" y2="262.15" gradientTransform="matrix(1,0,0,1,0,0)" xlink:href="#Dégradé_sans_nom_3"/>
  </defs>
  <g id="Calque_1-2" data-name="Calque 1">
    <g>
      <rect class="cls-6" width="800" height="450"/>
      <g>
        <path class="cls-4" d="M263.04,244.58l14.16,87.93c2.5,15.39,16.69,26.05,32.15,24.1l211.62-25.79c10.33-1.23,18.19-9.9,18.42-20.33.45-22.71-.39-63.18-9.97-100.01l-266.37,34.07v.03Z"/>
        <path class="cls-7" d="M316.85,172.57l-.26-6.88c.52-1.72,1.89-3.06,3.6-3.6,6.46-1.89,22.54-5.79,31.18-.95l2.18,7.76-36.73,3.64h.03v.03Z"/>
        <path class="cls-7" d="M336.53,163.38c-1.46.58-2.95.78-4.55.58-1.91-.22-3.44-1.72-3.67-3.6l-2.72-21.34,10.88-1.36,2.73,21.3c.22,1.92-.85,3.7-2.66,4.42Z"/>
        <path class="cls-7" d="M421.98,159.12l-.26-6.88c.51-1.72,1.85-3.09,3.6-3.61,6.46-1.88,22.54-5.81,31.15-.94l2.18,7.76-36.7,3.64h.03v.03Z"/>
        <path class="cls-7" d="M441.66,149.93c-1.49.55-2.95.78-4.58.58-1.89-.23-3.41-1.72-3.64-3.6l-3.02-23.58,10.88-1.4,3.02,23.58c.23,1.89-.85,3.7-2.66,4.42Z"/>
        <path class="cls-7" d="M324.35,144.44c-2.08,0-3.93-1.3-4.67-3.25-1.6-4.22-1.66-8.61-1.3-11.88.39-3.47,2.47-6.53,5.52-8.22,27.51-15.17,78.76-22.34,102.6-25.01l3.67-.39,1.46-.07c6.01,0,11.4,3.97,13.09,9.81,1.26,4.84,1.78,9.84,1.53,14.85-.14,2.7-2.14,4.91-4.81,5.33l-24.3,3.9-91.91,14.84-.78.13h-.03l-.07-.03ZM355.63,111.44h-.23c-9.87,1.98-19.48,5.07-28.64,9.26-3.44,1.5-5.88,4.71-6.4,8.45-.62,4.58.39,9.09.43,9.26.2.88,1.04,1.4,1.91,1.2.88-.2,1.4-1.04,1.2-1.92,0,0-.94-4.16-.39-8.12.39-2.56,2.12-4.84,4.55-5.94,4.97-2.14,17.57-7.38,27.87-9,.88-.07,1.53-.85,1.46-1.75-.07-.91-.85-1.53-1.75-1.47v.03Z"/>
        <path class="cls-3" d="M322.31,139.7c-.75,0-1.4-.52-1.56-1.26,0-.2-1.04-4.68-.42-9.26.52-3.74,2.95-6.92,6.4-8.45,9.22-4.18,18.94-7.31,28.87-9.26.87-.07,1.66.59,1.75,1.46.1.88-.58,1.66-1.46,1.76-10.26,1.59-22.9,6.86-27.87,9-2.43,1.07-4.16,3.31-4.54,5.94-.3,2.72-.16,5.46.39,8.12.2.88-.36,1.72-1.2,1.91-.14,0-.23.03-.36.03Z"/>
        <path class="cls-2" d="M262.32,176.86c37.64-5.33,200.51-27.91,248.68-28.26,4.16,0,7.82,2.53,9.22,6.4,4.41,12.31,13.83,40.99,16.89,70.23.39,3.96-2.08,7.69-5.85,8.9l-105.55,34.33-38.42,4.94-118.18-8.22c-4.16-.26-7.57-3.35-8.32-7.44-2.63-14.56-8.21-48.82-7.08-71.46.22-4.81,3.86-8.8,8.64-9.45l-.03.03Z"/>
        <path class="cls-1" d="M492.62,159.38c-.33,0-.59-.23-.62-.55-.03-.32.23-.58.55-.62l4.81-.32c.39-.03.62.22.62.55,0,.36-.22.62-.55.66l-4.81.26h-.03l.03.03ZM476.6,160.65c-.36,0-.62-.22-.62-.55,0-.35.2-.62.55-.65l4.81-.39c.35,0,.62.22.65.55,0,.32-.23.62-.55.66l-4.81.39h-.07.03ZM512.1,160.71c-.26,0-.52-.16-.59-.39l-.62-1.72h-2.18c-.32,0-.58-.22-.62-.58,0-.32.26-.58.58-.58h2.37c.39-.03.78.19.91.55l.71,1.95c.1.3-.06.66-.35.75-.07,0-.14.03-.2.03h-.03ZM460.56,162.11c-.32,0-.55-.22-.58-.55,0-.32.19-.62.55-.65l4.81-.46c.32,0,.62.23.65.55,0,.36-.22.62-.55.65l-4.81.45h-.07ZM444.55,163.76c-.26,0-.55-.22-.59-.55,0-.36.23-.62.55-.65l4.81-.52c.39,0,.62.2.65.55,0,.32-.2.62-.55.66l-4.81.51h-.06ZM428.57,165.52c-.32,0-.55-.23-.58-.55-.03-.36.2-.62.55-.65l4.81-.55c.36,0,.62.2.62.55.03.32-.2.62-.52.65l-4.81.52h-.07v.03ZM412.59,167.31c-.32,0-.62-.23-.62-.55s.23-.62.55-.62l4.81-.58c.39-.03.62.19.65.55.03.32-.2.62-.52.65l-4.81.55h-.06ZM396.61,169.23c-.32,0-.58-.23-.62-.55-.03-.32.22-.59.55-.62l4.78-.59c.39-.06.62.2.65.52.03.32-.2.62-.52.65l-4.81.59h-.07.03ZM380.66,171.17c-.32,0-.55-.23-.58-.52-.03-.36.2-.65.52-.72l4.81-.58c.32-.03.62.2.65.52.03.32-.2.62-.52.65l-4.81.62h-.07v.03ZM364.69,173.15c-.26,0-.55-.2-.59-.52-.03-.36.2-.62.52-.65l4.81-.62c.36-.03.62.19.65.55.03.32-.2.62-.52.65l-4.81.59h-.06ZM348.74,175.23c-.32,0-.62-.22-.65-.55,0-.32.23-.62.55-.65l4.81-.62c.32,0,.62.2.65.52,0,.36-.2.65-.55.72l-4.77.62h-.07l.03-.03ZM517.1,176.01c-.26,0-.52-.16-.59-.43l-1.39-4.61c-.14-.32.06-.65.39-.78.32-.07.65.13.78.39l1.39,4.68c.07.26-.13.62-.39.72h-.2v.03ZM332.76,177.31c-.33,0-.62-.23-.62-.55s.23-.62.55-.62l4.81-.65c.36,0,.62.2.65.55.07.32-.2.62-.52.65l-4.81.62h-.06ZM316.82,179.42c-.26,0-.55-.2-.59-.52-.03-.32.2-.62.52-.65l4.81-.65c.32-.03.62.2.65.52.03.36-.2.65-.52.72l-4.81.62h-.06v-.03ZM300.87,181.56c-.32,0-.55-.2-.58-.52-.03-.32.19-.62.51-.65l4.81-.65c.32,0,.62.2.66.52.03.36-.2.65-.52.72l-4.81.62h-.07v-.03ZM284.92,183.74c-.32,0-.55-.2-.58-.52-.03-.32.2-.62.52-.71l4.77-.62c.36-.06.65.16.72.52,0,.32-.2.62-.52.65l-4.81.65h-.07l-.03.03ZM268.98,185.98c-.32,0-.62-.23-.62-.55s.23-.62.55-.62l4.77-.72c.32-.07.65.2.72.52,0,.36-.2.65-.52.72l-4.81.65h-.09ZM521.36,191.54c-.26,0-.52-.16-.58-.45l-1.17-4.64c-.14-.32.06-.65.39-.75.36-.06.65.14.78.43l1.16,4.68c.07.32-.13.65-.42.74h-.16ZM263.03,197.19c-.35,0-.58-.26-.62-.62v-4.84c0-.32.23-.58.59-.58.32,0,.58.26.58.62v4.81c.03.32-.2.58-.55.62ZM524.86,207.23c-.32,0-.55-.2-.62-.45l-.95-4.75c-.06-.32.13-.65.46-.72.32-.06.62.14.71.46l.97,4.68c.03.39-.16.65-.52.74h-.13.03l.03.03ZM264.01,213.24c-.32,0-.59-.23-.62-.55l-.39-4.84c0-.32.22-.62.55-.62.39,0,.62.23.65.55l.39,4.81c0,.32-.23.62-.55.65h-.06.03ZM527.4,223.11c-.32,0-.59-.22-.62-.55-.2-1.56-.39-3.15-.65-4.78,0-.32.2-.62.52-.65.36-.06.65.16.72.52l.65,4.81c0,.32-.2.62-.55.65h-.06ZM265.76,229.22c-.32,0-.55-.2-.58-.52l-.62-4.81c0-.32.2-.62.55-.65.32-.03.62.19.65.51l.58,4.81c.07.33-.16.62-.51.66h-.07ZM515.18,230.06c-.26,0-.52-.17-.58-.39-.13-.36.06-.72.39-.78l4.58-1.53c.32-.07.65.06.78.39.07.32-.07.65-.39.78l-4.61,1.49h-.16v.03ZM499.86,235.03c-.23,0-.45-.16-.55-.39-.13-.36.03-.72.39-.78l4.58-1.49c.32-.1.68.06.78.39.1.32-.06.68-.39.78l-4.61,1.46h-.2v.03ZM484.59,240c-.26,0-.52-.16-.59-.39-.13-.36.07-.65.39-.78l4.58-1.49c.33-.13.66.06.78.39.06.32-.07.65-.39.78l-4.61,1.46h-.16v.03ZM469.26,245c-.26,0-.51-.2-.58-.43-.07-.32.07-.65.39-.78l4.61-1.49c.32-.07.65.06.78.39.07.33-.13.66-.39.78l-4.61,1.49h-.2v.03ZM268.07,245.17c-.26,0-.55-.2-.58-.52l-.75-4.78c-.03-.35.2-.65.52-.71.36,0,.62.2.72.52l.74,4.77c.03.32-.2.62-.52.72h-.13ZM453.97,249.97c-.26,0-.52-.16-.59-.39-.13-.39.07-.72.39-.78l4.58-1.49c.32-.13.65.03.78.39.06.32-.07.62-.39.75l-4.61,1.49h-.16v.03ZM438.63,254.94c-.26,0-.51-.16-.58-.39-.07-.36.07-.72.39-.78l4.61-1.49c.32-.13.65.03.78.39.07.33-.13.62-.39.78l-4.61,1.46h-.2v.03ZM274.66,256.73h-.03l-5.16-.36-.07-.45c-.03-.32.16-.72.45-.78.2,0,.36,0,.46.13l4.38.26c.32,0,.59.32.55.65,0,.32-.26.55-.59.55ZM290.67,257.86l-4.84-.36c-.32,0-.59-.32-.55-.62,0-.36.32-.58.62-.58l4.84.35c.32,0,.59.32.55.62,0,.32-.26.58-.59.58h-.03ZM306.75,258.97l-4.84-.36c-.32,0-.59-.32-.55-.62,0-.35.32-.55.62-.58l4.81.39c.36,0,.59.26.59.58,0,.36-.32.59-.62.59ZM423.31,259.88c-.32,0-.55-.23-.59-.55-.03-.32.2-.62.52-.65h.32l4.19-1.39c.32-.14.65.06.78.39.07.32-.06.65-.39.78l-4.68,1.46h-.13l-.03-.03ZM322.79,260.07h-.03l-4.81-.32c-.36,0-.59-.32-.59-.65.03-.32.36-.55.66-.55l4.81.32c.32,0,.58.29.58.62s-.29.59-.62.59ZM338.8,261.21l-4.84-.36c-.32,0-.55-.32-.55-.62,0-.36.35-.55.65-.59l4.81.36c.32.14.49.49.36.81-.07.16-.2.3-.39.36h-.03v.03ZM407.36,261.93c-.32,0-.62-.23-.62-.55s.23-.62.55-.62l4.77-.62c.39-.07.65.19.71.51,0,.32-.19.62-.55.65l-4.77.62h-.1ZM354.88,262.31l-4.84-.32c-.32-.03-.58-.32-.55-.65,0-.32.35-.55.62-.55l4.81.32c.36,0,.58.32.58.62,0,.36-.32.58-.62.58ZM370.95,263.42l-4.84-.32c-.36,0-.58-.32-.55-.65,0-.32.32-.52.62-.55l4.81.32c.36.03.58.32.55.65,0,.32-.26.55-.58.55ZM391.38,263.97c-.26,0-.55-.19-.59-.51-.03-.36.2-.62.55-.72l4.77-.59c.39-.03.62.2.65.52.03.36-.2.62-.52.72l-4.81.58h-.06ZM387,264.55h-.03l-4.81-.36c-.36,0-.58-.32-.58-.62,0-.36.32-.55.65-.59l4.81.36c.32,0,.58.32.55.62,0,.32-.26.59-.59.59Z"/>
        <path class="cls-5" d="M424.12,285.05l-33.65,4.29c-4.38.58-8.5-2.24-9.61-6.53l-8.05-31.86c-1.3-5.07,2.18-10.17,7.44-10.82l40.4-5.17c5.13-.65,9.68,3.22,9.87,8.32l1.27,32.74c.2,4.55-3.12,8.44-7.67,9v.03Z"/>
        <path class="cls-7" d="M419.24,279.66l-25.62,3.28c-3.35.43-6.5-1.72-7.31-5l-6.14-24.23c-.91-3.54,1.24-7.18,4.77-8.09.3-.07.59-.13.88-.16l30.76-3.96c3.64-.49,6.98,2.04,7.46,5.69,0,.22.03.42.07.65l.94,24.94c.16,3.48-2.4,6.47-5.84,6.89h.03Z"/>
      </g>
    </g>
  </g>
</svg>