<svg width="120" height="120" viewBox="0 0 120 120" fill="none" xmlns="http://www.w3.org/2000/svg">
<path fill-rule="evenodd" clip-rule="evenodd" d="M93 38C92.4486 38 92 37.5514 92 37C92 36.4486 92.4486 36 93 36C93.5514 36 94 36.4486 94 37C94 37.5514 93.5514 38 93 38Z" fill="#ECECFE"/>
<path fill-rule="evenodd" clip-rule="evenodd" d="M27 38C26.4486 38 26 37.5514 26 37C26 36.4486 26.4486 36 27 36C27.5514 36 28 36.4486 28 37C28 37.5514 27.5514 38 27 38Z" fill="#ECECFE"/>
<path fill-rule="evenodd" clip-rule="evenodd" d="M31 88C30.4486 88 30 87.5514 30 87C30 86.4486 30.4486 86 31 86C31.5514 86 32 86.4486 32 87C32 87.5514 31.5514 88 31 88Z" fill="#ECECFE"/>
<path fill-rule="evenodd" clip-rule="evenodd" d="M85 92C84.4486 92 84 91.5514 84 91C84 90.4486 84.4486 90 85 90C85.5514 90 86 90.4486 86 91C86 91.5514 85.5514 92 85 92Z" fill="#ECECFE"/>
<path fill-rule="evenodd" clip-rule="evenodd" d="M39 26C38.4486 26 38 25.5514 38 25C38 24.4485 38.4486 24 39 24C39.5514 24 40 24.4485 40 25C40 25.5514 39.5514 26 39 26Z" fill="#ECECFE"/>
<path fill-rule="evenodd" clip-rule="evenodd" d="M75 98C74.4486 98 74 97.5514 74 97C74 96.4486 74.4486 96 75 96C75.5514 96 76 96.4486 76 97C76 97.5514 75.5514 98 75 98Z" fill="#ECECFE"/>
<path fill-rule="evenodd" clip-rule="evenodd" d="M36 50C36 47.7934 37.7935 46 40 46C42.2065 46 44 47.7934 44 50C44 52.2065 42.2065 54 40 54C37.7935 54 36 52.2065 36 50ZM42 50C42 48.898 41.102 48 40 48C38.898 48 38 48.898 38 50C38 51.1019 38.8981 52 40 52C41.1019 52 42 51.1019 42 50Z" fill="#E1000F"/>
<path fill-rule="evenodd" clip-rule="evenodd" d="M46 46C46 43.7934 47.7935 42 50 42C52.2065 42 54 43.7934 54 46C54 48.2065 52.2065 50 50 50C47.7935 50 46 48.2065 46 46ZM52 46C52 44.898 51.102 44 50 44C48.898 44 48 44.898 48 46C48 47.1019 48.8981 48 50 48C51.1019 48 52 47.1019 52 46Z" fill="#E1000F"/>
<path d="M46.553 46.1056C47.047 45.8586 47.6476 46.0588 47.8946 46.5528C48.124 47.0115 47.9677 47.5622 47.5487 47.8363L47.4474 47.8944L43.4474 49.8944C42.9534 50.1414 42.3528 49.9412 42.1058 49.4472C41.8764 48.9885 42.0327 48.4378 42.4517 48.1637L42.553 48.1056L46.553 46.1056Z" fill="#E1000F"/>
<path d="M52.2929 47.2929C52.6534 46.9324 53.2206 46.9047 53.6129 47.2097L53.7071 47.2929L57.7071 51.2929C58.0976 51.6834 58.0976 52.3166 57.7071 52.7071C57.3466 53.0676 56.7794 53.0953 56.3871 52.7903L56.2929 52.7071L52.2929 48.7071C51.9024 48.3166 51.9024 47.6834 52.2929 47.2929Z" fill="#E1000F"/>
<path fill-rule="evenodd" clip-rule="evenodd" d="M70 54C70 48.4848 74.485 44 80 44C85.515 44 90 48.4848 90 54C90 59.5149 85.5149 64 80 64C74.4851 64 70 59.5149 70 54ZM88 54C88 49.5894 84.4105 46 80 46C75.5895 46 72 49.5894 72 54C72 58.4103 75.5897 62 80 62C84.4103 62 88 58.4103 88 54Z" fill="#E1000F"/>
<path d="M80.0369 48.7318C80.1851 48.1997 80.7365 47.8885 81.2685 48.0367C83.6081 48.6881 85.4017 50.523 85.8765 52.7982C85.9893 53.3389 85.6425 53.8686 85.1019 53.9814C84.5612 54.0943 84.0315 53.7475 83.9187 53.2068C83.6001 51.6804 82.3667 50.4185 80.7321 49.9633C80.2 49.8152 79.8888 49.2638 80.0369 48.7318Z" fill="#E1000F"/>
<path d="M85.9643 60.134C86.4084 59.8776 86.9675 60.0005 87.2662 60.4024L87.3303 60.5L93.3303 70.8923C94.1588 72.3272 93.6671 74.162 92.2323 74.9904C90.8486 75.7892 89.0931 75.3606 88.2267 74.0424L88.1342 73.8923L82.1342 63.5C81.858 63.0217 82.0219 62.4101 82.5002 62.134C82.9443 61.8776 83.5034 62.0005 83.8021 62.4024L83.8662 62.5L89.8662 72.8923C90.1424 73.3706 90.754 73.5345 91.2323 73.2583C91.6764 73.0019 91.8494 72.4563 91.6508 71.9967L91.5983 71.8923L85.5983 61.5C85.3221 61.0217 85.486 60.4101 85.9643 60.134Z" fill="#E1000F"/>
<path d="M64.553 50.1056C65.047 49.8586 65.6476 50.0588 65.8946 50.5528C66.124 51.0115 65.9677 51.5622 65.5487 51.8363L65.4474 51.8944L63.4474 52.8944C62.9534 53.1414 62.3528 52.9412 62.1058 52.4472C61.8764 51.9885 62.0327 51.4378 62.4517 51.1637L62.553 51.1056L64.553 50.1056Z" fill="#E1000F"/>
<path fill-rule="evenodd" clip-rule="evenodd" d="M56 52C56 49.7934 57.7935 48 60 48C62.2065 48 64 49.7934 64 52C64 54.2065 62.2065 56 60 56C57.7935 56 56 54.2065 56 52ZM62 52C62 50.898 61.102 50 60 50C58.898 50 58 50.898 58 52C58 53.1019 58.8981 54 60 54C61.1019 54 62 53.1019 62 52Z" fill="#E1000F"/>
<path d="M79 36C79.5128 36 79.9355 36.386 79.9933 36.8834L80 37V39C80 39.5523 79.5523 40 79 40C78.4872 40 78.0645 39.614 78.0067 39.1166L78 39V38H32V74H78V69C78 68.4872 78.386 68.0645 78.8834 68.0067L79 68C79.5128 68 79.9355 68.386 79.9933 68.8834L80 69V75C80 75.5128 79.614 75.9355 79.1166 75.9933L79 76H31C30.4872 76 30.0645 75.614 30.0067 75.1166L30 75V37C30 36.4872 30.386 36.0645 30.8834 36.0067L31 36H79Z" fill="#000091"/>
<path d="M59 38C59.5128 38 59.9355 37.614 59.9933 37.1166L60 37V35C60 33.4023 58.7511 32.0963 57.1763 32.0051L57 32H53C51.4023 32 50.0963 33.2489 50.0051 34.8237L50 35V37C50 37.5523 50.4477 38 51 38C51.5128 38 51.9355 37.614 51.9933 37.1166L52 37V35C52 34.4872 52.386 34.0645 52.8834 34.0067L53 34H57C57.5128 34 57.9355 34.386 57.9933 34.8834L58 35V37C58 37.5523 58.4477 38 59 38Z" fill="#000091"/>
<path d="M71 74C71.5128 74 71.9355 74.386 71.9933 74.8834L72 75V77C72 78.5977 70.7511 79.9037 69.1763 79.9949L69 80H41C39.4023 80 38.0963 78.7511 38.0051 77.1763L38 77V75C38 74.4477 38.4477 74 39 74C39.5128 74 39.9355 74.386 39.9933 74.8834L40 75V77C40 77.5128 40.386 77.9355 40.8834 77.9933L41 78H69C69.5128 78 69.9355 77.614 69.9933 77.1166L70 77V75C70 74.4477 70.4477 74 71 74Z" fill="#000091"/>
<path d="M57.8 78.4001C57.4686 77.9583 56.8418 77.8687 56.4 78.2001C55.9922 78.506 55.8845 79.0636 56.131 79.4951L56.2 79.6001L62.2 87.6001C62.5314 88.0419 63.1582 88.1315 63.6 87.8001C64.0078 87.4942 64.1155 86.9366 63.869 86.5051L63.8 86.4001L57.8 78.4001Z" fill="#000091"/>
<path d="M43 58C43.5128 58 43.9355 58.386 43.9933 58.8834L44 59V61C44 61.5523 43.5523 62 43 62C42.4872 62 42.0645 61.614 42.0067 61.1166L42 61V60H38V68H42V65C42 64.4872 42.386 64.0645 42.8834 64.0067L43 64C43.5128 64 43.9355 64.386 43.9933 64.8834L44 65V69C44 69.5128 43.614 69.9355 43.1166 69.9933L43 70H37C36.4872 70 36.0645 69.614 36.0067 69.1166L36 69V59C36 58.4872 36.386 58.0645 36.8834 58.0067L37 58H43Z" fill="#000091"/>
<path d="M49 54C49.5523 54 50 54.4477 50 55C50 55.5128 49.614 55.9355 49.1166 55.9933L49 56H48V68H52V57C52 56.4872 52.386 56.0645 52.8834 56.0067L53 56C53.5128 56 53.9355 56.386 53.9933 56.8834L54 57V69C54 69.5128 53.614 69.9355 53.1166 69.9933L53 70H47C46.4872 70 46.0645 69.614 46.0067 69.1166L46 69V55C46 54.4872 46.386 54.0645 46.8834 54.0067L47 54H49Z" fill="#000091"/>
<path d="M59 62C59.5523 62 60 62.4477 60 63C60 63.5128 59.614 63.9355 59.1166 63.9933L59 64H58V68H62V63C62 62.4872 62.386 62.0645 62.8834 62.0067L63 62C63.5128 62 63.9355 62.386 63.9933 62.8834L64 63V69C64 69.5128 63.614 69.9355 63.1166 69.9933L63 70H57C56.4872 70 56.0645 69.614 56.0067 69.1166L56 69V63C56 62.4872 56.386 62.0645 56.8834 62.0067L57 62H59Z" fill="#000091"/>
<path d="M67 60C67.5128 60 67.9355 60.386 67.9933 60.8834L68 61V68H72V67C72 66.4872 72.386 66.0645 72.8834 66.0067L73 66C73.5128 66 73.9355 66.386 73.9933 66.8834L74 67V69C74 69.5128 73.614 69.9355 73.1166 69.9933L73 70H67C66.4872 70 66.0645 69.614 66.0067 69.1166L66 69V61C66 60.4477 66.4477 60 67 60Z" fill="#000091"/>
<path d="M52.2 78.4001C52.5314 77.9583 53.1582 77.8687 53.6 78.2001C54.0078 78.506 54.1155 79.0636 53.869 79.4951L53.8 79.6001L47.8 87.6001C47.4686 88.0419 46.8418 88.1315 46.4 87.8001C45.9922 87.4942 45.8845 86.9366 46.131 86.5051L46.2 86.4001L52.2 78.4001Z" fill="#000091"/>
</svg>
